<?xml version="1.0" encoding="utf-8"?>
<!-- Generator: Adobe Illustrator 16.0.4, SVG Export Plug-In . SVG Version: 6.00 Build 0)  -->
<!DOCTYPE svg PUBLIC "-//W3C//DTD SVG 1.1//EN" "http://www.w3.org/Graphics/SVG/1.1/DTD/svg11.dtd">
<svg version="1.1" xmlns="http://www.w3.org/2000/svg" xmlns:xlink="http://www.w3.org/1999/xlink" x="0px" y="0px" width="64px"
	 height="64px" viewBox="0 0 64 64" enable-background="new 0 0 64 64" xml:space="preserve">
<g id="fb-like">
</g>
<g id="twitter">
</g>
<g id="facebook">
	<path d="M62.834,11.167c0-5.43-4.902-10.334-10.333-10.334H11.168c-5.432,0-10.334,4.904-10.334,10.334v41.332
		c0,5.431,4.902,10.335,10.334,10.335h20.665V39.412h-7.577V29.078h7.577v-4.026c0-6.944,5.215-13.196,11.625-13.196h8.353v10.333
		h-8.353c-0.914,0-1.979,1.11-1.979,2.772v4.117h10.332v10.334H41.479v23.422h11.022c5.431,0,10.333-4.904,10.333-10.335V11.167z"/>
</g>
</svg>
