<svg style="dislay:none;"><symbol viewBox="0 0 64 64" id="svg-facebook"><title>facebook</title>   <g id="svgstore3146fbe1d9f9a421c499eaf343e59ce6facebook"> <path d="M62.834,11.167c0-5.43-4.902-10.334-10.333-10.334H11.168c-5.432,0-10.334,4.904-10.334,10.334v41.332
		c0,5.431,4.902,10.335,10.334,10.335h20.665V39.412h-7.577V29.078h7.577v-4.026c0-6.944,5.215-13.196,11.625-13.196h8.353v10.333
		h-8.353c-0.914,0-1.979,1.11-1.979,2.772v4.117h10.332v10.334H41.479v23.422h11.022c5.431,0,10.333-4.904,10.333-10.335V11.167z"/> </g> </symbol><symbol viewBox="0 0 64 64" id="svg-fb-like"><title>fb-like</title> <g id="svgstoref2124afc2b5f26cae3d74ffe426e76d6fb-like"> <path d="M61.422,30.094c-1.837-4.452-5.31-6.713-10.324-6.713c0,0-3.29,0-6.009,0c1.015-2.291,2.147-5.616,2.147-9.621
		c0-1.098-0.087-2.237-0.296-3.396c-0.788-4.655-3.975-7.131-8.501-6.635c-1.794,0.206-2.408,1.903-3.895,6.021
		c-1.231,3.412-2.92,8.087-5.37,11.845c-1.801,2.762-5.01,4.941-7.705,6.284v-0.342H1.632v29.409h19.84v-1.62
		c3.124-0.152,4.899-0.064,5.314,0.07l3.552,2.058l2.653,1.65c2.577,1.388,13.854,1.52,18.689,0.804
		c6.216-0.904,7.718-5.986,7.781-6.208C59.948,52.013,64.228,36.886,61.422,30.094z M55.713,52.63
		c-0.035,0.112-0.941,2.898-4.6,3.422c-5.203,0.771-14.853,0.304-16.283-0.376c0.011,0.007-2.353-1.474-2.353-1.474l-4.459-2.499
		c-1.035-0.346-3.38-0.387-6.546-0.244V32.087c3.196-1.289,8.146-4.059,10.969-8.369c2.7-4.135,4.477-9.053,5.775-12.65
		c0,0,1.146-2.843,1.42-3.501c1.977,0.01,3.065,1.095,3.473,3.444c0.16,0.919,0.224,1.833,0.224,2.715
		c0,5.828-3.001,10.468-3.045,10.526l-1.978,3.009l12.788,0.005c3.419,0,5.49,1.328,6.723,4.309
		C59.76,36.269,56.945,48.371,55.713,52.63z"/> </g>  </symbol><symbol viewBox="0 0 64 64" id="svg-twitter"><title>twitter</title>  <g id="svgstore043677328bcfa4ce1e31727e947a90aftwitter"> <path d="M61.396,7.657c-2.469,1.462-5.203,2.524-8.111,3.099c-2.328-2.485-5.643-4.033-9.314-4.033
		c-7.053,0-12.766,5.718-12.766,12.763c0,1,0.113,1.975,0.33,2.907C20.927,21.862,11.521,16.779,5.226,9.057
		c-1.098,1.881-1.727,4.075-1.727,6.415c0,4.431,2.256,8.338,5.678,10.624c-2.094-0.07-4.061-0.646-5.781-1.603v0.159
		c0,6.185,4.4,11.341,10.236,12.519c-1.068,0.289-2.195,0.449-3.361,0.449c-0.826,0-1.623-0.084-2.406-0.232
		c1.627,5.07,6.34,8.762,11.924,8.867c-4.367,3.422-9.873,5.459-15.852,5.459c-1.031,0-2.047-0.059-3.047-0.172
		c5.65,3.617,12.357,5.734,19.566,5.734c23.479,0,36.316-19.453,36.316-36.321l-0.041-1.653c2.502-1.793,4.67-4.041,6.379-6.599
		c-2.291,1.014-4.746,1.703-7.328,2.011C58.417,13.135,60.437,10.631,61.396,7.657z"/> </g> </symbol></svg>