<?xml version="1.0" encoding="utf-8"?>
<!-- Generator: Adobe Illustrator 16.0.4, SVG Export Plug-In . SVG Version: 6.00 Build 0)  -->
<!DOCTYPE svg PUBLIC "-//W3C//DTD SVG 1.1//EN" "http://www.w3.org/Graphics/SVG/1.1/DTD/svg11.dtd">
<svg version="1.1" id="Layer_1" xmlns="http://www.w3.org/2000/svg" xmlns:xlink="http://www.w3.org/1999/xlink" x="0px" y="0px"
	 width="64px" height="64px" viewBox="0 0 64 64" enable-background="new 0 0 64 64" xml:space="preserve">
<g>
	<circle fill="#FFFFFF" stroke="#DB2525" stroke-width="2" stroke-miterlimit="10" cx="32" cy="32" r="30"/>
	<g>
		<path fill="#DB2525" d="M40.167,43.25l-1.208-4.771l-4.605-17.19c-0.236-0.876-1.609-1.494-2.481-1.26l-23.325,6.25
			c-0.877,0.235-1.402,1.144-1.167,2.021l4.624,17.256l1.33,5.029L40.167,43.25z"/>
		<path fill="#DB2525" d="M28.093,46.457l27.509-7.371c0.887-0.236,0.979-1.02,0.74-1.904l-0.82-3.068L13.602,45.346
			c-0.877,0.234-1.275,1.11-1.04,1.987l0.358,1.337c0.238,0.889,1.19,1.534,2.064,1.301l4.458-1.195"/>
		<g>
			<path fill="#DB2525" d="M52.555,36.854l1.729-0.463c0.881-0.236,1.502-1.304,1.264-2.19c0,0-1.393-5.194-1.797-6.707
				c-0.407-1.518-2.094-2.899-2.094-2.899l-4.838-3.803c-0.977-0.686-2.322-1.381-3.494-1.067l-7.199,1.932l4.43,16.561
				c0.236,0.883,1.309,1.491,2.191,1.266l0.279-0.074"/>
			<path fill="#FFFFFF" d="M51.337,26.518l-11.462,3.107l-1.844-6.969c0,0,5.02-1.329,5.656-1.5
				c0.664-0.178,1.004,0.047,1.504,0.402c1.496,1.067,4.519,3.289,5.23,3.842C51.379,26.144,51.337,26.518,51.337,26.518z"/>
		</g>
		<g>
			<path fill="#FFFFFF" stroke="#DB2525" stroke-width="2" stroke-miterlimit="10" d="M22.278,42.085
				c2.392-0.642,4.849,0.769,5.489,3.158c0.641,2.394-0.781,4.846-3.173,5.485c-2.388,0.641-4.836-0.774-5.478-3.168
				C18.477,45.171,19.891,42.725,22.278,42.085z"/>
		</g>
		<g>
			<path fill="#FFFFFF" stroke="#DB2525" stroke-width="2" stroke-miterlimit="10" d="M47.361,35.363
				c2.392-0.641,4.838,0.771,5.479,3.162c0.643,2.393-0.77,4.843-3.16,5.482c-2.392,0.641-4.843-0.773-5.484-3.167
				C43.555,38.451,44.973,36.004,47.361,35.363z"/>
		</g>
		<g>
			<path fill="#FFFFFF" d="M14.822,41.066c-0.29-1.082-2.164-0.127-2.558-1.596c-0.243-0.904,0.443-1.377,1.098-1.554
				c0.397-0.106,1.142-0.194,1.231,0.144c0.033,0.121,0.008,0.371-0.176,0.42c-0.165,0.045-0.386-0.146-0.906-0.006
				c-0.446,0.119-0.719,0.377-0.615,0.762c0.242,0.904,2.121-0.037,2.557,1.59c0.234,0.875-0.238,1.46-1.046,1.677
				c-0.795,0.213-1.463-0.054-1.545-0.36c-0.04-0.146,0.035-0.383,0.188-0.424c0.22-0.059,0.496,0.385,1.175,0.203
				C14.666,41.805,14.94,41.508,14.822,41.066z"/>
			<path fill="#FFFFFF" d="M18.144,39.24l-1.522,0.408l0.494,1.847c0.038,0.142-0.102,0.257-0.268,0.302
				c-0.158,0.042-0.343,0.014-0.381-0.128l-1.085-4.049c-0.039-0.147,0.109-0.253,0.269-0.295c0.165-0.044,0.341-0.026,0.38,0.12
				l0.452,1.688l1.523-0.407l-0.452-1.688c-0.04-0.147,0.109-0.252,0.268-0.295c0.165-0.044,0.341-0.026,0.381,0.12l1.085,4.05
				c0.037,0.142-0.103,0.257-0.268,0.302c-0.158,0.042-0.344,0.014-0.381-0.128L18.144,39.24z"/>
			<path fill="#FFFFFF" d="M19.133,36.615c-0.039-0.146,0.109-0.252,0.268-0.295c0.165-0.045,0.342-0.026,0.381,0.121l1.085,4.049
				c0.037,0.141-0.103,0.257-0.268,0.301c-0.159,0.043-0.344,0.014-0.381-0.127L19.133,36.615z"/>
			<path fill="#FFFFFF" d="M20.711,36.191c-0.029-0.109,0.042-0.233,0.195-0.274l1.192-0.32c0.753-0.201,1.437,0.002,1.7,0.987
				l0.014,0.049c0.262,0.979-0.244,1.514-1.015,1.721l-0.759,0.203l0.405,1.512c0.038,0.141-0.103,0.257-0.267,0.301
				c-0.159,0.043-0.344,0.013-0.382-0.129L20.711,36.191z M21.458,36.385l0.444,1.658l0.758-0.203
				c0.452-0.121,0.659-0.453,0.515-0.99l-0.02-0.074c-0.145-0.537-0.487-0.715-0.938-0.594L21.458,36.385z"/>
			<path fill="#FFFFFF" d="M24.168,35.267c-0.029-0.111,0.042-0.234,0.195-0.275l1.193-0.319c0.752-0.202,1.436,0.002,1.699,0.986
				l0.014,0.049c0.262,0.979-0.244,1.514-1.015,1.721l-0.759,0.202l0.405,1.513c0.038,0.141-0.102,0.256-0.267,0.301
				c-0.159,0.043-0.344,0.014-0.382-0.127L24.168,35.267z M24.915,35.458l0.444,1.658l0.758-0.203
				c0.453-0.121,0.659-0.452,0.516-0.99l-0.02-0.073c-0.145-0.538-0.487-0.714-0.939-0.594L24.915,35.458z"/>
			<path fill="#FFFFFF" d="M27.625,34.339c-0.039-0.146,0.109-0.252,0.269-0.295c0.165-0.044,0.341-0.025,0.38,0.121l1.085,4.049
				c0.038,0.142-0.102,0.257-0.267,0.302c-0.159,0.043-0.344,0.014-0.382-0.127L27.625,34.339z"/>
			<path fill="#FFFFFF" d="M32.393,37.375l-2.208-2.392l0.753,2.808c0.037,0.141-0.102,0.258-0.268,0.303
				c-0.158,0.041-0.344,0.012-0.381-0.129l-1.084-4.043c-0.041-0.152,0.103-0.256,0.268-0.3c0.232-0.062,0.365-0.006,0.587,0.235
				l2.067,2.285l-0.752-2.808c-0.039-0.147,0.109-0.252,0.269-0.295c0.165-0.044,0.341-0.026,0.38,0.121l1.085,4.048
				c0.037,0.141-0.104,0.258-0.268,0.303C32.684,37.555,32.521,37.512,32.393,37.375z"/>
			<path fill="#FFFFFF" d="M34.381,32.922c-0.459,0.123-0.654,0.444-0.512,0.982l0.479,1.78c0.145,0.538,0.475,0.718,0.934,0.595
				c0.451-0.121,0.66-0.445,0.516-0.983l-0.135-0.502l-0.617,0.165c-0.135,0.036-0.242-0.071-0.277-0.207
				c-0.033-0.122,0.004-0.276,0.139-0.312l1.053-0.282c0.135-0.036,0.242,0.047,0.273,0.163l0.215,0.802
				c0.266,0.99-0.24,1.525-1.012,1.732c-0.775,0.207-1.471-0.008-1.734-0.998l-0.477-1.779c-0.268-0.99,0.238-1.525,0.984-1.727
				c0.82-0.22,1.514,0.066,1.697,0.758c0.066,0.252-0.027,0.342-0.24,0.398c-0.172,0.047-0.334,0.03-0.381-0.127
				C35.152,33.037,34.912,32.779,34.381,32.922z"/>
		</g>
		<g>
			<path fill="#FFFFFF" d="M9.833,28.718c-0.081-0.301,0.189-0.541,0.511-0.627l3.884-1.041c0.311-0.083,0.531,0.204,0.612,0.504
				c0.092,0.345,0.018,0.688-0.272,0.766l-3.071,0.823l0.596,2.224l1.703-0.456c0.289-0.078,0.519,0.159,0.6,0.459
				c0.069,0.255,0.015,0.592-0.295,0.676l-1.703,0.456l0.817,3.05c0.081,0.3-0.244,0.554-0.601,0.649
				c-0.368,0.099-0.765,0.037-0.845-0.264L9.833,28.718z"/>
			<path fill="#FFFFFF" d="M15.48,27.192c-0.062-0.234,0.07-0.496,0.349-0.57l2.203-0.59c1.458-0.391,2.787-0.149,3.261,1.619
				c0.343,1.279-0.098,2.136-0.861,2.616l2.182,2.312c0.059,0.045,0.09,0.12,0.102,0.163c0.098,0.367-0.275,0.887-0.698,1
				c-0.2,0.054-0.423-0.02-0.594-0.213l-2.401-2.647l-0.936,0.25l0.778,2.904c0.081,0.301-0.234,0.552-0.6,0.65
				c-0.356,0.094-0.766,0.039-0.846-0.263L15.48,27.192z M17.146,27.629l0.635,2.368l1.224-0.328
				c0.723-0.193,1.112-0.618,0.876-1.497c-0.236-0.88-0.788-1.064-1.511-0.871L17.146,27.629z"/>
			<path fill="#FFFFFF" d="M24.084,28.154l1.69-0.453c0.289-0.078,0.531,0.155,0.612,0.456c0.068,0.256,0.004,0.596-0.308,0.679
				l-1.69,0.453l0.599,2.234l3.147-0.842c0.29-0.078,0.538,0.18,0.631,0.526c0.08,0.299,0.021,0.661-0.291,0.744l-3.96,1.061
				c-0.323,0.088-0.677,0.016-0.757-0.285l-1.935-7.222c-0.081-0.301,0.189-0.541,0.513-0.627l3.96-1.061
				c0.312-0.083,0.543,0.201,0.624,0.5c0.092,0.345,0.006,0.691-0.284,0.769l-3.147,0.843L24.084,28.154z"/>
			<path fill="#FFFFFF" d="M29.98,26.575l1.691-0.454c0.288-0.077,0.531,0.156,0.611,0.457c0.068,0.256,0.004,0.596-0.307,0.679
				l-1.691,0.453l0.599,2.234l3.148-0.843c0.289-0.078,0.539,0.18,0.631,0.526c0.08,0.298,0.021,0.66-0.291,0.744l-3.96,1.061
				c-0.324,0.088-0.675,0.016-0.756-0.285l-1.935-7.22c-0.081-0.302,0.187-0.54,0.511-0.627l3.961-1.062
				c0.312-0.083,0.544,0.201,0.625,0.5c0.092,0.345,0.006,0.691-0.283,0.769l-3.15,0.844L29.98,26.575z"/>
		</g>
	</g>
</g>
</svg>
