<?xml version="1.0" encoding="utf-8"?>
<!-- Generator: Adobe Illustrator 16.0.4, SVG Export Plug-In . SVG Version: 6.00 Build 0)  -->
<!DOCTYPE svg PUBLIC "-//W3C//DTD SVG 1.1//EN" "http://www.w3.org/Graphics/SVG/1.1/DTD/svg11.dtd">
<svg version="1.1" id="Ebene_1" xmlns="http://www.w3.org/2000/svg" xmlns:xlink="http://www.w3.org/1999/xlink" x="0px" y="0px"
	 width="98.5px" height="57.232px" viewBox="0 0 98.5 57.232" enable-background="new 0 0 98.5 57.232" xml:space="preserve">
<path id="CB_Trademark_10_" fill="none" stroke="#DB2525" stroke-width="3" stroke-miterlimit="10" d="M68.833,49.133
	c-5.48,0-10.633-2.134-14.508-6.009c-0.137-0.137-0.267-0.277-0.398-0.417l-0.067-0.072L25.092,13.87l5.524-5.523l17.842,17.842
	c0.533-4.533,2.565-8.778,5.867-12.08C58.2,10.234,63.353,8.1,68.832,8.1c5.481,0,10.633,2.135,14.508,6.009
	c8,8,8.001,21.016,0.001,29.017C79.466,46.999,74.313,49.133,68.833,49.133z M60.305,38.033c2.349,2.125,5.348,3.281,8.528,3.281
	c3.398,0,6.588-1.319,8.983-3.714c4.954-4.955,4.954-13.015,0-17.968c-2.396-2.396-5.586-3.714-8.984-3.714
	c-3.397,0-6.588,1.318-8.983,3.714c-4.821,4.822-4.992,12.522-0.395,17.55L60.305,38.033z M29.667,49.133
	c-5.48,0-10.632-2.134-14.508-6.009c-7.999-8-7.999-21.016,0-29.016l1.312-1.311l5.524,5.523l-1.312,1.312
	c-2.396,2.396-3.714,5.586-3.714,8.984c0,3.397,1.318,6.588,3.714,8.983c2.396,2.395,5.586,3.714,8.983,3.714
	c3.398,0,6.589-1.319,8.983-3.714l1.312-1.312l5.523,5.524l-1.311,1.312C40.299,46.999,35.147,49.133,29.667,49.133z"/>
</svg>
