<?xml version="1.0" encoding="utf-8"?>
<!-- Generator: Adobe Illustrator 16.0.4, SVG Export Plug-In . SVG Version: 6.00 Build 0)  -->
<!DOCTYPE svg PUBLIC "-//W3C//DTD SVG 1.1//EN" "http://www.w3.org/Graphics/SVG/1.1/DTD/svg11.dtd">
<svg version="1.1" id="Layer_1" xmlns="http://www.w3.org/2000/svg" xmlns:xlink="http://www.w3.org/1999/xlink" x="0px" y="0px"
	 width="512px" height="512px" viewBox="0 0 512 512" enable-background="new 0 0 512 512" xml:space="preserve">
<path fill="#1E1E1C" d="M256,512C114.841,512,0,397.159,0,256S114.841,0,256,0s256,114.841,256,256S397.159,512,256,512z
	 M256,23.364C127.723,23.364,23.362,127.724,23.362,256c0,128.278,104.361,232.639,232.638,232.639
	c128.276,0,232.637-104.36,232.637-232.639C488.637,127.724,384.277,23.364,256,23.364z M98.091,272.24l16.519-16.518l86.219,86.219
	l180.798-180.798l16.518,16.518L200.829,374.977L98.091,272.24z"/>
</svg>
