<?xml version="1.0" encoding="utf-8"?>
<!-- Generator: Adobe Illustrator 16.0.4, SVG Export Plug-In . SVG Version: 6.00 Build 0)  -->
<!DOCTYPE svg PUBLIC "-//W3C//DTD SVG 1.1//EN" "http://www.w3.org/Graphics/SVG/1.1/DTD/svg11.dtd">
<svg version="1.1" id="Layer_1" xmlns="http://www.w3.org/2000/svg" xmlns:xlink="http://www.w3.org/1999/xlink" x="0px" y="0px"
	 width="512px" height="512px" viewBox="0 0 512 512" enable-background="new 0 0 512 512" xml:space="preserve">
<path d="M256.004,512.004c-68.371,0-132.655-26.632-181.011-74.991C26.633,388.664,0,324.379,0,256
	c0-68.376,26.633-132.663,74.993-181.019C123.342,26.627,187.625-0.003,256-0.003c68.369,0,132.652,26.63,181.008,74.984
	C485.367,123.329,512,187.614,512,255.993c0,68.378-26.633,132.666-74.992,181.02C388.655,485.372,324.372,512.004,256.004,512.004z
	 M79.069,104.946C43.146,146.92,23.362,200.566,23.362,256c0,62.142,24.202,120.56,68.148,164.495
	c43.939,43.944,102.359,68.146,164.495,68.146c55.439,0,109.081-19.785,151.046-55.713l5.043-4.316L83.387,99.901L79.069,104.946z
	 M256,23.359c-55.439,0-109.084,19.784-151.053,55.708l-5.043,4.317l328.708,328.707l4.316-5.044
	c35.925-41.966,55.709-95.611,55.709-151.054c0-62.143-24.202-120.561-68.147-164.493C376.55,47.559,318.133,23.359,256,23.359z"/>
</svg>
