<?xml version="1.0" encoding="utf-8"?>
<!-- Generator: Adobe Illustrator 16.0.4, SVG Export Plug-In . SVG Version: 6.00 Build 0)  -->
<!DOCTYPE svg PUBLIC "-//W3C//DTD SVG 1.1//EN" "http://www.w3.org/Graphics/SVG/1.1/DTD/svg11.dtd">
<svg version="1.1" id="Layer_1" xmlns="http://www.w3.org/2000/svg" xmlns:xlink="http://www.w3.org/1999/xlink" x="0px" y="0px"
	 width="512px" height="512px" viewBox="0 0 512 512" enable-background="new 0 0 512 512" xml:space="preserve">
<path d="M244.134,512v-163.32l-35.677,35.677l-16.778-16.778L256,303.256l64.32,64.322l-16.778,16.778l-35.676-35.676V512H244.134z
	 M303.255,256l64.322-64.32l16.776,16.779l-35.675,35.675H512v23.732H348.679l35.675,35.678l-16.776,16.777L303.255,256z
	 M127.644,303.543l35.674-35.678H0v-23.732h163.319l-35.675-35.675l16.778-16.779l64.322,64.32l-64.322,64.321L127.644,303.543z
	 M191.679,144.423l16.778-16.778l35.677,35.674V0h23.732v163.319l35.676-35.674l16.778,16.778L256,208.745L191.679,144.423z"/>
</svg>
