<?xml version="1.0" encoding="utf-8"?>
<!-- Generator: Adobe Illustrator 16.0.4, SVG Export Plug-In . SVG Version: 6.00 Build 0)  -->
<!DOCTYPE svg PUBLIC "-//W3C//DTD SVG 1.1//EN" "http://www.w3.org/Graphics/SVG/1.1/DTD/svg11.dtd">
<svg version="1.1" id="Layer_1" xmlns="http://www.w3.org/2000/svg" xmlns:xlink="http://www.w3.org/1999/xlink" x="0px" y="0px"
	 width="512px" height="512px" viewBox="0 0 512 512" enable-background="new 0 0 512 512" xml:space="preserve">
<path d="M255.996,512c-68.38,0-132.666-26.632-181.016-74.991C26.628,388.658,0,324.376,0,256.004
	C0,187.627,26.63,123.342,74.983,74.992C123.335,26.632,187.617,0,255.987,0c68.375,0,132.664,26.633,181.021,74.993
	C485.368,123.346,512,187.628,512,255.996c0,68.366-26.633,132.651-74.993,181.013C388.662,485.368,324.378,512,255.996,512z
	 M255.987,23.363c-62.134,0-120.55,24.202-164.486,68.148c-43.94,43.935-68.14,102.353-68.14,164.493
	c0,62.136,24.199,120.552,68.14,164.488c43.933,43.945,102.352,68.146,164.495,68.146s120.562-24.201,164.494-68.147
	c43.945-43.947,68.147-102.365,68.147-164.494c0-62.131-24.202-120.546-68.147-164.485
	C376.548,47.565,318.126,23.363,255.987,23.363z M244.311,374.08v-31.245h23.362v31.245H244.311z M244.311,311.029V137.923h23.362
	v173.106H244.311z"/>
</svg>
