<?xml version="1.0" encoding="utf-8"?>
<!-- Generator: Adobe Illustrator 16.0.4, SVG Export Plug-In . SVG Version: 6.00 Build 0)  -->
<!DOCTYPE svg PUBLIC "-//W3C//DTD SVG 1.1//EN" "http://www.w3.org/Graphics/SVG/1.1/DTD/svg11.dtd">
<svg version="1.1" id="Layer_1" xmlns="http://www.w3.org/2000/svg" xmlns:xlink="http://www.w3.org/1999/xlink" x="0px" y="0px"
	 width="512px" height="512px" viewBox="0 0 512 512" enable-background="new 0 0 512 512" xml:space="preserve">
<path d="M255.836,512C114.748,511.916,0,397.107,0,256C0,114.841,114.842,0,256,0c141.158,0,256,114.841,256,256
	c0,53.698-16.447,105.102-47.562,148.654l-1.249,1.469L435.81,433.51h56.482v23.316h-98.193v-98.195h23.317v60.303l28.605-28.611
	l0.305-0.433c27.711-39.316,42.357-85.614,42.357-133.89c0-128.302-104.382-232.683-232.683-232.683
	C127.698,23.317,23.317,127.698,23.317,256c0,128.247,104.292,232.595,232.519,232.684V512z"/>
</svg>
