<?xml version="1.0" encoding="utf-8"?>
<!-- Generator: Adobe Illustrator 16.0.4, SVG Export Plug-In . SVG Version: 6.00 Build 0)  -->
<!DOCTYPE svg PUBLIC "-//W3C//DTD SVG 1.1//EN" "http://www.w3.org/Graphics/SVG/1.1/DTD/svg11.dtd">
<svg version="1.1" id="Layer_1" xmlns="http://www.w3.org/2000/svg" xmlns:xlink="http://www.w3.org/1999/xlink" x="0px" y="0px"
	 width="512px" height="512px" viewBox="0 0 512 512" enable-background="new 0 0 512 512" xml:space="preserve">
<path d="M413.766,512v-23.361h58.354L326.654,343.171l16.518-16.517L488.638,472.12v-58.354H512V512H413.766z M0,512v-98.235h23.362
	v58.354l145.467-145.466l16.518,16.517L39.879,488.637h58.354V512H0z M326.654,168.829L472.12,23.363h-58.354V0H512v98.234h-23.362
	V39.88L343.171,185.347L326.654,168.829z M23.362,39.88v58.354H0V0h98.233v23.363H39.879l145.468,145.466l-16.518,16.518
	L23.362,39.88z"/>
</svg>
