<?xml version="1.0" encoding="utf-8"?>
<!-- Generator: Adobe Illustrator 16.0.4, SVG Export Plug-In . SVG Version: 6.00 Build 0)  -->
<!DOCTYPE svg PUBLIC "-//W3C//DTD SVG 1.1//EN" "http://www.w3.org/Graphics/SVG/1.1/DTD/svg11.dtd">
<svg version="1.1" id="Layer_1" xmlns="http://www.w3.org/2000/svg" xmlns:xlink="http://www.w3.org/1999/xlink" x="0px" y="0px"
	 width="512px" height="512px" viewBox="0 0 512 512" enable-background="new 0 0 512 512" xml:space="preserve">
<path d="M255.996,511.996c-68.38,0-132.666-26.632-181.014-74.99C26.629,388.658,0,324.377,0,256.004
	C0,187.63,26.63,123.346,74.983,74.995C123.337,26.636,187.621,0.004,255.993,0.004c68.372,0,132.659,26.633,181.018,74.992
	c48.357,48.352,74.989,112.632,74.989,181c0,68.364-26.632,132.647-74.991,181.01C388.664,485.364,324.379,511.996,255.996,511.996z
	 M255.992,23.368c-62.137,0-120.555,24.201-164.492,68.146c-43.939,43.935-68.138,102.353-68.138,164.49
	c0,62.135,24.199,120.55,68.139,164.485c43.934,43.943,102.354,68.146,164.496,68.146c62.146,0,120.566-24.201,164.494-68.146
	c43.944-43.947,68.146-102.365,68.146-164.493c0-62.13-24.202-120.544-68.147-164.482C376.55,47.569,318.13,23.368,255.992,23.368z
	 M239.491,373.758c-8.566,0-15.535-6.969-15.535-15.535c0-8.565,6.969-15.534,15.535-15.534c8.566,0,15.535,6.969,15.535,15.534
	C255.026,366.789,248.057,373.758,239.491,373.758z M228.553,311.028v-7.74c0-53.89,36.432-72.725,37.983-73.5
	c10.602-5.336,40.828-24.987,40.828-44.718c0-26.418-20.163-43.488-51.367-43.488c-45.363,0-51.325,14.709-51.368,27.584h-23.362
	c0.033-17.033,6.166-29.498,18.745-38.103c12.456-8.522,31.292-12.843,55.986-12.843c21.285,0,40.417,6.629,53.872,18.668
	c13.45,12.034,20.856,29.146,20.856,48.182c0,15.479-8.141,30.708-24.194,45.264c-12.994,11.781-26.839,18.995-29.482,20.321
	l-0.181,0.095c-2.554,1.389-24.954,14.667-24.954,52.539v7.74H228.553z"/>
</svg>
