<?xml version="1.0" encoding="utf-8"?>
<!-- Generator: Adobe Illustrator 16.0.4, SVG Export Plug-In . SVG Version: 6.00 Build 0)  -->
<!DOCTYPE svg PUBLIC "-//W3C//DTD SVG 1.1//EN" "http://www.w3.org/Graphics/SVG/1.1/DTD/svg11.dtd">
<svg version="1.1" id="Layer_1" xmlns="http://www.w3.org/2000/svg" xmlns:xlink="http://www.w3.org/1999/xlink" x="0px" y="0px"
	 width="512px" height="512px" viewBox="-224 -224 512 512" enable-background="new -224 -224 512 512" xml:space="preserve">
<path d="M213.01-149.005c-48.354-48.357-112.645-74.991-181.017-74.991c-68.376,0-132.66,26.634-181.009,74.991
	C-197.369-100.656-224-36.372-224,32.004c0,68.38,26.63,132.655,74.983,181.001c48.349,48.361,112.633,74.991,181.013,74.991
	c68.383,0,132.667-26.63,181.013-74.991C261.362,164.651,288,100.368,288,31.996C288-36.38,261.362-100.66,213.01-149.005z
	 M196.302,196.298c-43.884,43.899-102.236,68.067-164.305,68.067c-62.064,0-120.417-24.168-164.305-68.067
	c-43.892-43.884-68.061-102.229-68.061-164.294S-176.2-88.41-132.309-132.297c43.888-43.896,102.237-68.068,164.301-68.068
	c62.065,0,120.417,24.173,164.309,68.068C240.193-88.414,264.37-30.064,264.37,31.996
	C264.37,94.061,240.193,152.406,196.302,196.298z M20.182-23.138h23.63v173.29h-23.63V-23.138z M31.997-55.5
	c-9.113,0-16.5-7.387-16.5-16.5s7.387-16.5,16.5-16.5s16.5,7.387,16.5,16.5S41.109-55.5,31.997-55.5z"/>
</svg>
