<?xml version="1.0" encoding="utf-8"?>
<!-- Generator: Adobe Illustrator 16.0.4, SVG Export Plug-In . SVG Version: 6.00 Build 0)  -->
<!DOCTYPE svg PUBLIC "-//W3C//DTD SVG 1.1//EN" "http://www.w3.org/Graphics/SVG/1.1/DTD/svg11.dtd">
<svg version="1.1" id="Layer_1" xmlns="http://www.w3.org/2000/svg" xmlns:xlink="http://www.w3.org/1999/xlink" x="0px" y="0px"
	 width="512px" height="512px" viewBox="0 0 512 512" enable-background="new 0 0 512 512" xml:space="preserve">
<path d="M256.001,29.298c-119.443,0-216.616,97.173-216.616,216.617c0,83.777,47.842,156.555,117.616,192.57l-43.263,43.262
	l16.708,16.707l49.674-49.669c23.631,8.861,49.192,13.746,75.881,13.746c26.691,0,52.254-4.885,75.877-13.754l49.678,49.677
	l16.707-16.707l-43.262-43.262c69.77-36.017,117.616-108.793,117.616-192.57C472.617,126.47,375.44,29.298,256.001,29.298z
	 M256.001,438.9c-106.412,0-192.985-86.569-192.985-192.985c0-106.412,86.573-192.986,192.985-192.986
	c106.416,0,192.984,86.574,192.984,192.986C448.986,352.33,362.417,438.9,256.001,438.9z M267.816,151.39h-23.63v94.523
	c0,4.477,2.527,8.569,6.531,10.569l63.016,31.508l10.569-21.14l-56.486-28.241V151.39z M133.4,37.69
	c-1.262-4.174-4.719-7.309-8.991-8.161L45.638,13.775c-3.862-0.773-7.877,0.438-10.669,3.229L3.461,48.512
	c-2.796,2.792-4.008,6.796-3.231,10.669l15.754,78.771c0.854,4.272,3.989,7.73,8.162,8.993c1.127,0.342,2.277,0.508,3.423,0.508
	c3.088,0,6.107-1.212,8.354-3.462l94.523-94.523C133.527,46.385,134.662,41.86,133.4,37.69z M34.827,111.671L24.642,60.752
	l22.565-22.564l50.919,10.185L34.827,111.671z M508.54,48.512l-31.509-31.508c-2.792-2.792-6.792-4.004-10.669-3.229l-78.77,15.754
	c-4.276,0.854-7.73,3.987-8.992,8.161c-1.262,4.17-0.131,8.695,2.954,11.776l94.523,94.523c2.245,2.25,5.27,3.462,8.354,3.462
	c1.146,0,2.3-0.166,3.423-0.508c4.17-1.263,7.309-4.721,8.162-8.993l15.754-78.771C512.548,55.308,511.333,51.304,508.54,48.512z
	 M477.179,111.671l-63.3-63.3l50.915-10.185l22.568,22.564L477.179,111.671z"/>
</svg>
