<?xml version="1.0" encoding="utf-8"?>
<!-- Generator: Adobe Illustrator 16.0.4, SVG Export Plug-In . SVG Version: 6.00 Build 0)  -->
<!DOCTYPE svg PUBLIC "-//W3C//DTD SVG 1.1//EN" "http://www.w3.org/Graphics/SVG/1.1/DTD/svg11.dtd">
<svg version="1.1" id="Layer_1" xmlns="http://www.w3.org/2000/svg" xmlns:xlink="http://www.w3.org/1999/xlink" x="0px" y="0px"
	 width="512px" height="512px" viewBox="0 0 512 512" enable-background="new 0 0 512 512" xml:space="preserve">
<path d="M256.003-0.004c-68.395,0-132.688,26.627-181.039,74.979C26.608,123.33-0.016,187.62,0.001,256.005
	c-0.004,68.388,26.619,132.673,74.967,181.021c48.348,48.354,112.641,74.979,181.027,74.979l0.025-11.773v11.773
	c141.146,0,255.98-114.841,255.98-256.006C512.002,114.837,397.16-0.004,256.003-0.004z M256.021,488.455h-0.025
	c-62.098,0-120.476-24.178-164.373-68.08c-43.902-43.9-68.076-102.275-68.072-164.373C23.54,193.91,47.71,135.531,91.614,91.629
	c43.906-43.904,102.284-68.083,164.389-68.083c128.171,0,232.449,104.277,232.449,232.452
	C488.451,384.178,384.182,488.455,256.021,488.455z M386.436,125.562c-34.84-34.85-81.164-54.036-130.439-54.036
	c-49.272,0-95.597,19.188-130.438,54.036c-34.845,34.841-54.032,81.165-54.032,130.437h23.55c0-42.98,16.737-83.392,47.133-113.786
	c30.395-30.398,70.805-47.137,113.787-47.137c42.98,0,83.396,16.738,113.791,47.137s47.129,70.81,47.129,113.786h23.549
	C440.465,206.73,421.276,160.41,386.436,125.562z M255.996,252.073c-3.036,0-5.903,0.613-8.637,1.525l-45.251-52.396l-17.821,15.395
	l46.062,53.338c-1.131,3.005-1.828,6.217-1.828,9.612c0,15.147,12.327,27.475,27.475,27.475c15.147,0,27.473-12.326,27.473-27.475
	C283.469,264.4,271.143,252.073,255.996,252.073z M255.996,283.473c-2.166,0-3.926-1.765-3.926-3.926s1.76-3.925,3.926-3.925
	c2.165,0,3.924,1.764,3.924,3.925S258.16,283.473,255.996,283.473z"/>
</svg>
