<?xml version="1.0" encoding="utf-8"?>
<!-- Generator: Adobe Illustrator 16.0.4, SVG Export Plug-In . SVG Version: 6.00 Build 0)  -->
<!DOCTYPE svg PUBLIC "-//W3C//DTD SVG 1.1//EN" "http://www.w3.org/Graphics/SVG/1.1/DTD/svg11.dtd">
<svg version="1.1" id="Layer_1" xmlns="http://www.w3.org/2000/svg" xmlns:xlink="http://www.w3.org/1999/xlink" x="0px" y="0px"
	 width="512px" height="512px" viewBox="0 0 512 512" enable-background="new 0 0 512 512" xml:space="preserve">
<path d="M437.008,74.981C388.654,26.627,324.369-0.003,256-0.003c-68.373,0-132.658,26.63-181.008,74.984
	C26.635,123.335,0,187.624,0,256c0,68.38,26.635,132.666,74.992,181.012c48.35,48.354,112.635,74.991,181.012,74.991
	c68.381,0,132.658-26.638,181.004-74.991C485.369,388.658,512,324.366,512,255.993C512,187.616,485.369,123.331,437.008,74.981z
	 M420.3,91.689c43.9,43.888,68.069,102.239,68.069,164.304c0,58.111-21.192,112.965-59.924,155.742L100.261,83.55
	C143.039,44.82,197.893,23.627,256,23.627C318.062,23.627,376.408,47.797,420.3,91.689z M91.7,420.305
	C47.804,376.42,23.631,318.066,23.631,256c0-58.111,21.196-112.961,59.923-155.742l328.185,328.186
	c-42.77,38.729-97.622,59.93-155.733,59.93C193.938,488.373,135.588,464.197,91.7,420.305z"/>
</svg>
