<?xml version="1.0" encoding="utf-8"?>
<!-- Generator: Adobe Illustrator 16.0.4, SVG Export Plug-In . SVG Version: 6.00 Build 0)  -->
<!DOCTYPE svg PUBLIC "-//W3C//DTD SVG 1.1//EN" "http://www.w3.org/Graphics/SVG/1.1/DTD/svg11.dtd">
<svg version="1.1" id="Layer_1" xmlns="http://www.w3.org/2000/svg" xmlns:xlink="http://www.w3.org/1999/xlink" x="0px" y="0px"
	 width="512px" height="512px" viewBox="0 0 512 512" enable-background="new 0 0 512 512" xml:space="preserve">
<path d="M396.492,211.237c-2.022-3.95-6.085-6.437-10.522-6.437h-96.508l29.415-191.188c0.854-5.521-2.284-10.881-7.508-12.85
	c-5.208-1.975-11.124-0.014-14.123,4.69L116.074,289.024c-2.323,3.639-2.479,8.254-0.404,12.038s6.046,6.139,10.359,6.139h94.861
	l-51.13,189.915c-1.485,5.508,1.181,11.285,6.331,13.738c1.627,0.776,3.361,1.146,5.069,1.146c3.698,0,7.304-1.736,9.584-4.898
	l204.8-283.566C398.146,219.938,398.508,215.191,396.492,211.237z M209.339,441.004l38.377-142.547
	c0.954-3.546,0.208-7.339-2.031-10.254c-2.233-2.923-5.7-4.631-9.377-4.631h-88.708L287.007,65.371l-22.991,149.45
	c-0.521,3.407,0.462,6.873,2.708,9.488c2.246,2.619,5.522,4.123,8.969,4.123h87.17L209.339,441.004z"/>
</svg>
