<?xml version="1.0" encoding="utf-8"?>
<!-- Generator: Adobe Illustrator 16.0.4, SVG Export Plug-In . SVG Version: 6.00 Build 0)  -->
<!DOCTYPE svg PUBLIC "-//W3C//DTD SVG 1.1//EN" "http://www.w3.org/Graphics/SVG/1.1/DTD/svg11.dtd">
<svg version="1.1" id="Layer_1" xmlns="http://www.w3.org/2000/svg" xmlns:xlink="http://www.w3.org/1999/xlink" x="0px" y="0px"
	 width="512px" height="512px" viewBox="0 0 512 512" enable-background="new 0 0 512 512" xml:space="preserve">
<path d="M385.969,161.477V55.139H409.6V0H102.4v55.14h31.509v106.338c0,26.577,39.357,55.461,104.519,98.461
	c-65.161,43-104.519,71.893-104.519,98.462v98.461H102.4V512h307.2v-55.139h-23.631V358.4c0-26.569-39.354-55.462-104.521-98.462
	C346.615,216.938,385.969,188.054,385.969,161.477z M126.031,23.631h259.938v7.877H126.031V23.631z M385.969,488.369H126.031v-7.877
	h259.938V488.369z M362.34,358.4v98.461h-204.8V358.4c0-16.416,59.296-56.047,102.4-84.331
	C303.039,302.354,362.34,341.984,362.34,358.4z M259.938,245.808c-43.103-28.277-102.399-67.919-102.399-84.331V55.139h204.799
	v106.338C362.34,177.889,303.039,217.531,259.938,245.808z"/>
</svg>
