<?xml version="1.0" encoding="utf-8"?>
<!-- Generator: Adobe Illustrator 16.0.4, SVG Export Plug-In . SVG Version: 6.00 Build 0)  -->
<!DOCTYPE svg PUBLIC "-//W3C//DTD SVG 1.1//EN" "http://www.w3.org/Graphics/SVG/1.1/DTD/svg11.dtd">
<svg version="1.1" id="Layer_1" xmlns="http://www.w3.org/2000/svg" xmlns:xlink="http://www.w3.org/1999/xlink" x="0px" y="0px"
	 width="512px" height="512px" viewBox="0 0 512 512" enable-background="new 0 0 512 512" xml:space="preserve">
<path d="M506.934,249.087c-2.579-3.519-47.269-63.097-129.96-97.538l66.471-66.472l-16.523-16.523l-74.079,74.078
	c-28.53-9.229-60.826-15.178-96.842-15.178c-159.895,0-247.291,116.669-250.932,121.633L0,255.999l5.066,6.909
	c2.579,3.521,47.27,63.102,129.956,97.541l-66.471,66.473l16.525,16.523l74.078-74.078c28.53,9.229,60.83,15.178,96.843,15.178
	c159.896,0,247.291-116.67,250.935-121.637l5.067-6.909L506.934,249.087z M29.58,255.999
	c21.111-24.443,100.411-105.173,226.419-105.173c28.385,0,54.382,4.123,77.897,10.75l-40.118,40.117
	c-10.726-7.486-23.735-11.914-37.779-11.914c-36.516,0-66.221,29.706-66.221,66.22c0,14.045,4.429,27.055,11.914,37.782
	l-48.425,48.424C86.705,316.795,44.195,272.92,29.58,255.999z M298.847,255.999c0,23.624-19.226,42.85-42.848,42.85
	c-7.574,0-14.685-1.994-20.865-5.455l58.258-58.259C296.854,241.316,298.847,248.426,298.847,255.999z M213.15,255.999
	c0-23.627,19.222-42.849,42.849-42.849c7.578,0,14.683,1.994,20.86,5.459l-58.25,58.251
	C215.144,270.683,213.15,263.578,213.15,255.999z M255.999,361.172c-28.39,0-54.382-4.123-77.898-10.75l40.117-40.115
	c10.722,7.484,23.736,11.914,37.781,11.914c36.511,0,66.22-29.709,66.22-66.221c0-14.044-4.428-27.058-11.914-37.78l48.425-48.426
	c66.562,25.414,109.076,69.286,123.69,86.206C461.301,280.443,382.002,361.172,255.999,361.172z"/>
</svg>
