<?xml version="1.0" encoding="utf-8"?>
<!-- Generator: Adobe Illustrator 16.0.4, SVG Export Plug-In . SVG Version: 6.00 Build 0)  -->
<!DOCTYPE svg PUBLIC "-//W3C//DTD SVG 1.1//EN" "http://www.w3.org/Graphics/SVG/1.1/DTD/svg11.dtd">
<svg version="1.1" id="Layer_1" xmlns="http://www.w3.org/2000/svg" xmlns:xlink="http://www.w3.org/1999/xlink" x="0px" y="0px"
	 width="512px" height="512px" viewBox="0 0 512 512" enable-background="new 0 0 512 512" xml:space="preserve">
<path d="M425.354,70.892V39.385h-70.892v31.507H157.539V39.385H86.647v31.507H0v401.723h512V70.892H425.354z M378.093,63.016h23.63
	V102.4h-23.63V63.016z M110.277,63.016h23.632V102.4h-23.632V63.016z M86.646,94.523v31.508h70.893V94.523h196.923v31.508h70.892
	V94.523h63.017v39.385H23.631V94.523H86.646z M23.631,448.984V157.537h464.738v291.447H23.631z M70.893,283.568h102.4v-102.4h-102.4
	V283.568z M94.523,204.799h55.14v55.14h-55.14V204.799z M70.893,425.353h102.4v-102.4h-102.4V425.353z M94.523,346.584h55.14v55.139
	h-55.14V346.584z M338.708,283.568h102.398v-102.4H338.708V283.568z M362.339,204.799h55.138v55.14h-55.138V204.799z
	 M338.708,425.353h102.398v-102.4H338.708V425.353z M362.339,346.584h55.138v55.139h-55.138V346.584z M204.8,283.568h102.4v-102.4
	H204.8V283.568z M228.431,204.799h55.139v55.14h-55.139V204.799z M204.8,425.353h102.4v-102.4H204.8V425.353z M228.431,346.584
	h55.139v55.139h-55.139V346.584z"/>
</svg>
