<?xml version="1.0" encoding="utf-8"?>
<!-- Generator: Adobe Illustrator 16.0.4, SVG Export Plug-In . SVG Version: 6.00 Build 0)  -->
<!DOCTYPE svg PUBLIC "-//W3C//DTD SVG 1.1//EN" "http://www.w3.org/Graphics/SVG/1.1/DTD/svg11.dtd">
<svg version="1.1" id="Layer_1" xmlns="http://www.w3.org/2000/svg" xmlns:xlink="http://www.w3.org/1999/xlink" x="0px" y="0px"
	 width="512px" height="512px" viewBox="0 0 512 512" enable-background="new 0 0 512 512" xml:space="preserve">
<path d="M437.01,74.995C388.656,26.638,324.365,0.004,255.993,0.004c-68.375,0-132.66,26.635-181.01,74.991
	C26.631,123.344,0,187.628,0,256.004c0,68.381,26.63,132.655,74.982,181.001c48.35,48.36,112.634,74.991,181.014,74.991
	c68.383,0,132.667-26.631,181.013-74.991C485.362,388.652,512,324.368,512,255.996C512,187.62,485.362,123.34,437.01,74.995z
	 M420.302,420.297c-43.884,43.9-102.237,68.068-164.305,68.068c-62.064,0-120.417-24.168-164.306-68.068
	C47.8,376.414,23.631,318.068,23.631,256.004c0-62.063,24.169-120.414,68.06-164.302c43.889-43.896,102.237-68.067,164.302-68.067
	s120.417,24.172,164.309,68.067c43.892,43.884,68.069,102.234,68.069,164.294C488.37,318.061,464.193,376.406,420.302,420.297z
	 M244.182,137.848h23.63v173.29h-23.63V137.848z M244.182,342.645h23.63v31.508h-23.63V342.645z"/>
</svg>
