<?xml version="1.0" encoding="utf-8"?>
<!-- Generator: Adobe Illustrator 16.0.4, SVG Export Plug-In . SVG Version: 6.00 Build 0)  -->
<!DOCTYPE svg PUBLIC "-//W3C//DTD SVG 1.1//EN" "http://www.w3.org/Graphics/SVG/1.1/DTD/svg11.dtd">
<svg version="1.1" id="Layer_1" xmlns="http://www.w3.org/2000/svg" xmlns:xlink="http://www.w3.org/1999/xlink" x="0px" y="0px"
	 width="512px" height="512px" viewBox="0 0 512 512" enable-background="new 0 0 512 512" xml:space="preserve">
<path d="M506.934,249.088c-3.645-4.964-91.038-121.633-250.935-121.633c-159.895,0-247.291,116.669-250.932,121.633L0,256
	l5.066,6.908c3.641,4.968,91.037,121.637,250.932,121.637c159.896,0,247.291-116.669,250.935-121.637L512,256L506.934,249.088z
	 M255.999,361.173C129.991,361.173,50.692,280.444,29.58,256c21.111-24.443,100.411-105.173,226.419-105.173
	c126.003,0,205.302,80.729,226.421,105.173C461.301,280.444,382.002,361.173,255.999,361.173z M255.999,189.78
	c-36.516,0-66.221,29.706-66.221,66.22c0,36.512,29.706,66.222,66.221,66.222c36.511,0,66.22-29.71,66.22-66.222
	C322.219,219.485,292.51,189.78,255.999,189.78z M255.999,298.849c-23.627,0-42.85-19.227-42.85-42.85
	c0-23.627,19.222-42.849,42.849-42.849c23.623,0,42.848,19.222,42.848,42.849C298.847,279.623,279.621,298.849,255.999,298.849z"/>
</svg>
