<?xml version="1.0" encoding="utf-8"?>
<!-- Generator: Adobe Illustrator 16.0.4, SVG Export Plug-In . SVG Version: 6.00 Build 0)  -->
<!DOCTYPE svg PUBLIC "-//W3C//DTD SVG 1.1//EN" "http://www.w3.org/Graphics/SVG/1.1/DTD/svg11.dtd">
<svg version="1.1" id="Layer_1" xmlns="http://www.w3.org/2000/svg" xmlns:xlink="http://www.w3.org/1999/xlink" x="0px" y="0px"
	 width="512px" height="512px" viewBox="0 0 512 512" enable-background="new 0 0 512 512" xml:space="preserve">
<path d="M448.615,260.769c-5.924-88.286-82.746-158.37-176.339-158.37c-82.607,0-156.146,53.535-175.347,126.031h-3.723
	C41.812,228.431,0,269.068,0,319.015c0,50.793,39.789,90.584,90.585,90.584h346.584c41.962,0,74.831-32.869,74.831-74.83
	C512,296.707,484.962,266.131,448.615,260.769z M437.169,385.969H90.585c-37.542,0-66.954-29.406-66.954-66.953
	c0-36.916,31.211-66.954,69.577-66.954h22.873l1.856-9.562c12.894-66.399,79.247-116.469,154.339-116.469
	c84.407,0,153.076,65.369,153.076,145.723v11.814h11.815c28.708,0,51.2,22.492,51.2,51.201
	C488.369,363.476,465.877,385.969,437.169,385.969z"/>
</svg>
