<?xml version="1.0" encoding="utf-8"?>
<!-- Generator: Adobe Illustrator 16.0.4, SVG Export Plug-In . SVG Version: 6.00 Build 0)  -->
<!DOCTYPE svg PUBLIC "-//W3C//DTD SVG 1.1//EN" "http://www.w3.org/Graphics/SVG/1.1/DTD/svg11.dtd">
<svg version="1.1" id="Layer_1" xmlns="http://www.w3.org/2000/svg" xmlns:xlink="http://www.w3.org/1999/xlink" x="0px" y="0px"
	 width="512px" height="512px" viewBox="0 0 512 512" enable-background="new 0 0 512 512" xml:space="preserve">
<path d="M0,0v512h512V0H0z M488.369,488.369H23.631V23.631h464.738V488.369z M133.908,224.492h23.631v-66.954h66.953v-23.63h-66.953
	V66.954h-23.631v66.954H66.954v23.63h66.954V224.492z M287.508,133.908h157.538v23.63H287.508V133.908z M200.385,294.908
	l-54.662,54.661l-54.661-54.661l-16.708,16.707l54.662,54.662l-54.662,54.661l16.708,16.708l54.661-54.662l54.662,54.662
	l16.707-16.708l-54.661-54.661l54.661-54.662L200.385,294.908z M287.508,330.83h157.538v23.631H287.508V330.83z M287.508,378.092
	h157.538v23.632H287.508V378.092z"/>
</svg>
