<?xml version="1.0" encoding="utf-8"?>
<!-- Generator: Adobe Illustrator 16.0.4, SVG Export Plug-In . SVG Version: 6.00 Build 0)  -->
<!DOCTYPE svg PUBLIC "-//W3C//DTD SVG 1.1//EN" "http://www.w3.org/Graphics/SVG/1.1/DTD/svg11.dtd">
<svg version="1.1" id="Layer_1" xmlns="http://www.w3.org/2000/svg" xmlns:xlink="http://www.w3.org/1999/xlink" x="0px" y="0px"
	 width="512px" height="512px" viewBox="0 0 512 512" enable-background="new 0 0 512 512" xml:space="preserve">
<path d="M382.031,30.585c-56.146,0-104.562,29.888-126.03,72.643c-21.47-42.755-69.881-72.643-126.031-72.643
	C66.081,30.585,0,82.146,0,168.43c0,162.471,239.857,303.615,250.064,309.538l5.936,3.446l5.931-3.446
	c2.538-1.469,62.823-36.698,124.085-92.029C469.607,310.43,512,237.25,512,168.43C512,82.146,445.915,30.585,382.031,30.585z
	 M255.996,453.946C219.143,431.193,23.631,304.084,23.631,168.43c0-56.143,39.777-114.215,106.338-114.215
	c54.931,0,114.215,37.646,114.215,98.461h23.631c0-60.814,59.284-98.461,114.216-98.461c66.562,0,106.339,58.073,106.339,114.215
	C488.369,303.969,292.854,431.177,255.996,453.946z"/>
</svg>
