<?xml version="1.0" encoding="utf-8"?>
<!-- Generator: Adobe Illustrator 16.0.4, SVG Export Plug-In . SVG Version: 6.00 Build 0)  -->
<!DOCTYPE svg PUBLIC "-//W3C//DTD SVG 1.1//EN" "http://www.w3.org/Graphics/SVG/1.1/DTD/svg11.dtd">
<svg version="1.1" id="Layer_1" xmlns="http://www.w3.org/2000/svg" xmlns:xlink="http://www.w3.org/1999/xlink" x="0px" y="0px"
	 width="512px" height="512px" viewBox="0 0 512 512" enable-background="new 0 0 512 512" xml:space="preserve">
<path d="M410.554,0h-8.831H110.277H0v512h47.262h417.477H512V101.446L410.554,0z M378.093,23.631v126.03H133.908V23.631H378.093z
	 M70.893,488.369V259.938h370.215v228.431H70.893z M488.369,488.369h-23.632V236.308H47.261V488.37H23.63V23.632h86.646v149.661
	h291.446V24.585l86.646,86.646L488.369,488.369L488.369,488.369z M114.215,299.323h283.57v23.631h-283.57V299.323z M114.215,362.338
	h283.57v23.632h-283.57V362.338z M114.215,425.354h283.57v23.631h-283.57V425.354z M354.462,31.508h-63.017v110.276h63.017V31.508z
	 M330.831,118.154h-15.754V55.139h15.754V118.154z"/>
</svg>
