<?xml version="1.0" encoding="utf-8"?>
<!-- Generator: Adobe Illustrator 16.0.4, SVG Export Plug-In . SVG Version: 6.00 Build 0)  -->
<!DOCTYPE svg PUBLIC "-//W3C//DTD SVG 1.1//EN" "http://www.w3.org/Graphics/SVG/1.1/DTD/svg11.dtd">
<svg version="1.1" id="Layer_1" xmlns="http://www.w3.org/2000/svg" xmlns:xlink="http://www.w3.org/1999/xlink" x="0px" y="0px"
	 width="512px" height="512px" viewBox="0 0 512 512" enable-background="new 0 0 512 512" xml:space="preserve">
<path d="M512,315.077V196.923h-74.192l-10.754-32.254l50.454-50.454l-79.723-79.723l-50.454,50.45l-32.254-10.75V0H196.923v74.192
	l-32.253,10.75l-50.454-50.45l-79.723,79.723l50.449,50.454l-10.75,32.254H0v118.154h74.191l10.75,32.253l-50.449,50.454
	l79.723,79.724l50.454-50.453l32.253,10.754V512h118.155v-74.191l32.254-10.754l50.454,50.453l79.723-79.724l-50.454-50.454
	l10.754-32.253H512z M444.093,397.784l-46.308,46.308l-44.069-44.067l-62.271,20.754v67.592h-70.892v-67.592l-62.269-20.754
	l-44.069,44.067l-46.308-46.308l44.072-44.069l-20.758-62.269H23.631v-70.892h67.592l20.758-62.271l-44.072-44.069l46.308-46.308
	l44.069,44.073l62.269-20.758V23.63h70.893v67.593l62.271,20.758l44.069-44.073l46.308,46.308l-44.069,44.069l20.754,62.271h67.593
	v70.893h-67.593l-20.754,62.269L444.093,397.784z M256,196.923c-32.577,0-59.077,26.5-59.077,59.077s26.5,59.077,59.077,59.077
	s59.077-26.5,59.077-59.077S288.577,196.923,256,196.923z M256,291.446c-19.546,0-35.446-15.9-35.446-35.446
	s15.9-35.445,35.446-35.445s35.445,15.899,35.445,35.445S275.546,291.446,256,291.446z"/>
</svg>
