<?xml version="1.0" encoding="utf-8"?>
<!-- Generator: Adobe Illustrator 16.0.4, SVG Export Plug-In . SVG Version: 6.00 Build 0)  -->
<!DOCTYPE svg PUBLIC "-//W3C//DTD SVG 1.1//EN" "http://www.w3.org/Graphics/SVG/1.1/DTD/svg11.dtd">
<svg version="1.1" id="Layer_1" xmlns="http://www.w3.org/2000/svg" xmlns:xlink="http://www.w3.org/1999/xlink" x="0px" y="0px"
	 width="512px" height="512px" viewBox="0 0 512 512" enable-background="new 0 0 512 512" xml:space="preserve">
<path d="M421.415,208.738h-3.938v-35.446c0-1.377-1.846-137.846-161.477-137.846S94.523,171.914,94.523,173.291v35.446h-3.938
	C40.635,208.738,0,249.372,0,299.322c0,49.947,40.635,90.584,90.585,90.584h27.568V244.185v-35.446v-35.446
	c0-4.665,1.565-114.215,137.847-114.215c135.631,0,137.822,109.584,137.846,114.215v35.446v11.815v157.538v11.814v19.57
	l-94.522,37.807v-25.869h-86.646v55.141h77.108l127.69-51.078v-35.568h3.938c49.945,0,90.585-40.639,90.585-90.584
	C512,249.372,471.361,208.738,421.415,208.738z M94.523,366.277h-3.938c-36.919,0-66.954-30.039-66.954-66.955
	s30.035-66.954,66.954-66.954h3.938v11.815V366.277z M275.692,452.922h-39.384v-7.877h39.385L275.692,452.922L275.692,452.922z
	 M421.415,366.277h-3.938V232.368h3.938c36.916,0,66.954,30.038,66.954,66.954S458.331,366.277,421.415,366.277z"/>
</svg>
