<?xml version="1.0" encoding="utf-8"?>
<!-- Generator: Adobe Illustrator 16.0.4, SVG Export Plug-In . SVG Version: 6.00 Build 0)  -->
<!DOCTYPE svg PUBLIC "-//W3C//DTD SVG 1.1//EN" "http://www.w3.org/Graphics/SVG/1.1/DTD/svg11.dtd">
<svg version="1.1" id="Layer_1" xmlns="http://www.w3.org/2000/svg" xmlns:xlink="http://www.w3.org/1999/xlink" x="0px" y="0px"
	 width="512px" height="512px" viewBox="0 0 512 512" enable-background="new 0 0 512 512" xml:space="preserve">
<path d="M309.772,0C198.263,0,107.542,90.72,107.542,202.229c0,51.482,19.37,98.505,51.161,134.245l-82.883,82.885L16.822,360.36
	L0,377.18l58.999,58.999L0,495.178L16.822,512l58.999-58.999L134.82,512l16.82-16.821l-58.999-58.999l82.885-82.884
	c35.736,31.792,82.759,51.162,134.246,51.162C421.28,404.458,512,313.736,512,202.229C512,90.721,421.28,0,309.772,0z
	 M309.772,380.666c-98.394,0-178.438-80.049-178.438-178.438c0-98.392,80.045-178.437,178.438-178.437
	c98.388,0,178.437,80.045,178.437,178.437C488.208,300.617,408.159,380.666,309.772,380.666z"/>
</svg>
