<?xml version="1.0" encoding="utf-8"?>
<!-- Generator: Adobe Illustrator 16.0.4, SVG Export Plug-In . SVG Version: 6.00 Build 0)  -->
<!DOCTYPE svg PUBLIC "-//W3C//DTD SVG 1.1//EN" "http://www.w3.org/Graphics/SVG/1.1/DTD/svg11.dtd">
<svg version="1.1" id="Layer_1" xmlns="http://www.w3.org/2000/svg" xmlns:xlink="http://www.w3.org/1999/xlink" x="0px" y="0px"
	 width="512px" height="512px" viewBox="0 0 512 512" enable-background="new 0 0 512 512" xml:space="preserve">
<path d="M256,116.69c-32.173,0-58.346,26.172-58.346,58.345c-0.001,32.173,26.172,58.345,58.346,58.345
	c32.173,0,58.344-26.171,58.344-58.345C314.344,142.862,288.172,116.69,256,116.69z M256,210.042
	c-19.305,0-35.007-15.703-35.007-35.007s15.702-35.007,35.007-35.007c19.303,0,35.005,15.703,35.005,35.007
	S275.303,210.042,256,210.042z M256,0C159.483,0,80.965,81.086,80.965,180.751c0,123.722,159.089,312.796,165.862,320.78
	L255.695,512l8.904-10.438c6.821-7.992,166.981-197.09,166.436-320.859C430.601,81.064,352.085,0,256,0z M255.752,475.603
	c-33.662-41.891-151.45-195.569-151.45-294.853c0-86.799,68.05-157.413,151.697-157.413c83.27,0,151.325,70.638,151.696,157.467
	C408.128,280.01,289.585,433.758,255.752,475.603z"/>
</svg>
