<?xml version="1.0" encoding="utf-8"?>
<!-- Generator: Adobe Illustrator 16.0.4, SVG Export Plug-In . SVG Version: 6.00 Build 0)  -->
<!DOCTYPE svg PUBLIC "-//W3C//DTD SVG 1.1//EN" "http://www.w3.org/Graphics/SVG/1.1/DTD/svg11.dtd">
<svg version="1.1" id="Layer_1" xmlns="http://www.w3.org/2000/svg" xmlns:xlink="http://www.w3.org/1999/xlink" x="0px" y="0px"
	 width="512px" height="512px" viewBox="0 0 512 512" enable-background="new 0 0 512 512" xml:space="preserve">
<path d="M297.983,156.774c0-23.15-18.837-41.983-41.982-41.983c-23.15,0-41.983,18.833-41.983,41.983
	c0,23.149,18.833,41.983,41.983,41.983C279.146,198.758,297.983,179.924,297.983,156.774z M236.917,156.774
	c0-10.522,8.562-19.083,19.083-19.083c10.524,0,19.083,8.561,19.083,19.083c0,10.521-8.559,19.083-19.083,19.083
	C245.478,175.857,236.917,167.296,236.917,156.774z M255.81,388.607l8.89-10.854c4.175-5.099,102.326-125.883,101.984-205.593
	C366.415,106.852,316.761,53.717,256,53.717c-61.029,0-110.685,53.153-110.685,118.492c0,79.662,97.489,200.417,101.643,205.516
	L255.81,388.607z M256,76.617c48.186,0,87.566,42.904,87.783,95.64c0.254,58.439-63.938,148.157-87.917,179.622
	c-23.858-31.486-87.649-121.152-87.649-179.671C168.217,119.498,207.595,76.617,256,76.617z M415.436,282.717h-75.469v22.9h61.931
	l71.369,129.766H38.733l71.369-129.766h61.932v-22.9h-75.47L0,458.283h512L415.436,282.717z"/>
</svg>
