<?xml version="1.0" encoding="utf-8"?>
<!-- Generator: Adobe Illustrator 16.0.4, SVG Export Plug-In . SVG Version: 6.00 Build 0)  -->
<!DOCTYPE svg PUBLIC "-//W3C//DTD SVG 1.1//EN" "http://www.w3.org/Graphics/SVG/1.1/DTD/svg11.dtd">
<svg version="1.1" id="Layer_1" xmlns="http://www.w3.org/2000/svg" xmlns:xlink="http://www.w3.org/1999/xlink" x="0px" y="0px"
	 width="512px" height="512px" viewBox="0 0 512 512" enable-background="new 0 0 512 512" xml:space="preserve">
<path d="M404.837,148.837c-55.062,0-100.511,41.757-106.457,95.257H0v23.814h35.721v67.473h23.814v-67.473h39.688v35.721h23.814
	v-35.721H298.38c5.946,53.504,51.396,95.254,106.457,95.254C463.931,363.162,512,315.094,512,256
	C512,196.911,463.931,148.837,404.837,148.837z M404.837,339.349c-45.961,0-83.35-37.389-83.35-83.349
	c0-45.958,37.389-83.349,83.35-83.349c45.962,0,83.35,37.391,83.35,83.349C488.187,301.961,450.799,339.349,404.837,339.349z"/>
</svg>
