<?xml version="1.0" encoding="utf-8"?>
<!-- Generator: Adobe Illustrator 16.0.4, SVG Export Plug-In . SVG Version: 6.00 Build 0)  -->
<!DOCTYPE svg PUBLIC "-//W3C//DTD SVG 1.1//EN" "http://www.w3.org/Graphics/SVG/1.1/DTD/svg11.dtd">
<svg version="1.1" id="Layer_1" xmlns="http://www.w3.org/2000/svg" xmlns:xlink="http://www.w3.org/1999/xlink" x="0px" y="0px"
	 width="512px" height="512px" viewBox="0 0 512 512" enable-background="new 0 0 512 512" xml:space="preserve">
<path d="M97.529,156.049h140.439v23.407H97.529V156.049z M347.208,283.842l-23.406,23.414l-29.609-29.609
	c25.646-29.471,41.305-67.85,41.305-109.894c0-92.495-75.249-167.748-167.748-167.748C75.253,0.004,0,75.257,0,167.752
	c0,92.5,75.253,167.75,167.749,167.75c42.044,0,80.423-15.658,109.896-41.307l29.607,29.609l-23.397,23.398l164.784,164.793
	L512,448.633L347.208,283.842z M23.407,167.752c0-79.592,64.75-144.342,144.342-144.342s144.342,64.75,144.342,144.342
	s-64.75,144.341-144.342,144.341C88.156,312.094,23.407,247.345,23.407,167.752z M316.952,347.205l30.256-30.266l131.694,131.693
	l-30.266,30.266L316.952,347.205z"/>
</svg>
