<?xml version="1.0" encoding="utf-8"?>
<!-- Generator: Adobe Illustrator 16.0.4, SVG Export Plug-In . SVG Version: 6.00 Build 0)  -->
<!DOCTYPE svg PUBLIC "-//W3C//DTD SVG 1.1//EN" "http://www.w3.org/Graphics/SVG/1.1/DTD/svg11.dtd">
<svg version="1.1" id="Layer_1" xmlns="http://www.w3.org/2000/svg" xmlns:xlink="http://www.w3.org/1999/xlink" x="0px" y="0px"
	 width="512px" height="512px" viewBox="0 0 512 512" enable-background="new 0 0 512 512" xml:space="preserve">
<path d="M393.846,252.062V137.846C393.846,61.838,332.008,0,256,0S118.154,61.838,118.154,137.846v114.216H55.139V512h401.723
	V252.062H393.846z M141.785,137.846c0-62.978,51.237-114.216,114.215-114.216c62.977,0,114.216,51.238,114.216,114.216v114.216
	H141.785V137.846z M433.23,488.369H78.77V275.692h354.46V488.369z M244.185,415.8v21.369h23.631V415.8
	c18.153-5.169,31.509-21.86,31.509-41.646c0-23.885-19.438-43.324-43.323-43.324c-23.89,0-43.323,19.439-43.323,43.324
	C212.677,393.938,226.027,410.639,244.185,415.8z M256,354.461c10.86,0,19.691,8.831,19.691,19.693
	c0,10.861-8.831,19.691-19.691,19.691c-10.857,0-19.692-8.83-19.692-19.691C236.308,363.292,245.143,354.461,256,354.461z"/>
</svg>
