<?xml version="1.0" encoding="utf-8"?>
<!-- Generator: Adobe Illustrator 16.0.4, SVG Export Plug-In . SVG Version: 6.00 Build 0)  -->
<!DOCTYPE svg PUBLIC "-//W3C//DTD SVG 1.1//EN" "http://www.w3.org/Graphics/SVG/1.1/DTD/svg11.dtd">
<svg version="1.1" id="Layer_1" xmlns="http://www.w3.org/2000/svg" xmlns:xlink="http://www.w3.org/1999/xlink" x="0px" y="0px"
	 width="512px" height="512px" viewBox="0 0 512 512" enable-background="new 0 0 512 512" xml:space="preserve">
<path d="M287.508,63.016h70.893v23.63h-70.893V63.016z M153.6,126.031h204.8v23.63H153.6V126.031z M153.6,189.046h204.8v23.632
	H153.6V189.046z M433.23,167.854V0H78.77v167.854L0,200.881V512h512V200.881L433.23,167.854z M474.607,210.827l-41.377,25.939
	v-43.289L474.607,210.827z M409.6,23.631v227.946L256,347.869L102.4,251.577V23.631H409.6z M78.77,236.766l-41.377-25.938
	l41.377-17.351V236.766z M23.631,488.369V230.092L256,375.762l232.369-145.671v258.277H23.631L23.631,488.369z"/>
</svg>
