<?xml version="1.0" encoding="utf-8"?>
<!-- Generator: Adobe Illustrator 16.0.4, SVG Export Plug-In . SVG Version: 6.00 Build 0)  -->
<!DOCTYPE svg PUBLIC "-//W3C//DTD SVG 1.1//EN" "http://www.w3.org/Graphics/SVG/1.1/DTD/svg11.dtd">
<svg version="1.1" id="Layer_1" xmlns="http://www.w3.org/2000/svg" xmlns:xlink="http://www.w3.org/1999/xlink" x="0px" y="0px"
	 width="512px" height="512px" viewBox="0 0 512 512" enable-background="new 0 0 512 512" xml:space="preserve">
<path d="M256.001,0C158.273,0,78.77,79.504,78.77,177.23c0,59.365,30.02,115.547,78.77,148.229v21.123v23.631v47.263h15.754v47.262
	h15.754V512h133.908v-47.262h15.754v-47.262h15.754v-47.263l0.006-45.592c49.447-33.021,78.762-87.634,78.762-147.392
	C433.231,79.504,353.723,0,256.001,0z M299.323,488.369h-86.645v-23.631h86.645V488.369z M315.078,441.107H196.924v-23.631h118.155
	V441.107z M330.832,393.846H181.17v-23.632h149.663V393.846z M234.67,346.584l-16.52-110.106l15.327,11.492l22.523-22.523
	l22.523,22.523l15.322-11.493l-16.514,110.107H234.67z M336.455,308.107l-5.615,3.462l-0.008,35.015h-29.602l21.592-143.969
	l-18.346-2.754l-0.432-0.577l-0.568,0.427l-4.021-0.604l-0.615,4.081l-18.102,13.581l-24.738-24.738l-24.738,24.738l-18.104-13.577
	l-0.611-4.085l-4.027,0.604l-0.568-0.427l-0.436,0.577l-18.339,2.754l21.596,143.969H181.17v-34.169l-5.62-3.461
	C130.431,281.177,102.4,230.7,102.4,177.23c0-84.696,68.904-153.601,153.601-153.601c84.691,0,153.599,68.903,153.599,153.601
	C409.6,230.958,382.254,279.885,336.455,308.107z"/>
</svg>
