<?xml version="1.0" encoding="utf-8"?>
<!-- Generator: Adobe Illustrator 16.0.4, SVG Export Plug-In . SVG Version: 6.00 Build 0)  -->
<!DOCTYPE svg PUBLIC "-//W3C//DTD SVG 1.1//EN" "http://www.w3.org/Graphics/SVG/1.1/DTD/svg11.dtd">
<svg version="1.1" id="Layer_1" xmlns="http://www.w3.org/2000/svg" xmlns:xlink="http://www.w3.org/1999/xlink" x="0px" y="0px"
	 width="512px" height="512px" viewBox="0 0 512 512" enable-background="new 0 0 512 512" xml:space="preserve">
<path d="M358.4,0v23.631h113.263L334.2,161.092c-35.5-31.576-82.204-50.814-133.34-50.814C90.108,110.277,0,200.385,0,311.139
	S90.108,512,200.861,512c110.755,0,200.861-90.106,200.861-200.86c0-51.14-19.238-97.844-50.813-133.34L488.369,40.339V153.6H512V0
	H358.4z M200.861,488.369c-97.727,0-177.229-79.508-177.229-177.229c0-97.729,79.504-177.231,177.229-177.231
	c97.725,0,177.231,79.503,177.231,177.231C378.093,408.861,298.585,488.369,200.861,488.369z"/>
</svg>
