<?xml version="1.0" encoding="utf-8"?>
<!-- Generator: Adobe Illustrator 16.0.4, SVG Export Plug-In . SVG Version: 6.00 Build 0)  -->
<!DOCTYPE svg PUBLIC "-//W3C//DTD SVG 1.1//EN" "http://www.w3.org/Graphics/SVG/1.1/DTD/svg11.dtd">
<svg version="1.1" id="Layer_1" xmlns="http://www.w3.org/2000/svg" xmlns:xlink="http://www.w3.org/1999/xlink" x="0px" y="0px"
	 width="512px" height="512px" viewBox="0 0 512 512" enable-background="new 0 0 512 512" xml:space="preserve">
<path d="M108,45.211V0H84v45.211C56.645,50.785,36,75.023,36,104c0,28.978,20.645,53.215,48,58.789V512h24V162.789
	c27.354-5.574,48-29.812,48-58.789C156,75.023,135.355,50.785,108,45.211z M96,140c-19.853,0-36-16.147-36-36
	c0-19.852,16.147-36,36-36c19.852,0,36,16.148,36,36C132,123.852,115.852,140,96,140z M476,408c0-28.977-20.648-53.219-48-58.789V0
	h-24v349.211c-27.353,5.57-48,29.812-48,58.789c0,28.978,20.647,53.22,48,58.789V512h24v-45.211
	C455.352,461.219,476,436.977,476,408z M416,444c-19.853,0-36-16.147-36-36c0-19.852,16.147-36,36-36c19.852,0,36,16.148,36,36
	C452,427.852,435.852,444,416,444z M268,197.211V0h-24v197.211c-27.355,5.574-48,29.812-48,58.789c0,28.978,20.645,53.22,48,58.789
	V512h24V314.789c27.352-5.569,48-29.812,48-58.789C316,227.023,295.352,202.785,268,197.211z M256,292c-19.853,0-36-16.147-36-36
	c0-19.852,16.147-36,36-36c19.852,0,36,16.148,36,36C292,275.852,275.852,292,256,292z"/>
</svg>
