<?xml version="1.0" encoding="utf-8"?>
<!-- Generator: Adobe Illustrator 16.0.4, SVG Export Plug-In . SVG Version: 6.00 Build 0)  -->
<!DOCTYPE svg PUBLIC "-//W3C//DTD SVG 1.1//EN" "http://www.w3.org/Graphics/SVG/1.1/DTD/svg11.dtd">
<svg version="1.1" id="Layer_1" xmlns="http://www.w3.org/2000/svg" xmlns:xlink="http://www.w3.org/1999/xlink" x="0px" y="0px"
	 width="512px" height="512px" viewBox="0 0 512 512" enable-background="new 0 0 512 512" xml:space="preserve">
<path d="M494.14,383.365c-7.805-5.447-91.562-61.141-101.575-67.264c-10.074-6.139-25.204-5.088-39.665,2.543
	c-8.123,4.262-32.854,18.328-44.685,25.078c-10.447-7.348-35.484-26.467-74.522-65.504c-39.042-39.027-58.146-64.072-65.466-74.5
	c6.75-11.83,20.817-36.559,25.061-44.656c7.896-14.951,8.808-29.866,2.444-39.892c-6.021-9.509-61.386-93.46-67.229-101.552
	c-5.25-7.265-14.629-11.602-25.087-11.602c-8.366,0-16.775,2.777-24.328,8.048c-7.25,5.068-24.75,18.872-40.848,34.322
	C9.174,76.299,5.744,89.27,6.014,97.764c2.732,85.043,85.408,184.99,154.28,253.863c68.85,68.877,168.772,151.572,254.205,154.338
	l0.682,0.018c29.646-0.01,82.138-72.365,82.648-73.094C511.453,413.437,506.524,392.039,494.14,383.365z M478.329,419.234
	c-16.089,22.979-52.68,61.984-63.242,62.939l0.093,11.902l-0.263-11.918c-77.294-2.504-171.971-81.52-237.786-147.363
	C111.293,268.961,32.292,174.265,29.8,96.839c0.934-10.587,39.941-47.188,62.917-63.25c4.46-3.111,8.277-3.764,10.699-3.764
	c3.286,0,5.358,1.202,5.786,1.732c5.456,7.557,60.711,91.341,66.427,100.365c0.965,1.521,0.961,7.777-3.41,16.048
	c-5.348,10.202-28.071,49.896-28.3,50.299l-3.426,5.982l3.487,5.949c0.694,1.187,17.612,29.606,72.879,84.853
	c55.278,55.279,83.672,72.223,84.854,72.91l5.951,3.504l5.99-3.434c0.399-0.232,40.098-22.949,50.335-28.328
	c4.627-2.439,9.369-3.836,13.027-3.836c1.65,0,2.721,0.295,3.154,0.551c9.781,5.99,93.81,61.9,100.312,66.451
	C481.724,403.804,484.428,410.523,478.329,419.234z"/>
</svg>
