<?xml version="1.0" encoding="utf-8"?>
<!-- Generator: Adobe Illustrator 16.0.4, SVG Export Plug-In . SVG Version: 6.00 Build 0)  -->
<!DOCTYPE svg PUBLIC "-//W3C//DTD SVG 1.1//EN" "http://www.w3.org/Graphics/SVG/1.1/DTD/svg11.dtd">
<svg version="1.1" id="Layer_1" xmlns="http://www.w3.org/2000/svg" xmlns:xlink="http://www.w3.org/1999/xlink" x="0px" y="0px"
	 width="512px" height="512px" viewBox="0 0 512 512" enable-background="new 0 0 512 512" xml:space="preserve">
<path d="M371.954,157.538l-63.017-78.769H203.062l-63.015,78.769H0V433.23h512V157.538H371.954z M23.631,181.169h39.385V409.6
	H23.631V181.169z M488.369,409.6H86.646V181.169H151.4l63.017-78.769h83.169l63.015,78.769H488.37L488.369,409.6L488.369,409.6z
	 M256,220.554c-41.263,0-74.831,33.568-74.831,74.831c0,41.262,33.568,74.829,74.831,74.829c41.262,0,74.831-33.567,74.831-74.829
	C330.831,254.123,297.262,220.554,256,220.554z M256,346.584c-28.23,0-51.2-22.969-51.2-51.198c0-28.23,22.97-51.2,51.2-51.2
	c28.229,0,51.2,22.97,51.2,51.2C307.2,323.615,284.23,346.584,256,346.584z"/>
</svg>
