<?xml version="1.0" encoding="utf-8"?>
<!-- Generator: Adobe Illustrator 16.0.4, SVG Export Plug-In . SVG Version: 6.00 Build 0)  -->
<!DOCTYPE svg PUBLIC "-//W3C//DTD SVG 1.1//EN" "http://www.w3.org/Graphics/SVG/1.1/DTD/svg11.dtd">
<svg version="1.1" id="Layer_1" xmlns="http://www.w3.org/2000/svg" xmlns:xlink="http://www.w3.org/1999/xlink" x="0px" y="0px"
	 width="512px" height="512px" viewBox="0 0 512 512" enable-background="new 0 0 512 512" xml:space="preserve">
<path d="M497.934,79.101c-0.512-0.732-52.903-73.096-82.687-73.096l-0.984,0.02c-85.027,2.696-185.012,85.395-253.918,154.293
	C91.45,229.194,8.756,329.136,6.012,414.511c-0.248,8.168,3.193,21.127,32.264,49.02c16.108,15.463,33.608,29.258,40.844,34.309
	c7.618,5.334,16.077,8.154,24.468,8.154c10.489,0,19.854-4.424,25.06-11.85c5.476-7.844,61.184-91.639,67.24-101.541
	c6.204-10.146,5.25-25.002-2.531-39.697c-4.262-8.123-18.325-32.854-25.071-44.684c7.343-10.447,26.463-35.486,65.492-74.53
	c39.021-39.042,64.063-58.146,74.49-65.466c11.831,6.75,36.562,20.816,44.661,25.06c14.764,7.801,29.915,8.773,39.882,2.458
	c9.292-5.883,93.064-61.122,101.566-67.233C506.536,119.727,511.356,98.339,497.934,79.101z M480.465,109.198
	c-7.146,5.13-89.678,59.653-100.396,66.434c-0.085,0.056-0.867,0.513-2.922,0.513c-3.619,0-8.394-1.422-13.129-3.925
	c-10.207-5.349-49.897-28.071-50.302-28.301l-5.983-3.426l-5.947,3.488c-1.186,0.692-29.606,17.61-84.849,72.878
	c-55.263,55.283-72.205,83.677-72.897,84.859l-3.496,5.953l3.429,5.99c0.229,0.398,22.945,40.105,28.323,50.35
	c4.573,8.635,4.166,14.709,3.277,16.166c-5.937,9.713-61.869,93.777-66.434,100.312c-0.252,0.34-2.031,1.697-5.553,1.697
	c-2.426,0-6.274-0.668-10.82-3.854c-22.991-16.064-62.005-52.654-62.947-63.396c2.48-77.254,81.5-171.944,147.357-237.782
	c65.869-65.86,160.599-144.885,237.992-147.345c10.608,0.938,47.198,39.939,63.241,62.919
	C484.494,101.44,481.713,108.191,480.465,109.198z"/>
</svg>
