<?xml version="1.0" encoding="utf-8"?>
<!-- Generator: Adobe Illustrator 16.0.4, SVG Export Plug-In . SVG Version: 6.00 Build 0)  -->
<!DOCTYPE svg PUBLIC "-//W3C//DTD SVG 1.1//EN" "http://www.w3.org/Graphics/SVG/1.1/DTD/svg11.dtd">
<svg version="1.1" id="Layer_1" xmlns="http://www.w3.org/2000/svg" xmlns:xlink="http://www.w3.org/1999/xlink" x="0px" y="0px"
	 width="512px" height="512px" viewBox="0 0 512 512" enable-background="new 0 0 512 512" xml:space="preserve">
<path d="M0,456.861H433.23V118.153H0V456.861z M23.631,371.168l97.885-97.885l108.465,123.963l79.935-47.963l97.938,83.947H23.63
	L23.631,371.168L23.631,371.168z M409.6,141.783v261.816l-97.239-83.346l-77.604,46.562L122.669,238.715L23.63,337.754V141.784
	L409.6,141.783L409.6,141.783z M70.893,55.139v59.075h23.63V78.769h393.847v291.446h-51.2v23.631H512V55.139H70.893z
	 M319.016,283.568c28.23,0,51.2-22.969,51.2-51.2c0-28.229-22.97-51.2-51.2-51.2c-28.229,0-51.2,22.971-51.2,51.2
	C267.816,260.599,290.785,283.568,319.016,283.568z M319.016,204.799c15.2,0,27.569,12.369,27.569,27.569
	s-12.369,27.569-27.569,27.569s-27.57-12.369-27.57-27.569S303.815,204.799,319.016,204.799z"/>
</svg>
