<?xml version="1.0" encoding="utf-8"?>
<!-- Generator: Adobe Illustrator 16.0.4, SVG Export Plug-In . SVG Version: 6.00 Build 0)  -->
<!DOCTYPE svg PUBLIC "-//W3C//DTD SVG 1.1//EN" "http://www.w3.org/Graphics/SVG/1.1/DTD/svg11.dtd">
<svg version="1.1" id="Layer_1" xmlns="http://www.w3.org/2000/svg" xmlns:xlink="http://www.w3.org/1999/xlink" x="0px" y="0px"
	 width="64px" height="63.996px" viewBox="-7 -6.998 64 63.996" enable-background="new -7 -6.998 64 63.996" xml:space="preserve">
<path fill="none" stroke="#000000" stroke-width="3" stroke-miterlimit="10" d="M12.186,31.521c0,0,2.897,5.062,3.593,6.387
	c0.699,1.321,0.875,2.691,0.367,3.521c-0.77,1.26-7.801,11.829-8.423,12.72c-0.624,0.89-2.405,1.318-4.15,0.096
	C1.827,53.025-5.073,47.402-5,45.02c0.077-2.386,0.294-12.307,19.008-31.015C32.718-4.703,42.642-4.924,45.027-5
	c2.385-0.076,8.01,6.824,9.229,8.569c1.219,1.747,0.762,3.531-0.097,4.151c-0.978,0.703-11.513,7.655-12.722,8.42
	c-0.823,0.523-2.199,0.331-3.522-0.368c-1.326-0.695-6.387-3.593-6.387-3.593s-3.484,2.042-10.389,8.95
	C14.231,28.039,12.186,31.521,12.186,31.521z"/>
</svg>
