<?xml version="1.0" encoding="utf-8"?>
<!-- Generator: Adobe Illustrator 16.0.4, SVG Export Plug-In . SVG Version: 6.00 Build 0)  -->
<!DOCTYPE svg PUBLIC "-//W3C//DTD SVG 1.1//EN" "http://www.w3.org/Graphics/SVG/1.1/DTD/svg11.dtd">
<svg version="1.1" id="Layer_1" xmlns="http://www.w3.org/2000/svg" xmlns:xlink="http://www.w3.org/1999/xlink" x="0px" y="0px"
	 width="512px" height="512px" viewBox="0 0 512 512" enable-background="new 0 0 512 512" xml:space="preserve">
<path d="M0,78.769V433.23h512V78.769H0z M488.369,102.4v261.814L332.885,230.946l-46.655,62.208l-92.684-92.685L23.63,348.222V102.4
	H488.369z M23.631,409.6v-30.062l168.792-146.775l96.362,96.36l47.868-63.823l151.716,130.047V409.6H23.631z M405.662,228.431
	c28.229,0,51.198-22.97,51.198-51.2s-22.969-51.2-51.198-51.2c-28.231,0-51.2,22.969-51.2,51.2
	C354.462,205.461,377.431,228.431,405.662,228.431z M405.662,149.661c15.198,0,27.567,12.37,27.567,27.569
	c0,15.2-12.369,27.568-27.567,27.568c-15.2,0-27.569-12.368-27.569-27.568C378.093,162.031,390.462,149.661,405.662,149.661z"/>
</svg>
