<?xml version="1.0" encoding="utf-8"?>
<!-- Generator: Adobe Illustrator 16.0.4, SVG Export Plug-In . SVG Version: 6.00 Build 0)  -->
<!DOCTYPE svg PUBLIC "-//W3C//DTD SVG 1.1//EN" "http://www.w3.org/Graphics/SVG/1.1/DTD/svg11.dtd">
<svg version="1.1" id="Layer_1" xmlns="http://www.w3.org/2000/svg" xmlns:xlink="http://www.w3.org/1999/xlink" x="0px" y="0px"
	 width="512px" height="512px" viewBox="0 0 512 512" enable-background="new 0 0 512 512" xml:space="preserve">
<path d="M345.808,265.936l-23.605,23.612l-27.079-27.079l55.51-54.596h26.642c33.794,0,90.487-14.312,90.487-110.159V79.147
	l-72.138,33.812l-20.117-20.743l31.535-72.69h-17.988c-41.133,0-110.137,11.69-110.137,89.991v26.638l-54.646,55.464l-89.97-89.969
	l25.95-25.949L60.704,15.971L31.934,44.742l59.729,99.547l25.949-25.949l90.093,90.093L16.628,402.361L0,459.37l26.667,25.104
	l57.078-14.123l194.55-191.328l27.217,27.216l-23.598,23.599l166.185,166.191l63.901-63.9L345.808,265.936z M61.657,48.399
	l2.705-2.705l57.822,34.693l-25.834,25.834L61.657,48.399z M71.804,448.987l-38.321,9.481l-6.772-6.37l10.912-37.413l264.9-268.856
	v-36.312c0-19.524,5.439-34.823,16.176-45.467c11.227-11.134,28.677-17.869,52.028-20.094l-23.16,53.354l42.831,44.174
	l52.883-24.789c-4.487,45.421-26.195,67.574-66.007,67.574h-36.308L71.804,448.987z M315.294,329.837l30.514-30.521L478.62,432.128
	l-30.521,30.521L315.294,329.837z"/>
</svg>
