<?xml version="1.0" encoding="utf-8"?>
<!-- Generator: Adobe Illustrator 16.0.4, SVG Export Plug-In . SVG Version: 6.00 Build 0)  -->
<!DOCTYPE svg PUBLIC "-//W3C//DTD SVG 1.1//EN" "http://www.w3.org/Graphics/SVG/1.1/DTD/svg11.dtd">
<svg version="1.1" id="Layer_1" xmlns="http://www.w3.org/2000/svg" xmlns:xlink="http://www.w3.org/1999/xlink" x="0px" y="0px"
	 width="512px" height="512px" viewBox="0 0 512 512" enable-background="new 0 0 512 512" xml:space="preserve">
<path d="M67.302,377.396c-37.109,0-67.302,30.193-67.302,67.303S30.193,512,67.302,512c37.112,0,67.305-30.191,67.305-67.301
	S104.415,377.396,67.302,377.396z M67.302,488.386c-24.09,0-43.689-19.6-43.689-43.688c0-24.09,19.6-43.689,43.689-43.689
	c24.093,0,43.692,19.602,43.692,43.689S91.394,488.386,67.302,488.386z M245.609,444.699h-23.613
	c0-85.303-69.395-154.695-154.693-154.695V266.39C165.621,266.39,245.609,346.383,245.609,444.699z M423.207,444.699h-23.611
	c0-183.229-149.068-332.292-332.293-332.292V88.795C263.549,88.795,423.207,248.452,423.207,444.699z M334.401,444.699h-23.611
	c0-134.266-109.231-243.492-243.496-243.492v-23.612C214.579,177.595,334.401,297.422,334.401,444.699z M512,444.699h-23.611
	c0-98.578-34.76-194.434-97.879-269.917l9.055-7.575l-9.055,7.571C310.19,78.71,192.381,23.612,67.302,23.612V-0.001
	c132.092,0,256.499,58.186,341.317,159.633C475.283,239.36,512,340.595,512,444.699z"/>
</svg>
