<?xml version="1.0" encoding="utf-8"?>
<!-- Generator: Adobe Illustrator 16.0.4, SVG Export Plug-In . SVG Version: 6.00 Build 0)  -->
<!DOCTYPE svg PUBLIC "-//W3C//DTD SVG 1.1//EN" "http://www.w3.org/Graphics/SVG/1.1/DTD/svg11.dtd">
<svg version="1.1" id="Layer_1" xmlns="http://www.w3.org/2000/svg" xmlns:xlink="http://www.w3.org/1999/xlink" x="0px" y="0px"
	 width="512px" height="512px" viewBox="0 0 512 512" enable-background="new 0 0 512 512" xml:space="preserve">
<path d="M405.662,212.677C464.3,212.677,512,164.973,512,106.338C512,47.703,464.3,0,405.662,0
	c-58.64,0-106.339,47.704-106.339,106.338c0,20.654,6.016,39.885,16.237,56.216l-164.685,104.8
	c-16.03-14.354-37.126-23.168-60.291-23.168C40.635,244.185,0,284.824,0,334.77c0,49.944,40.635,90.584,90.585,90.584
	c32.8,0,61.492-17.576,77.392-43.754l139.231,55.691C307.277,478.5,340.808,512,382.031,512c41.262,0,74.83-33.568,74.83-74.831
	c0-41.261-33.568-74.831-74.83-74.831c-32.953,0-60.938,21.439-70.899,51.077l-133.601-53.445c2.323-8.009,3.64-16.445,3.64-25.199
	c0-18.192-5.438-35.108-14.708-49.315l163.792-104.231C349.531,200.631,376.208,212.677,405.662,212.677z M382.031,385.969
	c28.23,0,51.199,22.97,51.199,51.199c0,28.231-22.969,51.2-51.199,51.2s-51.199-22.969-51.199-51.2
	C330.831,408.938,353.8,385.969,382.031,385.969z M90.585,401.723c-36.919,0-66.954-30.038-66.954-66.953
	c0-36.916,30.035-66.954,66.954-66.954s66.954,30.038,66.954,66.954C157.539,371.685,127.504,401.723,90.585,401.723z
	 M405.662,23.631c45.606,0,82.707,37.104,82.707,82.708c0,45.604-37.101,82.708-82.707,82.708
	c-45.608,0-82.708-37.104-82.708-82.708C322.954,60.735,360.054,23.631,405.662,23.631z"/>
</svg>
