<?xml version="1.0" encoding="utf-8"?>
<!-- Generator: Adobe Illustrator 16.0.4, SVG Export Plug-In . SVG Version: 6.00 Build 0)  -->
<!DOCTYPE svg PUBLIC "-//W3C//DTD SVG 1.1//EN" "http://www.w3.org/Graphics/SVG/1.1/DTD/svg11.dtd">
<svg version="1.1" id="Layer_1" xmlns="http://www.w3.org/2000/svg" xmlns:xlink="http://www.w3.org/1999/xlink" x="0px" y="0px"
	 width="512px" height="512px" viewBox="0 0 512 512" enable-background="new 0 0 512 512" xml:space="preserve">
<path d="M256,71.556L0,38.523v401.923l254.487,32.831l1.513,0.199l256-33.03V38.523L256,71.556z M354.462,82.676l39.384-5.081
	v120.662l-19.691-9.846l-19.691,9.846L354.462,82.676L354.462,82.676z M23.631,65.4l220.554,28.457v354.266L23.631,419.661V65.4z
	 M488.369,419.66l-220.555,28.462V93.856l63.017-8.131v150.77l43.322-21.661l43.322,21.661V74.545l70.894-9.146V419.66z
	 M209.977,134.734L60.315,118.98l-2.477,23.5L207.5,158.234L209.977,134.734z M57.838,221.249L207.5,237.003l2.477-23.5
	L60.315,197.749L57.838,221.249z M207.501,315.779l-149.66-15.756l2.476-23.508l149.66,15.756L207.501,315.779z M207.503,394.549
	L57.842,378.793l2.476-23.508l149.66,15.756L207.503,394.549z M304.496,315.782l-2.478-23.508l149.661-15.771l2.478,23.509
	L304.496,315.782z M304.497,394.549l-2.478-23.508l149.661-15.771l2.478,23.508L304.497,394.549z"/>
</svg>
