<?xml version="1.0" encoding="utf-8"?>
<!-- Generator: Adobe Illustrator 16.0.4, SVG Export Plug-In . SVG Version: 6.00 Build 0)  -->
<!DOCTYPE svg PUBLIC "-//W3C//DTD SVG 1.1//EN" "http://www.w3.org/Graphics/SVG/1.1/DTD/svg11.dtd">
<svg version="1.1" id="Layer_1" xmlns="http://www.w3.org/2000/svg" xmlns:xlink="http://www.w3.org/1999/xlink" x="0px" y="0px"
	 width="512px" height="512px" viewBox="0 0 512 512" enable-background="new 0 0 512 512" xml:space="preserve">
<path d="M512,149.661H393.846V0H118.154v149.661H0v275.692h118.153V512h275.692v-86.646H512V149.661z M141.785,23.631h228.431
	v126.03H141.785V23.631z M370.216,488.369H141.785V322.954h228.431V488.369z M488.369,401.723h-94.523v-102.4H118.154v102.399
	H23.631V173.292h94.522h275.692h94.523V401.723z M51.2,204.8h31.508v23.632H51.2V204.8z M98.461,204.8h31.508v23.632H98.461V204.8z
	 M177.231,362.338H334.77v23.632H177.231V362.338z M177.231,425.354H334.77v23.631H177.231V425.354z"/>
</svg>
