<?xml version="1.0" encoding="utf-8"?>
<!-- Generator: Adobe Illustrator 16.0.4, SVG Export Plug-In . SVG Version: 6.00 Build 0)  -->
<!DOCTYPE svg PUBLIC "-//W3C//DTD SVG 1.1//EN" "http://www.w3.org/Graphics/SVG/1.1/DTD/svg11.dtd">
<svg version="1.1" id="Layer_1" xmlns="http://www.w3.org/2000/svg" xmlns:xlink="http://www.w3.org/1999/xlink" x="0px" y="0px"
	 width="512px" height="512px" viewBox="0 0 512 512" enable-background="new 0 0 512 512" xml:space="preserve">
<path d="M402.69,287.775l-7.938-47.624c-0.659-3.946-3.256-7.299-6.907-8.923l-65.248-29l-14.31-121.647l34.533-27.624
	c2.822-2.26,4.467-5.682,4.467-9.298V11.907C347.287,5.329,341.953,0,335.38,0h-79.378h-79.38c-6.578,0-11.907,5.33-11.907,11.907
	v31.752c0,3.616,1.644,7.039,4.469,9.298l34.531,27.624L189.4,202.229l-65.244,29c-3.654,1.624-6.252,4.977-6.906,8.923
	l-7.938,47.624c-0.578,3.457,0.396,6.984,2.659,9.658c2.264,2.667,5.585,4.21,9.085,4.21h123.039V512h23.814V301.644h123.037
	c3.505,0,6.822-1.543,9.086-4.21C402.296,294.76,403.265,291.232,402.69,287.775z M256.002,277.83H135.109l4.574-27.441
	l65.589-29.151c3.841-1.705,6.496-5.313,6.988-9.488l15.877-134.946c0.48-4.082-1.179-8.12-4.388-10.69l-35.222-28.174V23.814
	h67.474h67.472v14.124l-35.225,28.174c-3.201,2.57-4.86,6.608-4.38,10.69l15.876,134.945c0.487,4.175,3.146,7.783,6.983,9.488
	l65.589,29.151l4.574,27.441L256.002,277.83L256.002,277.83z"/>
</svg>
