<?xml version="1.0" encoding="utf-8"?>
<!-- Generator: Adobe Illustrator 16.0.4, SVG Export Plug-In . SVG Version: 6.00 Build 0)  -->
<!DOCTYPE svg PUBLIC "-//W3C//DTD SVG 1.1//EN" "http://www.w3.org/Graphics/SVG/1.1/DTD/svg11.dtd">
<svg version="1.1" id="Layer_1" xmlns="http://www.w3.org/2000/svg" xmlns:xlink="http://www.w3.org/1999/xlink" x="0px" y="0px"
	 width="512px" height="512px" viewBox="-224 -224 512 512" enable-background="new -224 -224 512 512" xml:space="preserve">
<path d="M281.177,258.504L129.876,107.201c31.126-35.069,50.081-81.168,50.081-131.636C179.957-133.924,90.877-223-18.612-223
	s-198.565,89.076-198.565,198.565c0,109.488,89.076,198.565,198.565,198.565c44.528,0,85.68-14.737,118.841-39.581L252.68,287
	L281.177,258.504z M-192.994-24.435c0-96.153,78.229-174.383,174.382-174.383c96.158,0,174.386,78.229,174.386,174.383
	S77.546,149.947-18.612,149.947C-114.765,149.947-192.994,71.719-192.994-24.435z"/>
</svg>
