<?xml version="1.0" encoding="utf-8"?>
<!-- Generator: Adobe Illustrator 16.0.4, SVG Export Plug-In . SVG Version: 6.00 Build 0)  -->
<!DOCTYPE svg PUBLIC "-//W3C//DTD SVG 1.1//EN" "http://www.w3.org/Graphics/SVG/1.1/DTD/svg11.dtd">
<svg version="1.1" id="Layer_1" xmlns="http://www.w3.org/2000/svg" xmlns:xlink="http://www.w3.org/1999/xlink" x="0px" y="0px"
	 width="512px" height="512px" viewBox="0 0 512 512" enable-background="new 0 0 512 512" xml:space="preserve">
<path d="M478.854,315.077L431.593,0H80.408L33.147,315.077h-1.639V512h448.984V315.077H478.854z M100.762,23.631h310.477
	l43.717,291.446H57.043L100.762,23.631z M456.861,488.369H55.138V338.707h401.723V488.369z M382.031,448.984
	c19.547,0,35.445-15.9,35.445-35.446s-15.898-35.446-35.445-35.446s-35.445,15.9-35.445,35.446S362.484,448.984,382.031,448.984z
	 M382.031,401.723c6.516,0,11.814,5.301,11.814,11.814c0,6.517-5.3,11.815-11.814,11.815c-6.516,0-11.814-5.3-11.814-11.815
	C370.216,407.023,375.516,401.723,382.031,401.723z M267.815,219.6V90.584h-23.63V219.6l-42.847-42.847l-16.707,16.707L256,264.83
	l71.369-71.369l-16.707-16.707L267.815,219.6z"/>
</svg>
