<?xml version="1.0" encoding="utf-8"?>
<!-- Generator: Adobe Illustrator 16.0.4, SVG Export Plug-In . SVG Version: 6.00 Build 0)  -->
<!DOCTYPE svg PUBLIC "-//W3C//DTD SVG 1.1//EN" "http://www.w3.org/Graphics/SVG/1.1/DTD/svg11.dtd">
<svg version="1.1" id="Layer_1" xmlns="http://www.w3.org/2000/svg" xmlns:xlink="http://www.w3.org/1999/xlink" x="0px" y="0px"
	 width="512px" height="512px" viewBox="0 0 512 512" enable-background="new 0 0 512 512" xml:space="preserve">
<path d="M382.031,0H129.97c-6.527,0-11.815,5.288-11.815,11.815v488.37c0,6.521,5.289,11.814,11.815,11.814h252.062
	c6.522,0,11.814-5.293,11.814-11.814V11.816C393.847,5.288,388.555,0,382.031,0z M370.217,23.631v39.386H141.786V23.631H370.217z
	 M370.217,86.647v307.201H141.786V86.647H370.217z M141.786,488.369v-70.893h228.431v70.893H141.786z M224.493,31.508h63.016V55.14
	h-63.016V31.508z M256.001,425.355c-15.2,0-27.569,12.369-27.569,27.568s12.369,27.568,27.569,27.568s27.568-12.369,27.568-27.568
	S271.201,425.355,256.001,425.355z M256.001,456.861c-2.173,0-3.938-1.77-3.938-3.938s1.767-3.938,3.938-3.938
	s3.938,1.77,3.938,3.938S258.174,456.861,256.001,456.861z"/>
</svg>
