<?xml version="1.0" encoding="utf-8"?>
<!-- Generator: Adobe Illustrator 16.0.4, SVG Export Plug-In . SVG Version: 6.00 Build 0)  -->
<!DOCTYPE svg PUBLIC "-//W3C//DTD SVG 1.1//EN" "http://www.w3.org/Graphics/SVG/1.1/DTD/svg11.dtd">
<svg version="1.1" id="Layer_1" xmlns="http://www.w3.org/2000/svg" xmlns:xlink="http://www.w3.org/1999/xlink" x="0px" y="0px"
	 width="512px" height="512px" viewBox="0 0 512 512" enable-background="new 0 0 512 512" xml:space="preserve">
<path d="M425.354,256c0-54.483-25.969-102.908-66.067-133.908h3.054V0H149.662v122.092h3.054
	c-40.096,31-66.069,79.424-66.069,133.908c0,54.485,25.974,102.908,66.065,133.908h-3.05V512h212.677V389.908h-3.047
	C399.385,358.908,425.354,310.484,425.354,256z M173.292,23.631h165.416v84.73C314.223,94.588,286.039,86.646,256,86.646
	s-58.224,7.945-82.708,21.719V23.631z M110.277,256c0-80.354,65.37-145.723,145.724-145.723
	c80.353,0,145.723,65.369,145.723,145.723c0,80.354-65.369,145.724-145.723,145.724C175.646,401.723,110.277,336.354,110.277,256z
	 M338.708,488.369H173.292v-84.729c24.483,13.77,52.669,21.715,82.708,21.715s58.223-7.945,82.708-21.715V488.369z M324.3,276.938
	l-56.485-28.242v-87.219h-23.63V263.3l69.545,34.777L324.3,276.938z"/>
</svg>
