<?xml version="1.0" encoding="utf-8"?>
<!-- Generator: Adobe Illustrator 16.0.4, SVG Export Plug-In . SVG Version: 6.00 Build 0)  -->
<!DOCTYPE svg PUBLIC "-//W3C//DTD SVG 1.1//EN" "http://www.w3.org/Graphics/SVG/1.1/DTD/svg11.dtd">
<svg version="1.1" id="Layer_1" xmlns="http://www.w3.org/2000/svg" xmlns:xlink="http://www.w3.org/1999/xlink" x="0px" y="0px"
	 width="512px" height="512px" viewBox="0 0 512 512" enable-background="new 0 0 512 512" xml:space="preserve">
<path d="M256.003-0.004c-68.395,0-132.688,26.627-181.039,74.979C26.608,123.33-0.016,187.62,0.001,256.005
	c-0.004,68.388,26.619,132.673,74.967,181.021c48.348,48.354,112.641,74.979,181.027,74.979l0.025-11.773v11.773
	c141.146,0,255.98-114.841,255.98-256.006C512.002,114.837,397.16-0.004,256.003-0.004z M381.147,346.285
	c6.584-23.702,11.008-49.889,11.975-78.512h95.031c-2.322,46.331-18.312,89.099-43.955,124.43
	C433.512,379.348,413.871,360.942,381.147,346.285z M67.693,392.318c-26.374-36.274-41.605-79.202-43.848-124.545h95.028
	c0.966,28.623,5.381,54.81,11.97,78.512C98.019,360.988,78.356,379.455,67.693,392.318z M130.844,165.707
	c-6.589,23.71-11.004,49.894-11.97,78.518H23.846c2.238-45.339,17.47-88.275,43.848-124.55
	C78.356,132.541,98.019,151.008,130.844,165.707z M267.77,189.08c36.734-1.016,66.746-6.738,91.123-14.783
	c5.812,21.262,9.729,44.584,10.672,69.928H267.77V189.08z M267.77,165.539V24.765c12.633,11.106,58.299,54.909,84.057,127.041
	C329.633,159.18,301.967,164.53,267.77,165.539z M244.22,24.776v140.766c-34.228-0.997-61.859-6.293-84.028-13.606
	C185.954,79.912,231.572,35.953,244.22,24.776z M244.22,189.08v55.145H142.43c0.943-25.32,4.883-48.64,10.709-69.912
	C177.513,182.35,207.51,188.064,244.22,189.08z M142.427,267.773H244.22v55.14c-36.734,1.021-66.746,6.738-91.126,14.787
	C147.288,316.436,143.367,293.116,142.427,267.773z M244.22,346.454v140.774c-12.633-11.107-58.294-54.91-84.055-127.037
	C182.361,352.816,210.023,347.467,244.22,346.454z M267.77,487.221V346.454c34.229,0.997,61.863,6.294,84.033,13.606
	C326.03,432.096,280.403,476.06,267.77,487.221z M267.77,322.913v-55.14h101.795c-0.943,25.318-4.885,48.639-10.717,69.911
	C334.477,329.651,304.481,323.933,267.77,322.913z M393.121,244.224c-0.967-28.624-5.391-54.807-11.975-78.518
	c32.725-14.652,52.363-33.055,63.051-45.914c25.643,35.332,41.633,78.1,43.955,124.432H393.121z M429.051,101.004
	c-7.344,9.771-23.926,27.578-55.08,42.055c-18.826-52.756-47.527-91.127-68.508-114.162
	C354.041,39.469,396.992,65.244,429.051,101.004z M206.579,28.844c-21.009,23.051-49.771,61.49-68.612,114.36
	c-31.338-14.503-47.854-32.407-55.145-42.261c2.845-3.166,5.762-6.282,8.794-9.314C123.624,59.617,163.347,38.153,206.579,28.844z
	 M82.86,411.092c7.31-9.742,23.898-27.627,55.159-42.153c18.846,52.803,47.578,91.191,68.562,114.221
	c-43.231-9.307-82.951-30.771-114.959-62.783C88.602,417.355,85.692,414.25,82.86,411.092z M305.455,483.111
	c20.996-23.059,49.734-61.486,68.568-114.318c31.262,14.465,47.768,32.312,55.072,42.153
	C397.03,446.738,354.057,472.541,305.455,483.111z"/>
</svg>
