<?xml version="1.0" encoding="utf-8"?>
<!-- Generator: Adobe Illustrator 16.0.4, SVG Export Plug-In . SVG Version: 6.00 Build 0)  -->
<!DOCTYPE svg PUBLIC "-//W3C//DTD SVG 1.1//EN" "http://www.w3.org/Graphics/SVG/1.1/DTD/svg11.dtd">
<svg version="1.1" id="Layer_1" xmlns="http://www.w3.org/2000/svg" xmlns:xlink="http://www.w3.org/1999/xlink" x="0px" y="0px"
	 width="512px" height="512px" viewBox="0 0 512 512" enable-background="new 0 0 512 512" xml:space="preserve">
<path d="M378.093,215.166v-69.928h-54.185l-63.017-63.015H51.2v23.631h199.907l39.385,39.384H0V420.93h378.093v-69.923L512,429.776
	v-293.38L378.093,215.166z M488.369,388.455l-133.907-78.771V397.3H23.631V168.87h330.831v87.614l133.907-78.771V388.455z
	 M51.2,208.254h31.508v23.631H51.2V208.254z M114.215,208.254h31.508v23.631h-31.508V208.254z M47.262,373.669h165.415V271.269
	H47.262V373.669z M70.893,294.899h118.154v55.14H70.893V294.899z"/>
</svg>
