<?xml version="1.0" encoding="utf-8"?>
<!-- Generator: Adobe Illustrator 16.0.4, SVG Export Plug-In . SVG Version: 6.00 Build 0)  -->
<!DOCTYPE svg PUBLIC "-//W3C//DTD SVG 1.1//EN" "http://www.w3.org/Graphics/SVG/1.1/DTD/svg11.dtd">
<svg version="1.1" id="Layer_1" xmlns="http://www.w3.org/2000/svg" xmlns:xlink="http://www.w3.org/1999/xlink" x="0px" y="0px"
	 width="512px" height="512px" viewBox="0 0 512 512" enable-background="new 0 0 512 512" xml:space="preserve">
<path d="M473.943,389.661l-38.006-133.018l-46.847,15.619l-29.139-99.188l-14.692,4.315V94.523h-19.692L286.183,0H178.128
	L145.57,40.419l-73.058-1.181L56.716,94.523H38.058V512h307.2V206.915l87.123,296.602l22.678-6.662l-26.993-91.899L473.943,389.661z
	 M189.436,23.631h80.993l29.538,70.893H176.713l-12.404-39.7L189.436,23.631z M90.251,63.161l52.166,0.843l9.538,30.52H81.294
	L90.251,63.161z M321.628,488.369H61.69V118.154h259.938V488.369z M419.997,286.861l25.008,87.539l-23.607,7.869l-25.646-87.323
	L419.997,286.861z M132.582,177.23h23.631v267.814h-23.631V177.23z M227.105,177.23h23.631v267.814h-23.631V177.23z"/>
</svg>
