<?xml version="1.0" encoding="utf-8"?>
<!-- Generator: Adobe Illustrator 16.0.4, SVG Export Plug-In . SVG Version: 6.00 Build 0)  -->
<!DOCTYPE svg PUBLIC "-//W3C//DTD SVG 1.1//EN" "http://www.w3.org/Graphics/SVG/1.1/DTD/svg11.dtd">
<svg version="1.1" id="Layer_1" xmlns="http://www.w3.org/2000/svg" xmlns:xlink="http://www.w3.org/1999/xlink" x="0px" y="0px"
	 width="512px" height="512px" viewBox="0 0 512 512" enable-background="new 0 0 512 512" xml:space="preserve">
<path d="M421.416,0H90.586C84.058,0,78.77,5.288,78.77,11.816v488.37c0,6.521,5.288,11.814,11.815,11.814h330.831
	c6.521,0,11.814-5.293,11.814-11.814V11.816C433.231,5.288,427.938,0,421.416,0z M409.6,23.631v39.386H102.4V23.631H409.6z
	 M409.6,86.647v307.201H102.4V86.647H409.6z M102.4,488.369v-70.893h307.2v70.893H102.4z M224.493,31.508h63.015V55.14h-63.015
	V31.508z M256.001,425.355c-15.2,0-27.569,12.369-27.569,27.568s12.369,27.568,27.569,27.568c15.201,0,27.568-12.369,27.568-27.568
	S271.201,425.355,256.001,425.355z M256.001,456.861c-2.173,0-3.938-1.77-3.938-3.938s1.767-3.938,3.938-3.938
	c2.171,0,3.937,1.77,3.937,3.938S258.174,456.861,256.001,456.861z"/>
</svg>
