<?xml version="1.0" encoding="utf-8"?>
<!-- Generator: Adobe Illustrator 16.0.4, SVG Export Plug-In . SVG Version: 6.00 Build 0)  -->
<!DOCTYPE svg PUBLIC "-//W3C//DTD SVG 1.1//EN" "http://www.w3.org/Graphics/SVG/1.1/DTD/svg11.dtd">
<svg version="1.1" id="Layer_1" xmlns="http://www.w3.org/2000/svg" xmlns:xlink="http://www.w3.org/1999/xlink" x="0px" y="0px"
	 width="512px" height="512px" viewBox="0 0 512 512" enable-background="new 0 0 512 512" xml:space="preserve">
<path d="M180.216,0l-117.2,117.2V512h385.969V0H180.216z M173.293,40.338v69.938h-69.938L173.293,40.338z M425.355,488.369H86.647
	V133.908h110.277V23.631h228.431V488.369z M173.293,287.508c0,45.607,37.104,82.708,82.708,82.708
	c45.606,0,82.708-37.101,82.708-82.708c0-45.604-37.102-82.708-82.708-82.708C210.397,204.8,173.293,241.904,173.293,287.508z
	 M196.924,287.508c0-12.022,3.631-23.208,9.823-32.546l81.8,81.801c-9.338,6.191-20.522,9.822-32.546,9.822
	C223.424,346.585,196.924,320.085,196.924,287.508z M315.078,287.508c0,12.023-3.632,23.208-9.823,32.547l-81.8-81.801
	c9.338-6.191,20.522-9.822,32.546-9.822C288.578,228.431,315.078,254.931,315.078,287.508z"/>
</svg>
