<?xml version="1.0" encoding="utf-8"?>
<!-- Generator: Adobe Illustrator 16.0.4, SVG Export Plug-In . SVG Version: 6.00 Build 0)  -->
<!DOCTYPE svg PUBLIC "-//W3C//DTD SVG 1.1//EN" "http://www.w3.org/Graphics/SVG/1.1/DTD/svg11.dtd">
<svg version="1.1" id="Layer_1" xmlns="http://www.w3.org/2000/svg" xmlns:xlink="http://www.w3.org/1999/xlink" x="0px" y="0px"
	 width="512px" height="512px" viewBox="0 0 512 512" enable-background="new 0 0 512 512" xml:space="preserve">
<path d="M180.216,0l-117.2,117.2V512h385.969V0H180.216z M173.293,40.338v69.938h-69.938L173.293,40.338z M425.355,488.369H86.647
	V133.908h110.277V23.631h228.431V488.369z M165.417,220.554v133.907h181.169V220.554H165.417z M322.955,256
	c0,6.517-5.301,11.815-11.815,11.815s-11.816-5.299-11.816-11.815c0-6.516,5.301-11.814,11.815-11.814S322.955,249.484,322.955,256z
	 M277.87,244.185c-1.323,3.715-2.178,7.652-2.178,11.814c0,19.546,15.9,35.446,35.446,35.446c4.161,0,8.1-0.854,11.815-2.177v26.838
	L278.908,279.4l-14.054,14.046l-31.504-39.381l-44.304,44.304v-54.184H277.87z M303.709,330.831H190.001l41.389-41.385
	l31.511,39.385l17.453-17.462L303.709,330.831z"/>
</svg>
