<?xml version="1.0" encoding="utf-8"?>
<!-- Generator: Adobe Illustrator 16.0.4, SVG Export Plug-In . SVG Version: 6.00 Build 0)  -->
<!DOCTYPE svg PUBLIC "-//W3C//DTD SVG 1.1//EN" "http://www.w3.org/Graphics/SVG/1.1/DTD/svg11.dtd">
<svg version="1.1" id="Layer_1" xmlns="http://www.w3.org/2000/svg" xmlns:xlink="http://www.w3.org/1999/xlink" x="0px" y="0px"
	 width="512px" height="512px" viewBox="0 0 512 512" enable-background="new 0 0 512 512" xml:space="preserve">
<path d="M0,118.154v275.692h512V118.154H0z M488.369,370.215H23.631v-228.43h464.738V370.215z M70.892,350.523v11.814h370.215
	v-11.814c0-15.201,12.369-27.57,27.569-27.57h11.815V189.045h-11.815c-15.2,0-27.569-12.368-27.569-27.568v-11.815H70.892v11.815
	c0,15.2-12.369,27.568-27.569,27.568H31.508v133.908h11.814C58.523,322.953,70.892,335.322,70.892,350.523z M55.139,211.299
	c18.761-4.445,33.562-19.245,38.007-38.007h325.708c4.446,18.762,19.246,33.562,38.007,38.007v89.4
	c-18.762,4.447-33.562,19.246-38.008,38.008H93.145C88.7,319.945,73.9,305.146,55.139,300.699V211.299z M256,330.83
	c41.262,0,74.831-33.568,74.831-74.831c0-41.262-33.569-74.831-74.831-74.831c-41.263,0-74.831,33.569-74.831,74.831
	C181.169,297.261,214.738,330.83,256,330.83z M256,204.799c28.229,0,51.2,22.97,51.2,51.2c0,28.231-22.971,51.2-51.2,51.2
	c-28.231,0-51.2-22.969-51.2-51.2C204.8,227.769,227.769,204.799,256,204.799z"/>
</svg>
