<?xml version="1.0" encoding="utf-8"?>
<!-- Generator: Adobe Illustrator 16.0.4, SVG Export Plug-In . SVG Version: 6.00 Build 0)  -->
<!DOCTYPE svg PUBLIC "-//W3C//DTD SVG 1.1//EN" "http://www.w3.org/Graphics/SVG/1.1/DTD/svg11.dtd">
<svg version="1.1" id="Layer_1" xmlns="http://www.w3.org/2000/svg" xmlns:xlink="http://www.w3.org/1999/xlink" x="0px" y="0px"
	 width="512px" height="512px" viewBox="0 0 512 512" enable-background="new 0 0 512 512" xml:space="preserve">
<path d="M0,409.599H433.23v-228.43H0V409.599z M23.631,204.799H409.6v181.169H23.631V204.799L23.631,204.799z M78.769,102.4v74.831
	H102.4v-51.2h385.97v181.168h-51.2v23.631H512V102.4H78.769z M370.216,224.491v-11.814H70.892v11.814
	c0,9.965-2.126,19.692-27.569,19.692H31.508v102.4h11.814c25.442,0,27.569,9.73,27.569,19.691v11.814h299.324v-11.814
	c0-8.453,2.038-19.691,19.691-19.691h11.814v-102.4h-11.814C372.254,244.185,370.216,232.946,370.216,224.491z M378.093,324.215
	c-15.801,3.555-26.692,14.445-30.247,30.246H93.235C90.212,341.345,80.859,327,55.139,323.668v-56.568
	c25.719-3.33,35.073-17.672,38.096-30.792h254.611c3.554,15.796,14.446,26.692,30.247,30.247V324.215z M216.615,244.185
	c-28.23,0-51.2,22.969-51.2,51.2s22.969,51.199,51.2,51.199c28.23,0,51.199-22.969,51.199-51.199S244.846,244.185,216.615,244.185z
	 M216.615,322.953c-15.2,0-27.569-12.369-27.569-27.568s12.369-27.568,27.569-27.568c15.199,0,27.568,12.369,27.568,27.568
	S231.815,322.953,216.615,322.953z"/>
</svg>
