<?xml version="1.0" encoding="utf-8"?>
<!-- Generator: Adobe Illustrator 16.0.4, SVG Export Plug-In . SVG Version: 6.00 Build 0)  -->
<!DOCTYPE svg PUBLIC "-//W3C//DTD SVG 1.1//EN" "http://www.w3.org/Graphics/SVG/1.1/DTD/svg11.dtd">
<svg version="1.1" id="Layer_1" xmlns="http://www.w3.org/2000/svg" xmlns:xlink="http://www.w3.org/1999/xlink" x="0px" y="0px"
	 width="512px" height="512px" viewBox="0 0 512 512" enable-background="new 0 0 512 512" xml:space="preserve">
<path d="M509.738,190.198c-2.224-3.058-5.776-4.864-9.555-4.864h-94.398L345.738,35.221L323.8,43.999l56.53,141.334H131.665
	L188.2,43.999l-21.938-8.777l-60.046,150.112h-94.4c-3.78,0-7.331,1.808-9.554,4.864c-2.223,3.055-2.85,6.992-1.688,10.588
	l86.646,267.815c1.577,4.877,6.119,8.178,11.242,8.178h315.078c5.123,0,9.661-3.301,11.237-8.178l86.646-267.815
	C512.592,197.191,511.961,193.252,509.738,190.198z M404.945,453.148H107.056l-79-244.184h455.888L404.945,453.148z"/>
</svg>
