<?xml version="1.0" encoding="utf-8"?>
<!-- Generator: Adobe Illustrator 16.0.4, SVG Export Plug-In . SVG Version: 6.00 Build 0)  -->
<!DOCTYPE svg PUBLIC "-//W3C//DTD SVG 1.1//EN" "http://www.w3.org/Graphics/SVG/1.1/DTD/svg11.dtd">
<svg version="1.1" id="Layer_1" xmlns="http://www.w3.org/2000/svg" xmlns:xlink="http://www.w3.org/1999/xlink" x="0px" y="0px"
	 width="512px" height="512px" viewBox="0 0 512 512" enable-background="new 0 0 512 512" xml:space="preserve">
<path d="M256.002,108.725h108.725v23.298H256.002V108.725z M147.276,178.62h217.451v23.298H147.276V178.62z M147.276,256.28h217.451
	v23.299H147.276V256.28z M147.276,333.941h217.451v23.298H147.276V333.941z M147.276,411.602h217.451V434.9H147.276V411.602z
	 M204.582,0L89.03,115.552V512l42.714-21.355l31.063,15.532l31.064-15.532l31.063,15.532l31.066-15.533l31.063,15.532l31.064-15.532
	l31.064,15.532l31.062-15.532l42.715,21.349V0H204.582z M197.756,39.771v68.954h-68.954L197.756,39.771z M399.674,474.301
	l-19.416-9.7l-31.062,15.532L318.131,464.6l-31.064,15.532l-31.065-15.533l-31.064,15.533L193.874,464.6l-31.064,15.532
	L131.746,464.6l-19.415,9.708V132.023h108.724V23.299h178.62V474.301L399.674,474.301z"/>
</svg>
