<?xml version="1.0" encoding="utf-8"?>
<!-- Generator: Adobe Illustrator 16.0.4, SVG Export Plug-In . SVG Version: 6.00 Build 0)  -->
<!DOCTYPE svg PUBLIC "-//W3C//DTD SVG 1.1//EN" "http://www.w3.org/Graphics/SVG/1.1/DTD/svg11.dtd">
<svg version="1.1" id="Layer_1" xmlns="http://www.w3.org/2000/svg" xmlns:xlink="http://www.w3.org/1999/xlink" x="0px" y="0px"
	 width="512px" height="512px" viewBox="0 0 512 512" enable-background="new 0 0 512 512" xml:space="preserve">
<path d="M346.577,303.262c0-16.446-12.771-55.996-66.954-65.039v-86.146c33.399,7.446,35.27,30.143,35.354,33.181l11.815-0.149
	h11.814c0-0.527-0.808-47.077-58.983-57.144v-21.627h-15.754v19.9c-2.577-0.13-5.22-0.208-7.974-0.208
	c-2.677,0-5.233,0.135-7.78,0.277v-19.97h-15.755v21.985c-15.896,3.25-28.5,9.98-37.458,20.312
	c-15.542,17.919-14.331,40.1-13.834,45.046c0.266,19.818,11.896,53.691,51.292,63.462v95.818
	c-17.022-2.424-25.691-7.377-30.058-11.746c-5.388-5.385-5.388-11.178-5.388-14.322l-23.631,0.029c0,4.623,0,18.7,12.312,31.009
	c9.969,9.97,25.662,16.262,46.765,18.831v36.775h15.755v-35.652c2.564,0.092,5.088,0.208,7.78,0.208
	c2.766,0,5.342-0.132,7.974-0.217v35.661h15.754V376.77c23.246-2.746,40.308-9.877,51.708-21.623
	c16.269-16.754,15.646-37.454,15.314-48.577C346.615,305.346,346.577,304.238,346.577,303.262z M255.896,149.662
	c2.824,0,5.412,0.135,7.974,0.289v86.686c-2.632-0.132-5.182-0.327-7.974-0.327c-2.757,0-5.312-0.162-7.78-0.393v-85.98
	C250.611,149.762,253.192,149.662,255.896,149.662z M204.696,192.984l-0.107-1.584c-0.02-0.158-1.881-15.877,8.327-27.461
	c4.616-5.239,11.162-8.993,19.445-11.355v79.866C206.035,222.516,204.742,196.508,204.696,192.984z M255.896,354.462
	c-2.733,0-5.296-0.062-7.78-0.153v-94.73c2.534,0.177,5.064,0.361,7.78,0.361c2.827,0,5.381,0.177,7.974,0.331v94
	C261.27,354.369,258.661,354.462,255.896,354.462z M314.377,338.692c-7.038,7.246-18.762,11.962-34.754,14.208v-90.608
	c41.822,8.9,43.322,40.602,43.322,40.971c0,1.185,0.038,2.529,0.086,4.008C323.3,316.484,323.677,329.1,314.377,338.692z
	 M437.008,74.992C388.654,26.635,324.361,0,255.988,0C187.611,0,123.33,26.635,74.984,74.992C26.63,123.342,0,187.627,0,256.004
	c0,68.382,26.631,132.657,74.98,181.004C123.331,485.369,187.615,512,255.996,512s132.665-26.631,181.012-74.992
	C485.362,388.654,512,324.369,512,255.996C512,187.619,485.361,123.338,437.008,74.992z M420.3,420.3
	c-43.885,43.9-102.238,68.069-164.304,68.069c-62.069,0-120.419-24.169-164.305-68.068C47.799,376.415,23.63,318.07,23.63,256.004
	c0-62.065,24.169-120.416,68.062-164.304c43.886-43.896,102.234-68.069,164.296-68.069c62.065,0,120.42,24.174,164.312,68.069
	c43.892,43.884,68.069,102.235,68.069,164.296C488.369,318.062,464.192,376.407,420.3,420.3z"/>
</svg>
