<?xml version="1.0" encoding="utf-8"?>
<!-- Generator: Adobe Illustrator 16.0.4, SVG Export Plug-In . SVG Version: 6.00 Build 0)  -->
<!DOCTYPE svg PUBLIC "-//W3C//DTD SVG 1.1//EN" "http://www.w3.org/Graphics/SVG/1.1/DTD/svg11.dtd">
<svg version="1.1" id="Layer_1" xmlns="http://www.w3.org/2000/svg" xmlns:xlink="http://www.w3.org/1999/xlink" x="0px" y="0px"
	 width="512px" height="512px" viewBox="0 0 512 512" enable-background="new 0 0 512 512" xml:space="preserve">
<path d="M350.523,133.906c-6.678,0-13.224,0.535-19.691,1.327v-32.835h-15.754V55.138H0v70.892h15.754v23.631H0v70.893h15.754
	v23.631H0v70.892h31.508v23.631H15.754v47.262H0v70.893h315.077v-4.045c11.423,2.568,23.254,4.045,35.445,4.045
	C439.562,456.859,512,384.422,512,295.385C512,206.345,439.562,133.906,350.523,133.906z M23.631,78.768h267.814v23.631H23.631
	V78.768z M39.385,126.03H307.2v13.954c-9.585,2.677-18.785,6.223-27.569,10.539v-0.861H39.385V126.03z M222.827,196.921H23.631
	v-23.63h221.527C236.938,180.395,229.477,188.318,222.827,196.921z M39.385,220.553h168.177
	c-3.962,7.542-7.312,15.445-10.058,23.631H39.385V220.553z M23.631,291.445v-23.631h167.946c-1.335,7.707-2.136,15.592-2.331,23.631
	H31.508H23.631z M55.139,315.076h135.234c0.987,8.084,2.607,15.961,4.75,23.631H55.139V315.076z M39.385,362.338h164.377
	c3.781,8.254,8.115,16.191,13.173,23.631H39.385V362.338z M23.631,433.228v-23.629h212.861c9.085,9.068,19.342,16.916,30.36,23.631
	H23.631V433.228z M350.523,433.228c-76.008,0-137.847-61.838-137.847-137.846c0-76.008,61.84-137.845,137.847-137.845
	s137.847,61.838,137.847,137.847C488.369,371.392,426.531,433.228,350.523,433.228z M350.523,181.167
	c-62.978,0-114.216,51.238-114.216,114.215c0,62.977,51.238,114.215,114.216,114.215s114.215-51.238,114.215-114.215
	C464.738,232.406,413.5,181.167,350.523,181.167z M350.523,385.969c-49.945,0-90.585-40.639-90.585-90.584
	c0-49.951,40.64-90.586,90.585-90.586s90.584,40.636,90.584,90.586C441.107,345.33,400.469,385.969,350.523,385.969z"/>
</svg>
