<?xml version="1.0" encoding="utf-8"?>
<!-- Generator: Adobe Illustrator 16.0.4, SVG Export Plug-In . SVG Version: 6.00 Build 0)  -->
<!DOCTYPE svg PUBLIC "-//W3C//DTD SVG 1.1//EN" "http://www.w3.org/Graphics/SVG/1.1/DTD/svg11.dtd">
<svg version="1.1" id="Layer_1" xmlns="http://www.w3.org/2000/svg" xmlns:xlink="http://www.w3.org/1999/xlink" x="0px" y="0px"
	 width="512px" height="512px" viewBox="0 0 512 512" enable-background="new 0 0 512 512" xml:space="preserve">
<path d="M512,138.12H339.8c19.97-14.276,30.416-34.289,30.416-59.076c0-26.65-19.362-43.873-49.323-43.873
	c-24.224,0-50.238,10.958-64.893,28.681c-14.65-17.723-40.666-28.681-64.893-28.681c-29.962,0-49.322,17.223-49.322,43.873
	c0,24.788,10.445,44.8,30.416,59.076H0v94.523h39.385v244.184h433.23V232.644H512V138.12z M320.893,58.802
	c11.724,0,25.692,3.511,25.692,20.242c0,24.022-13.64,40.584-41.7,50.622c-13.631,4.878-27.593,6.938-37.069,7.815V94.797
	C267.815,74.86,296.854,58.802,320.893,58.802z M191.108,58.802c24.038,0,53.077,16.058,53.077,35.996v42.711
	c-24.526-2.196-78.769-12.281-78.769-58.465C165.416,62.313,179.385,58.802,191.108,58.802z M23.631,209.014v-47.263h220.554v47.263
	h-204.8H23.631z M63.016,232.644h181.169v220.553H63.016V232.644L63.016,232.644z M448.984,453.197H267.815V232.644h181.169V453.197
	L448.984,453.197z M488.369,209.014h-15.755h-204.8v-47.263h220.555V209.014z"/>
</svg>
