<?xml version="1.0" encoding="utf-8"?>
<!-- Generator: Adobe Illustrator 16.0.4, SVG Export Plug-In . SVG Version: 6.00 Build 0)  -->
<!DOCTYPE svg PUBLIC "-//W3C//DTD SVG 1.1//EN" "http://www.w3.org/Graphics/SVG/1.1/DTD/svg11.dtd">
<svg version="1.1" id="Layer_1" xmlns="http://www.w3.org/2000/svg" xmlns:xlink="http://www.w3.org/1999/xlink" x="0px" y="0px"
	 width="512px" height="512px" viewBox="0 0 512 512" enable-background="new 0 0 512 512" xml:space="preserve">
<path d="M437.008,74.992C388.654,26.635,324.361,0,255.988,0C187.611,0,123.33,26.635,74.984,74.992
	C26.63,123.342,0,187.627,0,256.004c0,68.382,26.631,132.657,74.98,181.004C123.331,485.369,187.615,512,255.996,512
	s132.665-26.631,181.012-74.992C485.362,388.654,512,324.369,512,255.996C512,187.619,485.361,123.338,437.008,74.992z M420.3,420.3
	c-43.885,43.9-102.238,68.069-164.304,68.069c-62.069,0-120.419-24.169-164.305-68.068C47.799,376.415,23.63,318.07,23.63,256.004
	c0-62.065,24.169-120.416,68.062-164.304c43.886-43.896,102.234-68.069,164.296-68.069c62.065,0,120.42,24.174,164.312,68.069
	c43.892,43.884,68.069,102.235,68.069,164.296C488.369,318.062,464.192,376.407,420.3,420.3z M255.992,149.662
	c58.614,0,67.27,22.562,67.308,22.559l22.923-5.731c-1.03-4.142-12.361-40.458-90.229-40.458c-59.646,0-96.792,36.95-104.704,102.4
	h-29.204v23.631h27.688c-0.022,1.331-0.119,2.588-0.119,3.938c0,1.351,0.097,2.607,0.119,3.938h-27.688v23.631h29.204
	c7.912,65.454,45.058,102.399,104.704,102.399c77.868,0,89.199-36.314,90.229-40.453l-22.8-6.178c-0.077,0.23-8.538,23-67.431,23
	c-55.658,0-75.505-38.339-80.961-78.77h96.715v-23.63h-98.386c-0.022-1.312-0.076-2.64-0.076-3.938s0.054-2.627,0.076-3.938h98.386
	v-23.631h-96.715C180.488,188,200.334,149.662,255.992,149.662z"/>
</svg>
