<?xml version="1.0" encoding="utf-8"?>
<!-- Generator: Adobe Illustrator 16.0.4, SVG Export Plug-In . SVG Version: 6.00 Build 0)  -->
<!DOCTYPE svg PUBLIC "-//W3C//DTD SVG 1.1//EN" "http://www.w3.org/Graphics/SVG/1.1/DTD/svg11.dtd">
<svg version="1.1" id="Layer_1" xmlns="http://www.w3.org/2000/svg" xmlns:xlink="http://www.w3.org/1999/xlink" x="0px" y="0px"
	 width="512px" height="512px" viewBox="0 0 512 512" enable-background="new 0 0 512 512" xml:space="preserve">
<path d="M255.997,0C114.84,0,0,114.84,0,255.997c0,53.701,16.443,105.104,47.557,148.658l28.02,28.159H19.914v24.091h98.606v-98.604
	h-24.09v59.395l-27.842-27.847C38.782,350.578,24.09,304.318,24.09,255.997c0-127.873,104.034-231.906,231.906-231.906
	c127.876,0,231.914,104.034,231.914,231.906c0,127.876-104.037,231.914-231.914,231.914V512C397.157,512,512,397.157,512,255.997
	C512,114.84,397.157,0,255.997,0z M281.012,429.951c24.231,0,39.1-14.201,54.83-29.233c21.455-20.482,70.224-69.705,80.543-83.201
	c15.629-20.451,18.664-41.028,9.285-62.919c-8.579-20-28.411-38.716-49.364-46.568c-22.239-8.332-45.757-2.611-65.438,16.162
	c-9.277,9.289-18.609,18.503-27.98,27.752c-19.252,18.993-39.163,38.636-59.018,59.472c-19.162,21.078-23.78,46.909-12.673,70.882
	c4.917,10.562,24.286,39.391,54.479,45.914C271.014,429.371,276.174,429.951,281.012,429.951z M233.043,372.149
	c-7.03-15.174-4.039-30.567,8.454-44.322c19.407-20.355,39.186-39.867,58.304-58.733c9.418-9.298,18.797-18.551,27.901-27.675
	c6.258-5.967,16.239-13.08,28.237-13.08c3.921,0,7.929,0.758,11.912,2.25c14.711,5.514,29.712,19.605,35.672,33.5
	c5.969,13.92,4.148,25.157-6.272,38.794c-8.626,11.276-54.979,58.392-78.05,80.419c-19,18.146-28.441,25.674-48.438,21.368
	C249.919,400.16,235.702,377.858,233.043,372.149z M317.398,336.163c4.822,0,9.543-1.952,12.971-5.371
	c7.184-7.184,7.184-18.429,0-25.61c-7.065-7.065-18.781-7.081-25.705-0.135c-3.49,3.482-5.419,8.077-5.419,12.939
	c-0.009,4.838,1.913,9.426,5.402,12.915C308.035,334.297,312.567,336.163,317.398,336.163z M313.352,313.744
	c1.082-1.075,2.519-1.671,4.047-1.671c1.576,0,3.146,0.651,4.281,1.796c1.035,1.035,1.654,2.58,1.654,4.142
	c-0.008,1.553-0.611,3.051-1.64,4.068c-2.055,2.078-6.375,2.118-8.358,0.134C311.085,319.962,311.085,316.01,313.352,313.744z
	 M228.209,253.193l0.455-1.075c3.818-10.401,4.184-21.964,1.392-33.551c10.634,1.749,18.221-0.601,22.186-1.831
	c21.009-5.913,52.462-32.943,53.937-61.825c0.604-11.7-1.475-21.326-6.752-31.214c-13.841-25.968-35.202-40.648-60.143-41.338
	c-13.48-0.354-24.945,3.375-37.366,12.41c-2.432,1.771-3.267,2.384-5.521,4.355l-9.077,7.92l15.845,18.15l9.072-7.924
	c1.572-1.373,2.16-1.788,4.16-3.247c7.822-5.687,14.131-7.822,22.212-7.583c20.4,0.563,32.774,15.855,39.565,28.587
	c3.216,6.046,4.329,11.269,3.944,18.648c-0.847,16.59-22.632,35.993-36.394,39.867l-1.355,0.408
	c-4.148,1.29-15.15,4.713-35.625-13.257l-16.833,17.182c13.468,14.731,18.922,32.069,14.326,45.412
	c-5.982,12.097-16.844,23.796-30.649,32.994c-11.994,7.976-23.432,8.729-36.001,2.368c-12.998-6.587-22.852-16.225-29.29-28.65
	c-8.396-16.186-7.414-29.344,3.086-41.409l7.905-9.089l-18.175-15.812l-7.907,9.089c-17.104,19.655-19.279,43.275-6.297,68.306
	c8.806,17.001,22.195,30.137,39.788,39.053c8.999,4.557,18.107,6.831,27.138,6.831c11.289,0,22.451-3.554,33.101-10.635
	C201.355,288.062,218.254,273.86,228.209,253.193z"/>
</svg>
