<?xml version="1.0" encoding="utf-8"?>
<!-- Generator: Adobe Illustrator 16.0.4, SVG Export Plug-In . SVG Version: 6.00 Build 0)  -->
<!DOCTYPE svg PUBLIC "-//W3C//DTD SVG 1.1//EN" "http://www.w3.org/Graphics/SVG/1.1/DTD/svg11.dtd">
<svg version="1.1" id="Layer_1" xmlns="http://www.w3.org/2000/svg" xmlns:xlink="http://www.w3.org/1999/xlink" x="0px" y="0px"
	 width="512px" height="512px" viewBox="0 0 512 512" enable-background="new 0 0 512 512" xml:space="preserve">
<path d="M437.008,74.992C388.654,26.635,324.361,0,255.988,0C187.611,0,123.33,26.635,74.984,74.992
	C26.63,123.342,0,187.627,0,256.004c0,68.382,26.631,132.657,74.98,181.004C123.331,485.369,187.615,512,255.996,512
	s132.665-26.631,181.012-74.992C485.362,388.654,512,324.369,512,255.996C512,187.619,485.361,123.338,437.008,74.992z M420.3,420.3
	c-43.885,43.9-102.238,68.069-164.304,68.069c-62.069,0-120.419-24.169-164.305-68.068C47.799,376.415,23.63,318.07,23.63,256.004
	c0-62.065,24.169-120.416,68.062-164.304c43.886-43.896,102.234-68.069,164.296-68.069c62.065,0,120.42,24.174,164.312,68.069
	c43.892,43.884,68.069,102.235,68.069,164.296C488.369,318.062,464.192,376.407,420.3,420.3z M287.5,141.785
	c29.284,0,35.945,15.357,36.216,16.012l22.185-8.127c-0.454-1.289-11.653-31.516-58.399-31.516
	c-51.789,0-82.708,25.031-82.708,66.954v59.077h-35.446v23.631h35.446v110.277h-35.446v23.63h35.446h11.814h110.277v-23.63h-98.462
	V267.815h51.2v-23.63h-51.2v-59.077C228.423,147.412,265.438,141.785,287.5,141.785z"/>
</svg>
