<?xml version="1.0" encoding="utf-8"?>
<!-- Generator: Adobe Illustrator 16.0.4, SVG Export Plug-In . SVG Version: 6.00 Build 0)  -->
<!DOCTYPE svg PUBLIC "-//W3C//DTD SVG 1.1//EN" "http://www.w3.org/Graphics/SVG/1.1/DTD/svg11.dtd">
<svg version="1.1" id="Layer_1" xmlns="http://www.w3.org/2000/svg" xmlns:xlink="http://www.w3.org/1999/xlink" x="0px" y="0px"
	 width="512px" height="512px" viewBox="0 0 512 512" enable-background="new 0 0 512 512" xml:space="preserve">
<path d="M306.925,498.998c-105.807,0-142.66-14.205-175.176-26.753c-25.508-9.832-47.533-18.317-101.545-18.317v-23.515
	c58.384,0,83.462,9.661,110.003,19.905c30.604,11.796,65.294,25.17,166.718,25.17c72.396,0,103.367-9.222,116.592-16.953
	c11.664-6.807,11.658-13.11,11.652-19.787c0-13.534-6.136-22.612-6.188-22.709c-2.062-3.001-2.649-6.83-1.541-10.288
	c1.104-3.45,3.719-6.252,7.138-7.515c0.178-0.066,23.715-9.109,23.715-27.783c0-15.679-15.472-22.233-16.113-22.523
	c-4.223-1.736-7.104-5.785-7.32-10.354c-0.194-4.553,2.203-8.84,6.25-10.973c0.638-0.337,17.185-9.524,17.185-27.232
	c0-18.216-18.711-25.038-18.884-25.09c-5.459-1.919-8.698-7.542-7.655-13.213c0.041-0.197,3.418-18.75,3.418-29.669
	c0-8.776-10.474-20.939-30.162-20.939c-25.508,0-45.201,3.314-70.098,7.506c-11.433,1.923-24.398,4.11-39.056,6.109
	c-22.864,3.092-34.549-5.631-40.341-13.494c-10.328-14.036-9.781-36.857,1.488-61.055l3.818-8.104
	c14.942-31.602,30.426-64.272,15.811-88.708c-5.633-9.36-19.191-17.65-26.391-16.015c-3.881,0.856-5.32,6.799-5.845,11.64
	c-7.563,71.371-45.642,101.875-76.229,126.374c-11.735,9.406-22.83,18.283-31.205,28.476c-6.912,8.415-11.324,17.798-15.986,27.725
	c-12.457,26.5-26.567,56.55-90.779,56.55v-23.528c49.279,0,57.755-18.039,69.499-43.023c4.831-10.297,10.312-21.964,19.099-32.66
	c9.938-12.082,21.958-21.702,34.673-31.887c29.997-24.032,61.011-48.872,67.543-110.521c2.579-23.867,16.249-30.361,24.177-32.105
	c19.344-4.26,41.861,10.631,51.615,26.885c21.08,35.232,2.061,75.412-14.731,110.856l-3.754,7.98
	c-7.242,15.538-8.783,30.483-3.863,37.181c3.639,4.96,11.942,4.982,18.248,4.14c14.284-1.955,26.491-4.007,38.303-6.001
	c24.953-4.199,46.526-7.835,74.006-7.835c33.147,0,53.678,23.079,53.678,44.456c0,7.762-1.278,17.981-2.365,25.173
	c10.248,6.178,25.478,19.298,25.478,42.799c0,16.711-7.742,28.898-15.344,36.807c7.688,7.029,15.344,18.101,15.344,34.275
	c0,22.922-15.928,36.891-27.486,44.018c2.304,6.081,4.375,14.215,4.375,23.819c0.01,9.032,0.025,26.915-23.303,40.556
	C412.175,492.409,370.156,498.998,306.925,498.998z"/>
</svg>
