<?xml version="1.0" encoding="utf-8"?>
<!-- Generator: Adobe Illustrator 16.0.4, SVG Export Plug-In . SVG Version: 6.00 Build 0)  -->
<!DOCTYPE svg PUBLIC "-//W3C//DTD SVG 1.1//EN" "http://www.w3.org/Graphics/SVG/1.1/DTD/svg11.dtd">
<svg version="1.1" id="Layer_1" xmlns="http://www.w3.org/2000/svg" xmlns:xlink="http://www.w3.org/1999/xlink" x="0px" y="0px"
	 width="64px" height="64px" viewBox="0 0 64 64" enable-background="new 0 0 64 64" xml:space="preserve">
<g>
	<path fill="none" stroke="#000000" stroke-width="1.8899" stroke-miterlimit="10" d="M23.242,9.405c6.521,0,13.042,0,19.566,0
		c2.053,0,2.055,0.001,2.055,1.983c0,1.805,0,3.612,0,5.418c0,1.973,0.002,1.973,1.904,1.975c2.908,0.001,5.818-0.008,8.729,0.003
		c1.941,0.007,2.302,0.356,2.309,2.264c0.014,3.06,0.092,6.125-0.033,9.18c-0.062,1.513,0.457,1.991,1.863,1.767
		c0.293-0.047,0.602,0.01,0.902-0.006c0.714-0.041,0.964,0.311,0.963,0.997c-0.014,5.619-0.014,11.238-0.002,16.856
		c0.001,0.64-0.26,0.912-0.896,0.886c-0.602-0.023-0.207-0.045-0.806,0.008c-1.463,0-1.963-1.153-2.269-1.954
		c-1.394-4.14-4.736-6.548-9.055-6.577c-4.234-0.03-7.473,2.545-9.176,6.463c-0.547,1.165-0.464,2.076-2.488,2.076
		c-4.312-0.035-6.627-0.031-10.941-0.004c-1.367,0-1.701-1.073-2.201-2.073c-1.583-4-4.814-6.37-8.771-6.455
		c-4.159-0.088-7.395,2.121-9.335,6.082c-0.477,0.873-0.394,2.354-1.765,2.354c-0.983,0.127-0.998,0.047-1.997,0
		c-0.274-0.013-0.341-0.325-0.349-0.588c-0.011-0.3-0.016-0.601-0.016-0.901c0-12.695,0.019-25.388-0.028-38.081
		C1.4,9.775,1.718,9.359,3.073,9.373C9.795,9.442,16.519,9.405,23.242,9.405z M43.863,28.199c0,1.2,0.048,2.402-0.016,3.598
		c-0.05,0.918,0.282,1.227,1.198,1.205c2.247-0.049,4.498-0.061,6.746,0.003c1.089,0.031,1.37-0.421,1.349-1.424
		c-0.052-2.297-0.059-4.599,0.004-6.896c0.025-1.017-0.36-1.277-1.315-1.249c-2.099,0.06-4.205,0.118-6.295-0.016
		c-1.462-0.096-1.812,0.471-1.688,1.781C43.938,26.193,43.863,27.199,43.863,28.199z"/>
	<path fill="none" stroke="#000000" stroke-width="1.8899" stroke-miterlimit="10" d="M8.971,53.438
		c0.031-3.071,2.536-5.59,5.532-5.56c3.155,0.031,5.73,2.663,5.666,5.79c-0.063,3.055-2.712,5.607-5.758,5.551
		C11.287,59.159,8.939,56.664,8.971,53.438z"/>
	<path fill="none" stroke="#000000" stroke-width="1.8899" stroke-miterlimit="10" d="M53.957,53.582
		c0.004,3.204-2.398,5.67-5.523,5.668c-3.082-0.002-5.636-2.523-5.672-5.604c-0.039-3.129,2.41-5.578,5.598-5.595
		C51.626,48.036,53.953,50.334,53.957,53.582z"/>
</g>
</svg>
