<?xml version="1.0" encoding="utf-8"?>
<!-- Generator: Adobe Illustrator 16.0.4, SVG Export Plug-In . SVG Version: 6.00 Build 0)  -->
<!DOCTYPE svg PUBLIC "-//W3C//DTD SVG 1.1//EN" "http://www.w3.org/Graphics/SVG/1.1/DTD/svg11.dtd">
<svg version="1.1" id="Layer_1" xmlns="http://www.w3.org/2000/svg" xmlns:xlink="http://www.w3.org/1999/xlink" x="0px" y="0px"
	 width="512px" height="512px" viewBox="0 0 512 512" enable-background="new 0 0 512 512" xml:space="preserve">
<path d="M269.944,480.791L0,210.85V31.209h179.642L449.58,301.152L269.944,480.791z M23.407,201.158L269.944,447.69l146.539-146.538
	L169.949,54.616H23.407V201.158L23.407,201.158z M340.637,472.514l-16.55-16.55L478.9,301.152L228.94,51.187l16.549-16.55
	L512,301.152L340.637,472.514z M113.134,195.058c-27.963,0-50.715-22.751-50.715-50.715s22.752-50.716,50.715-50.716
	c27.965,0,50.716,22.752,50.716,50.716C163.85,172.306,141.099,195.058,113.134,195.058z M113.134,117.035
	c-15.056,0-27.308,12.252-27.308,27.309c0,15.056,12.252,27.309,27.308,27.309c15.057,0,27.31-12.252,27.31-27.309
	C140.444,129.286,128.191,117.035,113.134,117.035z"/>
</svg>
