<?xml version="1.0" encoding="utf-8"?>
<!-- Generator: Adobe Illustrator 16.0.4, SVG Export Plug-In . SVG Version: 6.00 Build 0)  -->
<!DOCTYPE svg PUBLIC "-//W3C//DTD SVG 1.1//EN" "http://www.w3.org/Graphics/SVG/1.1/DTD/svg11.dtd">
<svg version="1.1" id="Layer_1" xmlns="http://www.w3.org/2000/svg" xmlns:xlink="http://www.w3.org/1999/xlink" x="0px" y="0px"
	 width="512px" height="512px" viewBox="0 0 512 512" enable-background="new 0 0 512 512" xml:space="preserve">
<path d="M490.564,234.608l-38.648-51.523c-9.149-11.037-23.691-24.197-41.061-24.197h-89.003l0.719,221.24h29.883
	c5.387,26.456,28.83,46.425,56.854,46.425c28.021,0,51.463-19.965,56.854-46.416h9.682c15.781,0,30.158-14.377,30.158-30.167
	v-73.794C505.999,256.789,492.287,237.018,490.564,234.608z M450.025,219.226l21.812,29.086c2.319,3.249,8.15,12.956,10.213,21.969
	h-89.765c-2.862,0-6.958-4.095-6.958-6.957v-37.136c0-3.684,3.891-6.962,6.958-6.962H450.025z M409.306,403.344
	c-19.196,0-34.812-15.616-34.812-34.812c0-19.197,15.615-34.812,34.812-34.812c19.197,0,34.812,15.614,34.812,34.812
	C444.118,387.727,428.503,403.344,409.306,403.344z M482.791,349.969c0,3.061-3.898,6.958-6.95,6.958h-9.682
	c-5.393-26.452-28.832-46.416-56.854-46.416c-28.019,0-51.458,19.961-56.851,46.408h-6.752l-0.567-174.824h65.72
	c6.089,0,14.015,5.189,21.621,13.923h-40.19c-16.069,0-30.166,14.097-30.166,30.17v37.136c0,15.789,14.376,30.166,30.166,30.166
	h90.506V349.969z M314.154,116.34c0-16.637-18.229-30.893-33.149-30.893H6.003L5.999,380.128h66.409
	c5.387,26.456,28.83,46.425,56.854,46.425c28.021,0,51.462-19.965,56.854-46.416h128.711L314.154,116.34z M129.263,403.344
	c-19.197,0-34.812-15.616-34.812-34.812c0-19.197,15.615-34.812,34.812-34.812s34.812,15.614,34.812,34.812
	C164.075,387.727,148.459,403.344,129.263,403.344z M186.115,356.927c-5.391-26.452-28.832-46.416-56.854-46.416
	c-28.019,0-51.459,19.961-56.852,46.408H29.207l0.003-248.265h251.794c3.928,0,9.771,5.349,9.94,7.713l0.616,240.559
	L186.115,356.927L186.115,356.927z"/>
</svg>
