<?xml version="1.0" encoding="utf-8"?>
<!-- Generator: Adobe Illustrator 16.0.4, SVG Export Plug-In . SVG Version: 6.00 Build 0)  -->
<!DOCTYPE svg PUBLIC "-//W3C//DTD SVG 1.1//EN" "http://www.w3.org/Graphics/SVG/1.1/DTD/svg11.dtd">
<svg version="1.1" id="Ebene_1" xmlns="http://www.w3.org/2000/svg" xmlns:xlink="http://www.w3.org/1999/xlink" x="0px" y="0px"
	 width="512px" height="512px" viewBox="0 0 512 512" enable-background="new 0 0 512 512" xml:space="preserve">
<path d="M512,97.213c-18.854,8.342-39.057,14.012-60.295,16.546c21.682-12.989,38.308-33.599,46.198-58.072
	c-20.322,12.034-42.815,20.772-66.748,25.502c-19.157-20.448-46.433-33.186-76.647-33.186c-58.036,0-105.047,47.052-105.047,105.024
	c0,8.229,0.928,16.253,2.716,23.923c-87.292-4.372-164.696-46.2-216.497-109.741c-9.037,15.479-14.212,33.531-14.212,52.79
	c0,36.459,18.562,68.612,46.726,87.424c-17.232-0.578-33.418-5.315-47.573-13.19v1.306c0,50.896,36.207,93.328,84.229,103.02
	c-8.787,2.379-18.061,3.695-27.656,3.695c-6.798,0-13.355-0.69-19.797-1.903c13.389,41.715,52.17,72.1,98.121,72.96
	c-35.938,28.166-81.245,44.922-130.446,44.922c-8.485,0-16.844-0.49-25.071-1.415c46.493,29.766,101.685,47.181,161.007,47.181
	c193.212,0,298.839-160.08,298.839-298.879l-0.338-13.601C480.097,136.763,497.937,118.264,512,97.213z"/>
</svg>
