<?xml version="1.0" encoding="utf-8"?>
<!-- Generator: Adobe Illustrator 16.0.4, SVG Export Plug-In . SVG Version: 6.00 Build 0)  -->
<!DOCTYPE svg PUBLIC "-//W3C//DTD SVG 1.1//EN" "http://www.w3.org/Graphics/SVG/1.1/DTD/svg11.dtd">
<svg version="1.1" id="Layer_1" xmlns="http://www.w3.org/2000/svg" xmlns:xlink="http://www.w3.org/1999/xlink" x="0px" y="0px"
	 width="512px" height="512px" viewBox="0 0 512 512" enable-background="new 0 0 512 512" xml:space="preserve">
<path d="M308.194,512L0,203.806V-0.001h203.808L512,308.193L308.194,512z M23.407,194.114L308.194,478.9l170.707-170.707
	L194.115,23.407H23.407V194.114z M136.541,195.059c-32.269,0-58.518-26.249-58.518-58.518c0-32.27,26.25-58.519,58.518-58.519
	c32.269,0,58.519,26.25,58.519,58.519C195.06,168.809,168.811,195.059,136.541,195.059z M136.541,101.43
	c-19.36,0-35.11,15.75-35.11,35.111c0,19.36,15.75,35.11,35.11,35.11c19.361,0,35.111-15.75,35.111-35.11
	C171.653,117.18,155.903,101.43,136.541,101.43z"/>
</svg>
