<?xml version="1.0" encoding="utf-8"?>
<!-- Generator: Adobe Illustrator 16.0.4, SVG Export Plug-In . SVG Version: 6.00 Build 0)  -->
<!DOCTYPE svg PUBLIC "-//W3C//DTD SVG 1.1//EN" "http://www.w3.org/Graphics/SVG/1.1/DTD/svg11.dtd">
<svg version="1.1" id="Layer_2" xmlns="http://www.w3.org/2000/svg" xmlns:xlink="http://www.w3.org/1999/xlink" x="0px" y="0px"
	 width="512px" height="512px" viewBox="0 0 512 512" enable-background="new 0 0 512 512" xml:space="preserve">
<path d="M142.455,494.541l-25.022-13.757L372.823,16l25.021,13.747L142.455,494.541z M121.96,305.645
	c-49.525,0-89.818-39.157-89.818-87.296V104.611c0-48.126,40.292-87.286,89.818-87.286c49.532,0,89.829,39.159,89.829,87.286V218.35
	C211.788,266.486,171.492,305.645,121.96,305.645z M121.96,45.879c-33.781,0-61.266,26.347-61.266,58.733V218.35
	c0,32.392,27.484,58.741,61.266,58.741c33.787,0,61.275-26.351,61.275-58.741V104.611C183.235,72.224,155.747,45.879,121.96,45.879z
	 M390.045,496c-49.521,0-89.814-39.158-89.814-87.296V294.975c0-48.138,40.295-87.296,89.814-87.296
	c49.523,0,89.814,39.158,89.814,87.296v113.729C479.86,456.842,439.569,496,390.045,496z M390.045,236.232
	c-33.775,0-61.262,26.351-61.262,58.743v113.729c0,32.391,27.486,58.741,61.262,58.741s61.264-26.352,61.264-58.741V294.975
	C451.309,262.583,423.823,236.232,390.045,236.232z"/>
</svg>
