<?xml version="1.0" encoding="utf-8"?>
<!-- Generator: Adobe Illustrator 16.0.4, SVG Export Plug-In . SVG Version: 6.00 Build 0)  -->
<!DOCTYPE svg PUBLIC "-//W3C//DTD SVG 1.1//EN" "http://www.w3.org/Graphics/SVG/1.1/DTD/svg11.dtd">
<svg version="1.1" id="Layer_1" xmlns="http://www.w3.org/2000/svg" xmlns:xlink="http://www.w3.org/1999/xlink" x="0px" y="0px"
	 width="512px" height="512px" viewBox="0 0 512 512" enable-background="new 0 0 512 512" xml:space="preserve">
<path d="M178.468,409.633c-0.619,30.166-26.599,55.643-56.722,55.643l-1.01-0.008c-31.036-0.596-55.092-25.988-54.774-57.816
	c0.309-30.785,25.115-55.828,55.301-55.828c15.904,0.154,30.312,6.369,41.107,17.496
	C173.063,380.14,178.778,394.527,178.468,409.633z M389.919,352.994c-15.562,0.084-29.935,6.035-40.458,16.762
	c-10.331,10.51-15.911,24.578-15.727,39.605c0.364,30.939,25.855,56.131,56.826,56.152h0.039c14.943,0,28.857-5.695,39.188-16.041
	c10.618-10.635,16.453-25.113,16.438-40.777C446.189,376.418,422.639,352.994,389.919,352.994z M505.984,379.049
	c0.008,5.811-1.718,10.494-5.131,13.914c-2.29,2.299-6.454,5.039-13.233,5.039l-1.099-0.023c-1.455-0.061-2.298-0.117-2.848-0.162
	l-3.064,0.23c-20.261,0-26.899-17.418-29.083-23.146c-9.519-28.215-31.597-44.258-60.726-44.459
	c-27.249,0-49.567,16.059-61.74,44.064c-0.789,1.695-1.3,3.018-1.78,4.264c-3.8,9.791-9.162,19.34-28.834,19.34h-0.102
	c-34.093-0.285-52.411-0.256-86.531-0.029c-17.161,0-23.267-12.809-26.916-20.455l-1.652-3.488
	c-10.752-27.164-32.149-43.076-58.71-43.641l-1.633-0.023c-33.934,0-52.124,22.605-61.411,41.566
	c-0.727,1.354-1.296,3.211-1.799,4.859c-1.842,6.014-6.109,19.959-22.013,20.438c-6.361,0.797-8.369,0.627-12.444,0.311
	c-1.242-0.094-2.73-0.209-4.79-0.311c-6.798-0.34-13.767-5.471-14.088-16.174c-0.09-2.445-0.132-4.977-0.132-7.498l0.016-67.268
	c0.027-78.161,0.051-156.311-0.239-234.465c-0.024-6.427,0.691-13.744,6.175-19.25c5.534-5.552,13.156-6.195,18.411-6.195
	c26.234,0.268,51.831,0.333,77.427,0.333l237.979-0.077c22.906,0,28.169,5.157,28.169,27.604v42.935c0,1.243,0,2.548,0.017,3.75
	c1.037,0.009,2.143,0.013,3.204,0.013l41.549-0.021c9.216,0,18.434,0.013,27.651,0.047c21.885,0.077,30.058,8.149,30.135,29.783
	c0.023,5.809,0.085,11.632,0.139,17.451c0.171,18.264,0.349,37.147-0.41,55.828c-0.021,0.515-0.026,0.958-0.025,1.368h12.08v0.212
	c6.104,0.296,9.968,2.893,12.16,5.094c3.554,3.556,5.349,8.505,5.34,14.711C505.891,290.037,505.891,334.551,505.984,379.049z
	 M374,144.761V225.5h78.636c0.001-0.814,0.021-1.598,0.052-2.338c0.744-18.082,0.566-36.663,0.396-54.628
	c-0.055-5.863-0.117-11.726-0.14-17.583c-0.008-2.944-0.146-4.729-0.287-5.797c-1.113-0.15-3.002-0.298-6.158-0.31
	c-9.194-0.035-18.38-0.046-27.566-0.046l-41.572,0.019C376.19,144.815,375.076,144.796,374,144.761z M482.219,249.403L482.013,249
	H350.5v-3.25V225.5V122.231c-0.072-1.552-0.11-3.192-0.11-4.949V74.347c0-1.266,0-2.593-0.016-3.812
	c-1.386-0.02-2.926-0.02-4.381-0.02l-237.979,0.077c-25.677,0-51.355-0.066-77.028-0.329c-0.572-0.016-0.843,0.003-1.188,0.015
	c-0.016,0.441-0.027,0.96-0.023,1.567c0.29,78.182,0.268,156.367,0.24,234.558L30,373.664c0,0.154,0,0.301,0,0.457
	c1.374,0.037,2.794-0.117,5.305-0.441l0.434-0.062c0.414-1.045,0.878-2.562,1.224-3.678c0.835-2.73,1.778-5.826,3.424-8.836
	c17.088-34.91,46.479-54.404,82.519-54.404l2.141,0.023c35.916,0.773,65.846,22.543,80.143,58.25l1.172,2.422
	c3.297,6.91,3.737,6.91,5.382,6.91c17.049-0.107,30.204-0.17,43.36-0.17c13.149,0,26.297,0.061,43.392,0.201
	c4.057-0.008,5.271-0.619,5.286-0.619c0.046-0.217,0.797-2.145,1.338-3.553c0.675-1.719,1.387-3.543,2.283-5.447
	c15.981-36.775,46.247-58.049,82.892-58.049c39.985,0.27,70.994,22.773,83.608,60.207c2.516,6.58,4.024,7.322,6.237,7.391l1.115-0.1
	c0.363-0.031,0.673-0.062,0.936-0.078C482.118,332.353,482.127,290.875,482.219,249.403z"/>
</svg>
