<?xml version="1.0" encoding="utf-8"?>
<!-- Generator: Adobe Illustrator 16.0.4, SVG Export Plug-In . SVG Version: 6.00 Build 0)  -->
<!DOCTYPE svg PUBLIC "-//W3C//DTD SVG 1.1//EN" "http://www.w3.org/Graphics/SVG/1.1/DTD/svg11.dtd">
<svg version="1.1" id="Layer_1" xmlns="http://www.w3.org/2000/svg" xmlns:xlink="http://www.w3.org/1999/xlink" x="0px" y="0px"
	 width="512px" height="512px" viewBox="0 0 512 512" enable-background="new 0 0 512 512" xml:space="preserve">
<path d="M501.865,265.349l-25.021-39.479l14.883-44.398c3.984-12.093-1.125-25.472-12.131-31.809l-40.523-23.37l-7.467-46.221
	c-2.106-12.549-12.836-22.025-25.522-22.537l-46.728-1.837L331.32,18.294c-7.439-9.938-22.045-13.479-33.105-8.153l-42.221,20.083
	l-42.206-20.072c-11.247-5.383-25.606-1.849-33.138,8.139l-28.037,37.408l-46.725,1.837C93.149,58.051,82.426,67.562,80.387,80.16
	l-7.445,46.145l-40.52,23.361c-11.05,6.368-16.143,19.767-12.101,31.874l14.868,44.33l-25.053,39.494
	c-6.809,10.797-5.065,25.027,4.139,33.841l33.749,32.348l-3.81,46.606c-1.027,12.705,7.104,24.503,19.363,28.068l44.919,12.944
	l18.27,43.033c4.255,9.969,13.953,16.418,24.708,16.41c1.875,0,3.755-0.193,5.464-0.566l45.854-9.377l36.179,29.615
	c4.807,3.915,10.855,6.07,17.037,6.07c6.188,0,12.239-2.155,17.061-6.094l36.152-29.595l45.74,9.349
	c12.379,2.696,25.324-4.115,30.283-15.836l18.245-43.013l44.968-12.952c12.237-3.559,20.36-15.371,19.313-28.066l-3.805-46.602
	l33.758-32.348C506.919,290.392,508.678,276.169,501.865,265.349z M481.246,282.013l-41.929,40.189l4.723,57.901
	c0.124,1.474-0.813,2.838-2.201,3.24l-55.833,16.092l-22.68,53.453c-0.488,1.146-1.659,2.008-3.458,1.83l-56.973-11.645
	l-44.892,36.75c-1.457,1.193-2.55,1.178-3.969,0.016l-44.919-36.765l-57.643,11.729c-1.183,0-2.307-0.773-2.795-1.923
	l-22.696-53.444l-55.78-16.084c-1.428-0.41-2.373-1.791-2.252-3.265l4.731-57.887l-41.935-40.197
	c-1.065-1.022-1.268-2.675-0.488-3.905l31.114-49.051l-18.468-55.064c-0.466-1.396,0.124-2.946,1.411-3.687l50.329-29.021
	l9.251-57.316c0.236-1.465,1.478-2.569,2.938-2.628l58.042-2.287l34.808-46.448c0.867-1.151,2.464-1.616,3.853-0.954l52.457,24.951
	l52.5-24.976c1.286-0.612,2.914-0.194,3.766,0.954l34.836,46.473l58.043,2.287c1.479,0.059,2.735,1.19,2.978,2.612l9.254,57.325
	l50.345,29.024c1.278,0.736,1.869,2.307,1.419,3.67l-18.474,55.083l31.074,49.012C482.525,279.323,482.324,280.981,481.246,282.013z
	 M232.182,231.863c1.779-5.643,2.381-8.918,2.381-30.296c0-21.39-0.595-24.661-2.381-30.304
	c-4.74-13.965-17.224-22.866-34.147-22.866c-16.93,0-29.413,8.901-34.168,22.866c-1.764,5.65-2.364,8.905-2.364,30.304
	c0,21.4,0.593,24.654,2.364,30.296c4.754,13.963,17.229,22.877,34.167,22.869C214.958,254.732,227.426,245.826,232.182,231.863z
	 M181.984,227.118c-0.88-2.977-1.492-7.135-1.492-25.552c0-18.414,0.604-22.58,1.492-25.548c2.375-6.845,8.32-10.398,16.041-10.398
	c7.725,0,13.669,3.569,16.033,10.398c0.892,2.976,1.492,7.135,1.492,25.548c0,18.417-0.601,22.576-1.492,25.552
	c-2.372,6.833-8.316,10.398-16.033,10.398C190.297,237.518,184.352,233.945,181.984,227.118z M311.501,249.105
	c-16.944,0-29.409,8.914-34.167,22.862c-1.771,5.657-2.374,8.912-2.374,30.308c0,21.363,0.604,24.647,2.374,30.277
	c4.758,13.988,17.223,22.896,34.167,22.896c16.929,0,29.408-8.922,34.15-22.896c1.768-5.63,2.363-8.914,2.363-30.277
	c0-21.396-0.58-24.664-2.363-30.307C340.925,258.019,328.43,249.105,311.501,249.105z M327.546,327.808
	c-2.371,6.853-8.325,10.4-16.037,10.4c-7.729,0-13.681-3.55-16.038-10.4c-0.884-2.961-1.479-7.146-1.479-25.55
	c0-18.415,0.58-22.579,1.479-25.538c2.342-6.854,8.293-10.41,16.038-10.41c7.712,0,13.666,3.563,16.037,10.41
	c0.884,2.959,1.479,7.123,1.479,25.538C329.025,320.677,328.43,324.847,327.546,327.808z M322.197,147.505h-14.27
	c-2.373,0-3.574,0.899-4.768,2.97L185.844,353.062c-0.892,1.479,0,2.961,1.787,2.961h14.254c2.085,0,3.279-0.883,4.461-2.961
	l117.34-202.588C324.584,148.997,324.012,147.505,322.197,147.505z"/>
</svg>
