<?xml version="1.0" encoding="utf-8"?>
<!-- Generator: Adobe Illustrator 16.0.4, SVG Export Plug-In . SVG Version: 6.00 Build 0)  -->
<!DOCTYPE svg PUBLIC "-//W3C//DTD SVG 1.1//EN" "http://www.w3.org/Graphics/SVG/1.1/DTD/svg11.dtd">
<svg version="1.1" id="Ebene_1" xmlns="http://www.w3.org/2000/svg" xmlns:xlink="http://www.w3.org/1999/xlink" x="0px" y="0px"
	 width="512px" height="512px" viewBox="0 0 512 512" enable-background="new 0 0 512 512" xml:space="preserve">
<path d="M426.668,0H85.342C40.483,0,0.005,40.495,0.005,85.337v341.317c0,44.846,40.479,85.345,85.337,85.345h170.651V318.584
	h-62.572v-85.337h62.572v-33.245c0-57.346,43.062-108.974,95.998-108.974h68.975v85.329H351.99c-7.549,0-16.348,9.166-16.348,22.891
	v33.999h85.322v85.337h-85.322V512h91.023c44.846,0,85.33-40.499,85.33-85.345V85.338C511.996,40.496,471.514,0,426.668,0z"/>
</svg>
