<?xml version="1.0" encoding="utf-8"?>
<!-- Generator: Adobe Illustrator 16.0.4, SVG Export Plug-In . SVG Version: 6.00 Build 0)  -->
<!DOCTYPE svg PUBLIC "-//W3C//DTD SVG 1.1//EN" "http://www.w3.org/Graphics/SVG/1.1/DTD/svg11.dtd">
<svg version="1.1" xmlns="http://www.w3.org/2000/svg" xmlns:xlink="http://www.w3.org/1999/xlink" x="0px" y="0px" width="64px"
	 height="64px" viewBox="0 0 64 64" enable-background="new 0 0 64 64" xml:space="preserve">
<g id="fb-like">
	<path d="M61.422,30.094c-1.837-4.452-5.31-6.713-10.324-6.713c0,0-3.29,0-6.009,0c1.015-2.291,2.147-5.616,2.147-9.621
		c0-1.098-0.087-2.237-0.296-3.396c-0.788-4.655-3.975-7.131-8.501-6.635c-1.794,0.206-2.408,1.903-3.895,6.021
		c-1.231,3.412-2.92,8.087-5.37,11.845c-1.801,2.762-5.01,4.941-7.705,6.284v-0.342H1.632v29.409h19.84v-1.62
		c3.124-0.152,4.899-0.064,5.314,0.07l3.552,2.058l2.653,1.65c2.577,1.388,13.854,1.52,18.689,0.804
		c6.216-0.904,7.718-5.986,7.781-6.208C59.948,52.013,64.228,36.886,61.422,30.094z M55.713,52.63
		c-0.035,0.112-0.941,2.898-4.6,3.422c-5.203,0.771-14.853,0.304-16.283-0.376c0.011,0.007-2.353-1.474-2.353-1.474l-4.459-2.499
		c-1.035-0.346-3.38-0.387-6.546-0.244V32.087c3.196-1.289,8.146-4.059,10.969-8.369c2.7-4.135,4.477-9.053,5.775-12.65
		c0,0,1.146-2.843,1.42-3.501c1.977,0.01,3.065,1.095,3.473,3.444c0.16,0.919,0.224,1.833,0.224,2.715
		c0,5.828-3.001,10.468-3.045,10.526l-1.978,3.009l12.788,0.005c3.419,0,5.49,1.328,6.723,4.309
		C59.76,36.269,56.945,48.371,55.713,52.63z"/>
</g>
<g id="twitter">
</g>
</svg>
