<?xml version="1.0" encoding="utf-8"?>
<!-- Generator: Adobe Illustrator 16.0.4, SVG Export Plug-In . SVG Version: 6.00 Build 0)  -->
<!DOCTYPE svg PUBLIC "-//W3C//DTD SVG 1.1//EN" "http://www.w3.org/Graphics/SVG/1.1/DTD/svg11.dtd">
<svg version="1.1" id="Ebene_1" xmlns="http://www.w3.org/2000/svg" xmlns:xlink="http://www.w3.org/1999/xlink" x="0px" y="0px"
	 width="512px" height="512px" viewBox="-224 -224 512 512" enable-background="new -224 -224 512 512" xml:space="preserve">
<path d="M274.207,16.308c-15.122-36.651-43.718-55.267-84.992-55.267c0,0-27.076,0-49.466,0c8.353-18.86,17.679-46.23,17.679-79.199
	c0-9.041-0.724-18.418-2.444-27.961c-6.479-38.319-32.72-58.703-69.974-54.619c-14.776,1.696-19.825,15.665-32.069,49.566
	C42.804-123.082,28.903-84.598,8.733-53.658C-6.092-30.923-32.509-12.983-54.693-1.929v-2.814H-218v242.096h163.331v-13.33
	c25.718-1.254,40.329-0.53,43.746,0.579l29.239,16.939l21.843,13.577c21.215,11.433,114.053,12.519,153.847,6.626
	c51.18-7.445,63.544-49.281,64.058-51.107C262.075,196.754,297.312,72.225,274.207,16.308z M227.208,201.826
	c-0.289,0.925-7.749,23.852-37.864,28.179c-42.833,6.334-122.278,2.491-134.047-3.104c0.088,0.064-19.371-12.131-19.371-12.131
	l-36.707-20.573c-8.522-2.846-27.824-3.184-53.888-2.009V32.711C-28.36,22.1,12.391-0.703,35.629-36.181
	c22.225-34.042,36.855-74.528,47.539-104.141c0,0,9.432-23.402,11.697-28.821c16.272,0.085,25.229,9.016,28.588,28.355
	c1.319,7.565,1.842,15.09,1.842,22.349c0,47.979-24.705,86.173-25.067,86.652L83.948-7.014l105.267,0.04
	c28.153,0,45.197,10.934,55.343,35.474C260.524,67.144,237.354,166.768,227.208,201.826z"/>
</svg>
