<?xml version="1.0" encoding="utf-8"?>
<!-- Generator: Adobe Illustrator 16.0.4, SVG Export Plug-In . SVG Version: 6.00 Build 0)  -->
<!DOCTYPE svg PUBLIC "-//W3C//DTD SVG 1.1//EN" "http://www.w3.org/Graphics/SVG/1.1/DTD/svg11.dtd">
<svg version="1.1" id="Layer_1" xmlns="http://www.w3.org/2000/svg" xmlns:xlink="http://www.w3.org/1999/xlink" x="0px" y="0px"
	 width="512px" height="512px" viewBox="0 0 512 512" enable-background="new 0 0 512 512" xml:space="preserve">
<path fill="#FFFFFF" d="M512,254.996c0-141.159-114.842-256-256-256c-141.159,0-256,114.841-256,256
	c0,86.145,42.816,162.436,108.246,208.854c0.224,0.162,0.452,0.315,0.679,0.479c2.421,1.705,4.869,3.375,7.353,5.005
	c1.668,1.096,3.353,2.178,5.055,3.241c1.332,0.826,2.672,1.646,4.021,2.447c2.532,1.516,5.098,2.998,7.698,4.434
	c0.691,0.38,1.387,0.759,2.082,1.13c38.053,20.569,82.728,32.418,126.6,32.418c19.298,0,39.36-4.07,58.729-10.248
	C430.513,474.105,512,373.89,512,254.996z M256,22.719c128.076,0,232.275,104.198,232.275,232.274
	c0,63.039-25.274,120.255-66.188,162.148c-16.805-12.17-36.704-20.086-54.599-27.146c-22.355-8.826-43.509-17.182-49.641-30.729
	c-0.941-11.312-0.864-20.162-0.771-30.326c0.009-1.365,0.023-2.756,0.03-4.162c9.623-10.016,18.334-29.871,21.738-46.457
	c7.422-4.133,16.248-13.746,18.912-36.045c1.345-11.154-1.745-19.861-6.153-25.777c6.047-20.925,17.746-72.903-3.175-106.578
	c-8.903-14.324-22.312-23.396-39.896-27.015c-10.03-12.235-28.742-18.896-53.718-18.896h-0.008
	c-37.991,0.694-65.834,12.358-82.763,34.666c-19.883,26.203-23.702,65.692-11.369,117.444c-4.567,5.923-7.822,14.77-6.46,26.159
	c2.688,22.281,11.511,31.895,18.916,36.035c3.6,17.352,12.98,36.688,22.287,46.412c0.013,1.381,0.022,2.74,0.035,4.076
	c0.085,10.217,0.163,19.098-0.776,30.473c-6.146,13.522-27.371,21.879-49.806,30.697c-17.993,7.073-38.025,14.998-54.922,27.207
	c-40.934-41.896-66.229-99.127-66.229-162.189C23.724,126.918,127.923,22.719,256,22.719z"/>
</svg>
