<?xml version="1.0" encoding="utf-8"?>
<!-- Generator: Adobe Illustrator 16.0.4, SVG Export Plug-In . SVG Version: 6.00 Build 0)  -->
<!DOCTYPE svg PUBLIC "-//W3C//DTD SVG 1.1//EN" "http://www.w3.org/Graphics/SVG/1.1/DTD/svg11.dtd">
<svg version="1.1" id="Layer_1" xmlns="http://www.w3.org/2000/svg" xmlns:xlink="http://www.w3.org/1999/xlink" x="0px" y="0px"
	 width="512px" height="512px" viewBox="0 0 512 512" enable-background="new 0 0 512 512" xml:space="preserve">
<path d="M14.946,512l0.76-12.602c1.934-32.199,14.706-57.526,39.046-77.43c21.343-17.451,47.562-27.765,70.698-36.861
	c26.587-10.461,51.648-20.323,59.661-36.621l0.518-1.052l0.094-1.167c1.055-13.1,0.967-23.361,0.866-35.245l-0.034-5.748
	l-1.584-1.743c-10.015-11.013-20.049-32.034-24.402-51.122l-0.567-2.495l-2.171-1.354c-10.713-6.679-17.625-20.592-19.988-40.241
	c-1.602-13.425,2.512-22.651,6.244-28.025l1.557-2.241l-0.62-2.659c-13.913-59.629-9.379-105.138,13.478-135.258
	C178.083,14.324,210.418,0.82,254.602,0c28.203,0.009,49.304,7.141,61.035,20.622l1.324,1.521l1.967,0.439
	c19.338,4.334,34.729,14.945,44.51,30.686c23.889,38.444,10.764,98.433,4.012,122.439l-0.768,2.729l1.578,2.354
	c3.561,5.319,7.477,14.413,5.896,27.526c-2.354,19.626-9.246,33.534-19.938,40.221l-2.188,1.369l-0.555,2.521
	c-4.285,19.497-13.861,40.029-23.828,51.091l-1.572,1.743l-0.021,5.611c-0.107,11.913-0.203,22.229,0.865,35.399l0.094,1.163
	l0.516,1.048c8.014,16.323,32.988,26.183,59.43,36.622c23.07,9.111,49.191,19.431,70.439,36.871
	c24.244,19.9,36.967,45.226,38.898,77.423L497.055,512H14.946z M208.463,354.297c-10.321,27.764-41.377,39.984-74.257,52.924
	c-39.079,15.375-79.412,31.243-91.386,73.171l-2.235,7.831l430.832-0.003l-2.223-7.824c-11.922-41.945-52.092-57.815-90.938-73.162
	c-32.807-12.95-63.76-25.168-74.092-52.938l-0.549-1.485l-0.148-1.602c-1.418-15.703-1.311-27.779-1.193-40.565l0.051-18.278
	l6.33-3.321l0.627-0.601c5.688-5.449,18-27.657,20.277-48.924l1.047-9.776l10.973-0.903l1.625-1.769
	c2.041-2.22,5.709-7.979,7.342-21.583c0.984-8.197-2.223-11.954-3.229-12.91l-0.479-0.456l-8.438-5.122l3.346-8.521l0.053-0.156
	c2.699-8.117,9.188-29.699,11.141-54.721c1.938-24.855-1.328-44.296-9.707-57.783c-7.387-11.897-18.811-18.771-34.924-21.012
	l-5.809-0.81l-2.893-5.093c-5.395-9.476-22.117-15.131-44.734-15.131l-0.114,0.001c-36.345,0.674-62.359,11.016-77.316,30.74
	c-19.195,25.292-21.625,68.366-7.021,124.566l2.222,8.551l-7.492,4.564c0,0-2.95,4.058-2.426,2.902
	c-0.508,1.104-1.993,4.337-1.275,10.388c1.646,13.637,5.315,19.384,7.356,21.596l1.625,1.76l10.964,0.901l1.045,9.781
	c2.163,20.296,14.767,43.225,20.907,48.944l0.606,0.564l6.358,3.326l0.053,18.284c0.11,12.841,0.214,24.911-1.208,40.589
	l-0.143,1.579L208.463,354.297z"/>
</svg>
