<?xml version="1.0" encoding="utf-8"?>
<!-- Generator: Adobe Illustrator 16.0.4, SVG Export Plug-In . SVG Version: 6.00 Build 0)  -->
<!DOCTYPE svg PUBLIC "-//W3C//DTD SVG 1.1//EN" "http://www.w3.org/Graphics/SVG/1.1/DTD/svg11.dtd">
<svg version="1.1" id="Layer_1" xmlns="http://www.w3.org/2000/svg" xmlns:xlink="http://www.w3.org/1999/xlink" x="0px" y="0px"
	 width="512px" height="512px" viewBox="0 0 512 512" enable-background="new 0 0 512 512" xml:space="preserve">
<path d="M261.713,512c-42.799,0-87.585-11.468-126.108-32.291c-0.69-0.369-1.383-0.746-2.07-1.125
	c-2.454-1.354-5.039-2.842-7.669-4.416c-1.347-0.8-2.68-1.614-4.007-2.438c-1.626-1.018-3.32-2.104-5.031-3.228
	c-2.417-1.587-4.879-3.263-7.323-4.983l-0.732-0.521c-32.566-23.104-59.644-53.931-78.297-89.141C11.192,337.465,1,296.363,1,255
	C1,114.392,115.393,0,256,0c140.606,0,255,114.394,255,255c0,57.516-18.772,111.84-54.289,157.104
	c-34.393,43.836-82.815,75.675-136.352,89.647l-0.156,0.041l-0.153,0.05C298.876,508.582,279.248,512,261.713,512z M217.458,365.813
	c-8.969,24.095-35.509,34.534-63.608,45.587c-12.872,5.063-26.167,10.294-38.015,16.916l-7.986,4.462l7.174,5.679
	c2.613,2.068,5.354,4.131,8.146,6.132l0.733,0.527c0.356,0.257,0.71,0.513,1.074,0.764c0.819,0.571,1.65,1.123,2.479,1.672
	l1.137,0.754c37.91,25.073,81.965,38.324,127.41,38.324c19.696,0,39.293-2.501,58.242-7.433l0.185-0.048l0.18-0.059
	c26.691-8.733,57.171-23.977,81.531-40.771l8.13-5.604l-8.637-4.786c-11.629-6.443-24.578-11.559-37.102-16.503
	c-28.026-11.061-54.5-21.508-63.461-45.621l-0.541-1.464l-0.146-1.552c-1.21-13.307-1.115-23.484-1.016-34.262l0.012-1.547
	c0.021-2.55,0.042-5.179,0.042-7.925v-7.059l6.505-3.42l0.727-0.8c3.712-4.091,13.849-21.854,15.742-39.528l1.026-9.576
	l10.539-0.896l1.619-2.608c1.485-2.39,3.473-7.044,4.502-15.638c0.354-2.933,0.07-5.438-0.839-7.444l-0.781-1.727l-8.73-5.291
	l3.056-8.762c4.743-14.275,8.209-31.514,9.3-46.197c1.497-20.18-1.244-36.533-7.928-47.29c-5.966-9.59-15.212-15.133-28.27-16.946
	l-5.702-0.795l-2.846-5.004c-4.177-7.341-18.067-11.907-36.252-11.916l-0.118,0.001c-30.125,0.568-51.631,9.066-63.918,25.258
	c-15.868,20.909-17.818,56.745-5.639,103.636l2.182,8.395l-8.103,4.935l-0.777,1.746c-0.891,2.005-1.167,4.494-0.82,7.398
	c1.052,8.707,3.074,13.355,4.587,15.723l1.625,2.543l10.574,0.911l0.912,9.553c1.74,16.293,12.014,35.398,16.808,39.978l0.625,0.597
	l6.455,3.376l-0.372,6.849v0.166c0.001,2.757,0.021,5.389,0.041,7.956l0.01,1.187c0.092,10.849,0.179,21.089-1.014,34.413
	l-0.142,1.562L217.458,365.813z M256,23.362c-127.726,0-231.638,103.912-231.638,231.636c0,58.819,22.187,114.933,62.471,158
	l3.542,3.787l4.316-2.871c16.025-10.66,34.396-17.883,50.604-24.256c21.752-8.551,42.282-16.62,49.121-29.461l0.601-1.128l0.1-1.274
	c0.836-10.746,0.765-19.244,0.683-29.083l-0.035-4.188l-1.482-1.705c-8.432-9.693-16.552-26.661-20.207-42.222l-0.547-2.325
	l-1.977-1.341c-9.033-6.125-14.861-18.097-16.854-34.618c-1.059-8.854,0.717-17.371,5-23.977l1.41-2.174l-0.58-2.524
	c-11.538-50.249-7.529-88.721,11.913-114.346c16.846-22.196,44.561-33.802,82.375-34.495h0.056c23.815,0,41.877,6.013,52.174,17.386
	l1.287,1.422l1.867,0.433c16.56,3.836,29.275,12.736,37.8,26.451c8.593,13.829,12.538,32.297,11.731,54.889
	c-0.684,19.135-4.639,36.979-7.837,48.576l-0.712,2.582l1.413,2.275c4.059,6.529,5.72,14.875,4.68,23.498
	c-1.975,16.537-7.796,28.507-16.837,34.624l-1.993,1.349l-0.541,2.345c-3.665,15.896-11.571,32.875-19.671,42.252l-1.471,1.702
	l-0.033,4.104c-0.089,9.824-0.167,18.315,0.679,29.107l0.1,1.267l0.595,1.122c6.814,12.857,27.282,20.938,48.951,29.493
	c15.239,6.013,34.192,13.488,50.292,24.196l4.317,2.871l3.542-3.788c40.26-43.056,62.431-99.152,62.431-157.956
	c0.001-61.774-24.118-119.917-67.918-163.716C375.918,47.483,317.776,23.362,256,23.362z"/>
</svg>
