<?xml version="1.0" encoding="utf-8"?>
<!-- Generator: Adobe Illustrator 16.0.4, SVG Export Plug-In . SVG Version: 6.00 Build 0)  -->
<!DOCTYPE svg PUBLIC "-//W3C//DTD SVG 1.1//EN" "http://www.w3.org/Graphics/SVG/1.1/DTD/svg11.dtd">
<svg version="1.1" id="Layer_1" xmlns="http://www.w3.org/2000/svg" xmlns:xlink="http://www.w3.org/1999/xlink" x="0px" y="0px"
	 width="512px" height="512px" viewBox="0 0 512 512" enable-background="new 0 0 512 512" xml:space="preserve">
<path d="M256,512C114.841,512,0,397.159,0,256S114.841,0,256,0c141.158,0,256,114.841,256,256S397.158,512,256,512z M256,23.425
	c-128.243,0-232.576,104.333-232.576,232.577c0,59.096,22.294,115.458,62.777,158.708l3.555,3.798l4.333-2.881
	c16.31-10.847,35.412-18.362,50.76-24.401c16.17-6.363,32.864-12.935,42.573-21.412l9.753-8.521l-12.767-2.166
	c-49.646-8.425-61.092-23.398-61.894-34.546v-0.051l-0.021-0.258c-0.03-0.36-0.05-0.728-0.05-1.085c0-3.111,1.274-6.154,3.496-8.351
	l0.285-0.28l0.246-0.315c7.022-9.021,8.092-33.085,8.837-66.098c0.8-35.497,1.796-79.667,17.146-116.269
	c8.321-19.848,20.274-35.655,35.526-46.983c17.637-13.102,40.397-20.787,67.65-22.847c0.306-0.023,0.594-0.034,0.881-0.034
	c19.828,0,32.918,5.724,40.407,10.525l1.452,0.933l1.728,0.038c17.584,0.391,32.486,5.547,44.293,15.326
	c12.195,10.103,21.339,25.335,27.176,45.275c9.391,32.095,9.371,72.185,9.354,107.555c-0.003,14.456-0.006,30.809,0.938,44.284
	c1.619,23.141,5.415,26.639,6.661,27.788c2.093,1.886,3.427,4.396,3.808,7.121l0.039,0.239c0.127,0.7,0.19,1.409,0.19,2.107
	c0,8.119-4.718,14.956-14.423,20.902c-10.831,6.636-27.501,11.814-49.549,15.395l-13.127,2.132l10.132,8.614
	c9.727,8.269,26.046,14.72,41.83,20.96c15.329,6.057,34.355,13.574,50.548,24.353l4.336,2.887l3.558-3.805
	c40.442-43.249,62.716-99.588,62.716-158.638C488.576,127.76,384.242,23.425,256,23.425z"/>
</svg>
