<?xml version="1.0" encoding="utf-8"?>
<!-- Generator: Adobe Illustrator 16.0.4, SVG Export Plug-In . SVG Version: 6.00 Build 0)  -->
<!DOCTYPE svg PUBLIC "-//W3C//DTD SVG 1.1//EN" "http://www.w3.org/Graphics/SVG/1.1/DTD/svg11.dtd">
<svg version="1.1" id="Layer_1" xmlns="http://www.w3.org/2000/svg" xmlns:xlink="http://www.w3.org/1999/xlink" x="0px" y="0px"
	 width="512px" height="512px" viewBox="0 0 512 512" enable-background="new 0 0 512 512" xml:space="preserve">
<path d="M0,40.159v431.682h512V40.159H0z M481.883,441.724H30.117V70.277h451.766V441.724z M471.842,376.484c0-0.01,0-0.021,0-0.03
	V80.315H40.156v351.368h431.687V376.484z M441.726,110.433v229.681l-84.724-84.723c-5.88-5.881-15.416-5.881-21.296,0
	l-39.075,39.075l-99.808-108.878c-2.704-2.95-6.473-4.702-10.473-4.869c-3.991-0.167-7.899,1.265-10.842,3.979L70.274,281.84
	V110.432L441.726,110.433L441.726,110.433z M70.274,401.567v-78.739L184.834,217.08l90.48,98.703l-19.922,19.922
	c-5.881,5.881-5.881,15.415,0,21.296c5.879,5.881,15.416,5.881,21.296,0l69.665-69.665l95.371,95.373v18.859L70.274,401.567
	L70.274,401.567z M356.394,215.844c16.627,0,30.117-13.485,30.117-30.118c0-16.632-13.49-30.117-30.117-30.117
	c-16.628,0-30.117,13.485-30.117,30.117C326.276,202.358,339.766,215.844,356.394,215.844z"/>
</svg>
