<?xml version="1.0" encoding="utf-8"?>
<!-- Generator: Adobe Illustrator 16.0.4, SVG Export Plug-In . SVG Version: 6.00 Build 0)  -->
<!DOCTYPE svg PUBLIC "-//W3C//DTD SVG 1.1//EN" "http://www.w3.org/Graphics/SVG/1.1/DTD/svg11.dtd">
<svg version="1.1" id="Layer_1" xmlns="http://www.w3.org/2000/svg" xmlns:xlink="http://www.w3.org/1999/xlink" x="0px" y="0px"
	 width="65.197px" height="65.193px" viewBox="0 0 65.197 65.193" enable-background="new 0 0 65.197 65.193" xml:space="preserve">
<circle fill="none" stroke="#1F1E21" stroke-width="3" stroke-linecap="round" stroke-linejoin="round" stroke-miterlimit="10" cx="32.598" cy="32.513" r="30.916"/>
<path fill="#1F1E21" stroke="#1F1E21" stroke-width="3" stroke-linecap="round" stroke-linejoin="round" stroke-miterlimit="10" d="
	M38.954,46.075c-0.032-0.369-0.059-0.963-0.078-1.578c5.597-0.572,9.522-1.916,9.522-3.479c-0.015-0.002-0.014-0.066-0.014-0.092
	c-4.185-3.77,3.627-30.565-10.914-30.021c-0.915-0.773-2.513-1.46-4.807-1.46c-19.696,1.488-10.987,26.795-15.475,31.569
	c-0.003,0.002-0.007,0.002-0.01,0.002c0,0.004,0.002,0.006,0.002,0.01l-0.002,0.002c0,0,0.002,0,0.003,0
	c0.019,1.531,3.812,2.852,9.246,3.436c-0.015,0.375-0.048,0.84-0.117,1.611c-1.651,4.439-10.252,4.721-15.02,9.139
	c2.605,2.275,11.687,8.383,21.428,8.383c9.742,0,17.831-4.625,21.058-8.512C48.998,50.79,40.588,50.471,38.954,46.075z"/>
</svg>
