<?xml version="1.0" encoding="utf-8"?>
<!-- Generator: Adobe Illustrator 16.0.4, SVG Export Plug-In . SVG Version: 6.00 Build 0)  -->
<!DOCTYPE svg PUBLIC "-//W3C//DTD SVG 1.1//EN" "http://www.w3.org/Graphics/SVG/1.1/DTD/svg11.dtd">
<svg version="1.1" id="Layer_1" xmlns="http://www.w3.org/2000/svg" xmlns:xlink="http://www.w3.org/1999/xlink" x="0px" y="0px"
	 width="512px" height="512px" viewBox="0 0 512 512" enable-background="new 0 0 512 512" xml:space="preserve">
<path d="M256,512C114.841,512,0,397.159,0,256S114.841,0,256,0c141.158,0,256,114.841,256,256S397.158,512,256,512z M256.668,85.467
	c-40.683,3.243-66.418,19.479-80.997,51.097c-12.626,27.379-15.847,63.194-16.951,112.106c-0.676,29.895-1.208,53.498-8.133,70.057
	l-2.33,5.571l5.532,2.426c11.876,5.207,31.81,9.606,54.691,12.072c6.115,0.66,10.703,5.988,10.444,12.13
	c-0.133,3.215-0.42,7.184-0.96,13.272c-0.093,1.047-0.325,2.069-0.69,3.042c-8.989,24.188-36.129,33.953-62.375,43.397
	c-13.122,4.726-26.689,9.609-38.767,16.215l-8.545,4.674l7.896,5.698c23.31,16.822,60.053,38.844,102.722,48.229l0.166,0.036
	l0.168,0.026c12.504,2.032,25.106,3.062,37.46,3.062c50.901,0,101.209-17.135,141.654-48.247l7.354-5.656l-8.079-4.562
	c-12.221-6.9-25.928-12.312-38.021-17.083c-28.146-11.119-54.686-21.604-63.674-45.785c-0.36-0.985-0.595-2.013-0.685-3.028
	c-0.246-2.722-0.466-7.141-0.655-13.146c-0.197-6.122,4.421-11.402,10.514-12.025c24.014-2.459,44.765-6.955,56.935-12.336
	l5.482-2.423l-2.288-5.541c-7.069-17.123-7.061-43.573-7.047-77.06c0.008-33.839,0.018-72.179-8.416-100.981
	c-8.868-30.283-24.622-43.788-51.083-43.788c-0.981,0-1.981,0.02-2.994,0.057l-0.438,0.006c-2.78,0-5.521-0.983-7.634-2.769
	c-3.051-2.58-12.059-8.601-29.714-8.761l-0.272-0.002L256.668,85.467z M256.502,62.023c19.851,0,32.93,5.724,40.406,10.523
	l1.454,0.936l1.729,0.039c17.581,0.39,32.481,5.546,44.289,15.328c12.194,10.103,21.338,25.336,27.175,45.276
	c9.378,32.034,9.369,72.125,9.36,107.498c-0.008,14.405-0.017,30.735,0.932,44.294c1.621,23.19,5.424,26.686,6.674,27.833
	c2.038,1.85,3.37,4.318,3.778,6.98l0.038,0.222c0.145,0.752,0.217,1.51,0.217,2.256c-0.001,8.112-4.72,14.946-14.427,20.893
	c-10.833,6.637-27.506,11.817-49.554,15.403l-13.121,2.134l10.127,8.611c9.724,8.268,26.048,14.715,41.833,20.95
	c15.342,6.055,34.371,13.565,50.564,24.353l4.337,2.888l3.559-3.807c40.435-43.241,62.704-99.578,62.705-158.634
	c0-128.244-104.334-232.578-232.577-232.578S23.424,127.756,23.424,256c0,58.212,21.736,113.964,61.205,156.985l3.635,3.963
	l4.409-3.078c16.938-11.823,36.785-18.964,54.295-25.264c15.896-5.727,30.91-11.133,40.094-18.658l10.472-8.579l-13.352-2.232
	c-39.966-6.685-60.718-18.378-61.682-34.754l-0.012-0.15c-0.029-0.359-0.046-0.708-0.046-1.038c0-3.111,1.274-6.154,3.497-8.352
	l0.284-0.279l0.245-0.315c7.023-9.021,8.093-33.087,8.838-66.102c0.8-35.489,1.796-79.656,17.145-116.257
	c8.32-19.847,20.272-35.654,35.524-46.984c17.634-13.099,40.395-20.786,67.648-22.846C255.918,62.034,256.212,62.023,256.502,62.023
	z"/>
</svg>
