<?xml version="1.0" encoding="utf-8"?>
<!-- Generator: Adobe Illustrator 16.0.4, SVG Export Plug-In . SVG Version: 6.00 Build 0)  -->
<!DOCTYPE svg PUBLIC "-//W3C//DTD SVG 1.1//EN" "http://www.w3.org/Graphics/SVG/1.1/DTD/svg11.dtd">
<svg version="1.1" id="Layer_1" xmlns="http://www.w3.org/2000/svg" xmlns:xlink="http://www.w3.org/1999/xlink" x="0px" y="0px"
	 width="512px" height="512px" viewBox="0 0 512 512" enable-background="new 0 0 512 512" xml:space="preserve">
<path d="M17.183,512c-0.048-4.732-0.067-10.336,0.062-12.469c1.919-31.966,14.599-57.11,38.764-76.87
	c21.194-17.329,47.231-27.569,70.204-36.604c23.232-9.142,45.098-17.746,55.496-30.554l6.764-8.331l-10.609-1.615
	c-34.176-5.203-75.212-16.334-76.619-39.816l-0.017-0.211c-0.036-0.383-0.055-0.754-0.055-1.103c0-3.307,1.337-6.372,3.764-8.628
	l0.281-0.261l0.246-0.293c8.625-10.296,9.875-37.897,10.797-78.829c0.947-41.851,2.124-93.931,20.155-136.575
	C157.22,30.635,196.206,4.53,255.599,0.036C255.912,0.011,256.196,0,256.488,0c18.436,0,34.677,4.306,46.968,12.452l1.498,0.992
	l1.797,0.029c17.663,0.284,33.139,4.876,45.998,13.646c16.902,11.527,29.28,30.382,36.79,56.041
	c10.925,37.333,10.913,84.239,10.902,125.625c-0.029,65.117,3.194,80.046,9.553,85.988c1.986,1.867,3.385,4.466,3.824,7.114
	l0.039,0.215c0.153,0.757,0.228,1.518,0.228,2.325c0,24.83-43.074,36.304-79.209,41.557l-10.919,1.587l7.1,8.446
	c10.547,12.546,32.067,21.042,54.852,30.038c22.906,9.047,48.847,19.293,69.947,36.611c24.069,19.757,36.702,44.899,38.619,76.864
	c0.16,2.645,0.293,8.123,0.379,12.47H17.183z M256.667,23.551c-48.003,3.806-79.761,24.161-97.086,62.228
	c-14.748,32.403-18.505,74.212-19.789,131.168c-0.787,34.722-1.465,64.694-10.456,83.865l-2.53,5.396l5.314,2.694
	c7.918,4.014,27.257,11.401,67.814,15.775c6.136,0.663,10.749,6.011,10.5,12.172c-0.159,3.886-0.5,8.528-1.14,15.524
	c-0.092,1.035-0.322,2.043-0.684,3.01c-10.248,27.568-41.078,39.701-73.719,52.547c-38.836,15.281-78.903,31.046-90.8,72.705
	l-2.236,7.831h428.006l-2.225-7.824c-11.847-41.68-51.75-57.445-90.34-72.692c-32.573-12.86-63.308-24.993-73.563-52.554
	c-0.362-0.985-0.596-2.019-0.686-3.046c-0.272-3.051-0.529-8.192-0.762-15.292c-0.207-6.152,4.429-11.46,10.552-12.086
	c42.271-4.328,62.246-11.938,70.393-16.089l5.324-2.713l-2.565-5.397c-9.104-19.154-9.096-51.271-9.084-91.932
	c0.012-39.867,0.025-84.974-9.961-119.074c-10.534-36.006-30.232-52.777-61.991-52.777c-1.12,0-2.255,0.021-3.408,0.062
	l-0.149,0.001c-3.035,0-5.866-0.983-7.972-2.767c-3.758-3.182-14.807-10.595-36.226-10.755l-0.267-0.002L256.667,23.551z"/>
</svg>
