<?xml version="1.0" encoding="utf-8"?>
<!-- Generator: Adobe Illustrator 16.0.4, SVG Export Plug-In . SVG Version: 6.00 Build 0)  -->
<!DOCTYPE svg PUBLIC "-//W3C//DTD SVG 1.1//EN" "http://www.w3.org/Graphics/SVG/1.1/DTD/svg11.dtd">
<svg version="1.1" id="Layer_1" xmlns="http://www.w3.org/2000/svg" xmlns:xlink="http://www.w3.org/1999/xlink" x="0px" y="0px"
	 width="64px" height="64px" viewBox="-7 -7 64 64" enable-background="new -7 -7 64 64" xml:space="preserve">
<g>
	<path fill="none" stroke="#000000" stroke-width="3" stroke-linejoin="round" stroke-miterlimit="10" d="M-3.056,27.465
		c10.06,0,8.89-5.854,12.462-10.204c4.114-5.001,12.116-7.11,13.373-18.961c0.519-4.828,5.364-2.593,6.891-0.052
		c2.46,4.114-0.334,9.259-2.432,13.753c-1.797,3.86-1.429,8.043,3.394,7.392c5.785-0.79,9.161-1.751,14.128-1.751
		c3.388,0,5.347,2.27,5.347,4.171c0,1.55-0.461,4.056-0.461,4.056s3.411,1.204,3.411,4.615c0,3.237-2.996,4.805-2.996,4.805
		s2.996,1.176,2.996,4.264c0,3.491-4.011,4.955-4.011,4.955s1.061,1.486,1.061,3.699c0,1.912,0.185,6.245-17.861,6.245
		c-23.997,0-19.341-5.75-35.301-5.75"/>
</g>
</svg>
