<?xml version="1.0" encoding="utf-8"?>
<!-- Generator: Adobe Illustrator 16.0.4, SVG Export Plug-In . SVG Version: 6.00 Build 0)  -->
<!DOCTYPE svg PUBLIC "-//W3C//DTD SVG 1.1//EN" "http://www.w3.org/Graphics/SVG/1.1/DTD/svg11.dtd">
<svg version="1.1" id="Layer_1" xmlns="http://www.w3.org/2000/svg" xmlns:xlink="http://www.w3.org/1999/xlink" x="0px" y="0px"
	 width="65.197px" height="65.193px" viewBox="0 0 65.197 65.193" enable-background="new 0 0 65.197 65.193" xml:space="preserve">
<circle fill="none" stroke="#000000" stroke-width="3" stroke-linecap="round" stroke-linejoin="round" stroke-miterlimit="10" cx="32.598" cy="32.513" r="30.917"/>
<path fill="none" stroke="#000000" stroke-width="3" stroke-linecap="round" stroke-linejoin="round" stroke-miterlimit="10" d="
	M38.954,46.076c-0.033-0.369-0.059-0.964-0.078-1.578c5.598-0.573,9.522-1.917,9.522-3.479c-0.017-0.002-0.015-0.065-0.015-0.091
	C44.2,37.157,52.01,10.362,37.469,10.906c-0.914-0.773-2.513-1.46-4.807-1.46c-19.696,1.488-10.987,26.795-15.475,31.569
	c-0.003,0.002-0.007,0.002-0.01,0.002c0,0.003,0.002,0.006,0.002,0.009l-0.002,0.002c0,0,0.002,0,0.003,0
	c0.019,1.531,3.812,2.852,9.246,3.438c-0.016,0.375-0.049,0.839-0.118,1.61c-1.65,4.439-10.04,4.235-14.809,8.656
	c2.607,2.273,11.477,8.864,21.217,8.864c9.741,0,17.831-4.623,21.058-8.513C48.998,50.79,40.588,50.472,38.954,46.076z"/>
</svg>
