<?xml version="1.0" encoding="utf-8"?>
<!-- Generator: Adobe Illustrator 16.0.4, SVG Export Plug-In . SVG Version: 6.00 Build 0)  -->
<!DOCTYPE svg PUBLIC "-//W3C//DTD SVG 1.1//EN" "http://www.w3.org/Graphics/SVG/1.1/DTD/svg11.dtd">
<svg version="1.1" id="Layer_1" xmlns="http://www.w3.org/2000/svg" xmlns:xlink="http://www.w3.org/1999/xlink" x="0px" y="0px"
	 width="65.197px" height="65.193px" viewBox="0 0 65.197 65.193" enable-background="new 0 0 65.197 65.193" xml:space="preserve">
<circle fill="none" stroke="#FFFFFF" stroke-width="3" stroke-miterlimit="10" cx="32.598" cy="32.469" r="30.873"/>
<path fill="#FFFFFF" stroke="#FFFFFF" stroke-width="3" stroke-miterlimit="10" d="M38.945,46.012
	c-0.188-2.074-0.116-3.521-0.116-5.415c0.938-0.493,2.622-3.634,2.906-6.288c0.736-0.062,1.902-0.781,2.242-3.627
	c0.184-1.526-0.547-2.386-0.99-2.655c1.2-3.613,3.696-14.792-4.616-15.947c-0.854-1.503-3.045-2.262-5.896-2.262
	c-11.389,0.209-12.763,8.6-10.267,18.209c-0.443,0.27-1.174,1.129-0.991,2.655c0.342,2.844,1.506,3.564,2.243,3.627
	c0.283,2.651,2.033,5.795,2.975,6.288c0,1.895,0.07,3.341-0.116,5.415c-1.622,4.36-9.953,4.703-14.76,8.907
	c5.024,5.059,13.167,8.677,21.764,8.677c8.593,0,18.69-6.784,20.373-8.636C48.919,50.718,40.571,50.388,38.945,46.012z"/>
</svg>
