<?xml version="1.0" encoding="utf-8"?>
<!-- Generator: Adobe Illustrator 16.0.4, SVG Export Plug-In . SVG Version: 6.00 Build 0)  -->
<!DOCTYPE svg PUBLIC "-//W3C//DTD SVG 1.1//EN" "http://www.w3.org/Graphics/SVG/1.1/DTD/svg11.dtd">
<svg version="1.1" id="Layer_1" xmlns="http://www.w3.org/2000/svg" xmlns:xlink="http://www.w3.org/1999/xlink" x="0px" y="0px"
	 width="64px" height="63.996px" viewBox="-7 -6.998 64 63.996" enable-background="new -7 -6.998 64 63.996" xml:space="preserve">
<path fill="none" stroke="#000000" stroke-width="3" stroke-miterlimit="10" d="M31.521,37.815c0,0,5.061-2.898,6.387-3.594
	c1.32-0.698,2.69-0.874,3.521-0.368c1.26,0.771,11.828,7.802,12.72,8.425c0.889,0.622,1.318,2.404,0.095,4.15
	c-1.221,1.744-6.843,8.645-9.224,8.569c-2.388-0.078-12.31-0.293-31.017-19.009C-4.703,17.283-4.923,7.359-5,4.973
	c-0.076-2.385,6.824-8.009,8.569-9.229c1.748-1.219,3.532-0.76,4.151,0.097c0.706,0.977,7.655,11.512,8.42,12.72
	c0.524,0.825,0.331,2.201-0.367,3.523c-0.695,1.325-3.593,6.386-3.593,6.386s2.042,3.484,8.95,10.39
	C28.04,35.77,31.521,37.815,31.521,37.815z"/>
</svg>
