<?xml version="1.0" encoding="utf-8"?>
<!-- Generator: Adobe Illustrator 16.0.4, SVG Export Plug-In . SVG Version: 6.00 Build 0)  -->
<!DOCTYPE svg PUBLIC "-//W3C//DTD SVG 1.1//EN" "http://www.w3.org/Graphics/SVG/1.1/DTD/svg11.dtd">
<svg version="1.1" id="Layer_1" xmlns="http://www.w3.org/2000/svg" xmlns:xlink="http://www.w3.org/1999/xlink" x="0px" y="0px"
	 width="64px" height="64px" viewBox="0 0 64 64" enable-background="new 0 0 64 64" xml:space="preserve">
<path fill="none" stroke="#000000" stroke-width="3" stroke-miterlimit="10" d="M32,62.381c16.779,0,30.381-13.602,30.381-30.381
	C62.381,15.222,48.779,1.62,32,1.62"/>
<path fill="none" stroke="#000000" stroke-width="3" stroke-miterlimit="10" d="M12.771,55.148l-5.508-5.508
	C3.711,44.668,1.62,38.579,1.62,32C1.62,15.222,15.222,1.62,32,1.62"/>
<polyline fill="none" stroke="#000000" stroke-width="3" stroke-linejoin="bevel" stroke-miterlimit="10" points="2.6,55.52 
	13.38,55.52 13.38,44.74 "/>
<g>
	<path fill="none" stroke="#000000" stroke-width="3" stroke-linecap="round" stroke-linejoin="round" stroke-miterlimit="10" d="
		M27.781,47.095c-1.081-2.331-0.754-4.894,1.328-7.185c3.609-3.785,7.234-7.254,10.786-10.811c1.799-1.715,4.084-2.596,6.561-1.668
		c2.15,0.806,4.371,2.831,5.295,4.986c1.125,2.625,0.344,4.615-0.969,6.333c-1.172,1.534-7.125,7.562-9.875,10.188
		c-2.288,2.186-3.969,3.781-7.385,3.043C30.296,51.283,28.211,48.02,27.781,47.095z"/>
	<path fill="none" stroke="#000000" stroke-width="3" stroke-miterlimit="10" d="M40.201,40.254
		c-0.297,0.296-0.785,0.311-1.082,0.014c-0.326-0.326-0.297-0.801,0-1.097c0.311-0.312,0.756-0.312,1.082,0.015
		C40.498,39.482,40.514,39.941,40.201,40.254z"/>
	<path fill="none" stroke="#000000" stroke-width="3" stroke-linecap="round" stroke-linejoin="round" stroke-miterlimit="10" d="
		M13.108,25.112c-1.858,2.135-1.811,4.466-0.584,6.832c0.96,1.853,2.414,3.259,4.301,4.215c2.087,1.058,4.106,0.871,5.992-0.384
		c1.75-1.166,3.417-2.795,4.371-4.775c0.75-2.042,0.167-4.812-2.062-7.25c3.396,2.979,5.405,2.084,6,1.917
		c2.146-0.604,5.479-3.479,5.625-6.333c0.063-1.228-0.155-2.146-0.666-3.104c-1.188-2.229-3.209-4.271-6.209-4.354
		c-1.449-0.041-2.542,0.396-3.69,1.231c-0.287,0.209-0.372,0.269-0.622,0.487"/>
</g>
</svg>
