<?xml version="1.0" encoding="utf-8"?>
<!-- Generator: Adobe Illustrator 16.0.4, SVG Export Plug-In . SVG Version: 6.00 Build 0)  -->
<!DOCTYPE svg PUBLIC "-//W3C//DTD SVG 1.1//EN" "http://www.w3.org/Graphics/SVG/1.1/DTD/svg11.dtd">
<svg version="1.1" id="Layer_1" xmlns="http://www.w3.org/2000/svg" xmlns:xlink="http://www.w3.org/1999/xlink" x="0px" y="0px"
	 width="64px" height="64px" viewBox="0 0 64 64" enable-background="new 0 0 64 64" xml:space="preserve">
<g>
	<circle fill="none" stroke="#000000" stroke-width="3" stroke-miterlimit="10" cx="8.6" cy="47.8" r="6"/>
</g>
<g>
	<circle fill="none" stroke="#000000" stroke-width="3" stroke-miterlimit="10" cx="44.8" cy="47.8" r="6"/>
</g>
<path fill="none" stroke="#000000" stroke-width="3" stroke-miterlimit="10" d="M51,47.8h2.4c1.221,0,2.398-1.179,2.398-2.399
	c0,0,0-7.44,0-9.539c0-2.098-1.695-4.473-1.695-4.473l-4.951-6.603C48.141,23.564,46.627,22.2,45,22.2H35l0.083,25.599H37.8
	 M55.8,36.6c0,0-12,0-13.2,0C41.4,36.6,40.2,35.4,40.2,34.2c0-0.692,0-2.986,0-4.8c0-1.329,1.2-2.4,2.399-2.4s8.215,0,8.215,0"/>
<path fill="none" stroke="#000000" stroke-width="3" stroke-miterlimit="10" d="M14.6,47.8h16.483L31,15.2
	c0-1.221-1.564-2.493-2.785-2.493H-5.833l0,35.092h8.435"/>
</svg>
