<?xml version="1.0" encoding="utf-8"?>
<!-- Generator: Adobe Illustrator 16.0.4, SVG Export Plug-In . SVG Version: 6.00 Build 0)  -->
<!DOCTYPE svg PUBLIC "-//W3C//DTD SVG 1.1//EN" "http://www.w3.org/Graphics/SVG/1.1/DTD/svg11.dtd">
<svg version="1.1" id="Layer_2" xmlns="http://www.w3.org/2000/svg" xmlns:xlink="http://www.w3.org/1999/xlink" x="0px" y="0px"
	 width="64px" height="64px" viewBox="0 0 64 64" enable-background="new 0 0 64 64" xml:space="preserve">
<line fill="none" stroke="#000000" stroke-width="3" stroke-linecap="round" stroke-linejoin="bevel" stroke-miterlimit="10" x1="18.755" y1="56.417" x2="45.588" y2="7.583"/>
<path fill="none" stroke="#000000" stroke-width="3" stroke-linecap="round" stroke-miterlimit="10" d="M25.854,16.171
	c0-4.236-3.554-7.671-7.938-7.671l0,0c-4.383,0-7.937,3.435-7.937,7.671v11.95c0,4.236,3.554,7.672,7.937,7.672l0,0
	c4.384,0,7.938-3.436,7.938-7.672V16.171z"/>
<path fill="none" stroke="#000000" stroke-width="3" stroke-linecap="round" stroke-miterlimit="10" d="M54.02,36.172
	c0-4.237-3.554-7.672-7.937-7.672l0,0c-4.383,0-7.937,3.435-7.937,7.672v11.949c0,4.236,3.554,7.672,7.937,7.672l0,0
	c4.383,0,7.937-3.436,7.937-7.672V36.172z"/>
</svg>
