<svg xmlns="http://www.w3.org/2000/svg" width="64" height="64" viewBox="0 0 64 64"><path fill="none" stroke="#000" stroke-width="2" stroke-miterlimit="10" d="M37.004 32.166c1.224.533 2.576.83 3.997.828 3.272-.003 6.176-1.576 8-4.006L60.99 16.98c1.255-1.673 1.998-3.75 1.996-6.002C62.983 5.456 58.502.98 52.98.985c-2.252.002-4.328.747-6 2.004L33.99 15.997c-1.77 1.805-2.998 4.277-2.997 7.003 0 1.425.3 2.78.837 4.004M37.004 32.166M31.83 27.004c.054.12.108.24.167.358M26.997 31.836c-1.225-.535-2.577-.83-3.998-.83-2.252.002-4.33.747-6 2.004L4.01 46.02c-1.768 1.804-2.997 4.276-2.995 7.002.003 5.522 4.484 9.997 10.007 9.993 3.27-.003 6.174-1.576 7.997-4.006L31.01 47c1.255-1.672 1.998-3.75 1.996-6 0-1.423-.3-2.775-.835-4M23.006 41.006l17.988-18.012"/></svg>