<svg version="1" xmlns="http://www.w3.org/2000/svg" width="64" height="64" viewBox="0 0 64 64"><path d="M29 13h2v39h-2zM33 13h2v39h-2z"/><path fill="none" stroke="#000" stroke-width="2" stroke-miterlimit="10" d="M40.988 23s0-6-9-6-8 7-8 7 0 7 8 7c9 0 10.012 6 10.012 7 0 2 .988 8-10.012 8-9 0-8.988-4-8.988-5"/><path fill="none" stroke="#000" stroke-width="2" stroke-miterlimit="10" d="M53.92 10.08c12.107 12.106 12.107 31.733 0 43.84-12.106 12.107-31.734 12.107-43.84 0-12.106-12.106-12.106-31.733 0-43.84 12.106-12.107 31.733-12.107 43.84 0z"/></svg>