<svg xmlns="http://www.w3.org/2000/svg" width="64" height="64" viewBox="0 0 64 64"><path d="M61.422 30.094c-1.837-4.452-5.31-6.713-10.324-6.713h-6.01c1.016-2.29 2.148-5.615 2.148-9.62 0-1.098-.087-2.237-.296-3.396-.788-4.655-3.975-7.13-8.5-6.635-1.795.205-2.41 1.902-3.896 6.02-1.23 3.412-2.92 8.087-5.37 11.845-1.8 2.762-5.01 4.94-7.705 6.284v-.343H1.63v29.41h19.84v-1.62c3.124-.153 4.9-.065 5.314.07l3.552 2.057 2.653 1.65c2.578 1.388 13.855 1.52 18.69.804 6.216-.904 7.718-5.986 7.78-6.208.488-1.687 4.768-16.814 1.962-23.606zm-5.71 22.536c-.034.112-.94 2.898-4.6 3.422-5.202.77-14.852.304-16.282-.376l-2.353-1.474-4.46-2.5c-1.034-.345-3.38-.386-6.545-.243V32.086c3.196-1.29 8.146-4.06 10.97-8.37 2.7-4.134 4.476-9.052 5.774-12.65 0 0 1.146-2.842 1.42-3.5 1.977.01 3.065 1.095 3.473 3.444.16.92.223 1.834.223 2.716 0 5.828-3 10.468-3.045 10.526l-1.978 3.01 12.788.004c3.42 0 5.49 1.328 6.723 4.31 1.94 4.693-.875 16.795-2.107 21.054z"/></svg>