<svg xmlns="http://www.w3.org/2000/svg" width="64" height="64" viewBox="0 0 64 64"><path d="M61.396 7.657c-2.47 1.462-5.203 2.524-8.11 3.1-2.33-2.486-5.644-4.034-9.315-4.034-7.052 0-12.765 5.718-12.765 12.763 0 1 .113 1.975.33 2.907-10.608-.53-20.014-5.614-26.31-13.336C4.13 10.937 3.5 13.132 3.5 15.472c0 4.43 2.255 8.338 5.677 10.624-2.094-.07-4.06-.646-5.78-1.603v.16c0 6.184 4.4 11.34 10.235 12.518-1.068.29-2.195.45-3.36.45-.827 0-1.624-.084-2.407-.232 1.627 5.07 6.34 8.762 11.924 8.867-4.368 3.422-9.874 5.46-15.853 5.46-1.03 0-2.047-.06-3.047-.173 5.65 3.617 12.357 5.734 19.566 5.734 23.48 0 36.316-19.453 36.316-36.32l-.04-1.654c2.5-1.793 4.67-4.04 6.378-6.6-2.29 1.015-4.746 1.704-7.328 2.012 2.635-1.58 4.655-4.083 5.614-7.057z"/></svg>