<?xml version="1.0" encoding="utf-8"?>
<!-- Generator: Adobe Illustrator 16.0.4, SVG Export Plug-In . SVG Version: 6.00 Build 0)  -->
<!DOCTYPE svg PUBLIC "-//W3C//DTD SVG 1.1//EN" "http://www.w3.org/Graphics/SVG/1.1/DTD/svg11.dtd">
<svg version="1.1" id="Layer_1" xmlns="http://www.w3.org/2000/svg" xmlns:xlink="http://www.w3.org/1999/xlink" x="0px" y="0px"
	 width="64px" height="64px" viewBox="-7 -7 64 64" enable-background="new -7 -7 64 64" xml:space="preserve">
<circle fill="#FFFFFF" stroke="#DB2525" stroke-width="1.92" stroke-miterlimit="10" cx="24.75" cy="25" r="30"/>
<g>
	<path fill="#DB2525" d="M29.958,30.247c0.884-0.236,1.403-1.134,1.167-2.019l-4.606-17.19c-0.235-0.876-1.608-1.494-2.481-1.26
		l-23.325,6.25c-0.877,0.235-1.402,1.144-1.167,2.021l4.624,17.255c0.238,0.888,1.316,1.5,2.19,1.266L29.958,30.247z"/>
	<path fill="#DB2525" d="M20.843,39.457l27.509-7.371c0.886-0.237,0.978-1.02,0.74-1.905l-0.821-3.068L6.352,38.345
		c-0.877,0.235-1.275,1.111-1.04,1.988l0.358,1.337c0.238,0.889,1.19,1.534,2.064,1.3l4.458-1.194"/>
	<g>
		<path fill="#DB2525" d="M45.304,29.854l1.729-0.463c0.881-0.236,1.502-1.304,1.264-2.191c0,0-1.392-5.194-1.797-6.707
			c-0.407-1.518-2.094-2.899-2.094-2.899l-4.838-3.803c-0.976-0.686-2.322-1.381-3.494-1.067l-5.478,1.468
			c-0.887,0.238-1.501,1.313-1.264,2.198l3.973,14.827c0.236,0.883,1.309,1.491,2.191,1.266l0.28-0.075"/>
		<path fill="#FFFFFF" d="M44.496,19.399c0,0-9.289,2.489-10.156,2.721c-0.868,0.233-1.968-0.397-2.199-1.262
			c-0.132-0.49-0.575-2.146-0.927-3.456c-0.257-0.96,0.406-1.961,1.273-2.194s3.948-1.058,4.586-1.229
			c0.664-0.178,1.003,0.047,1.503,0.402c1.497,1.067,4.293,3.347,5.005,3.9C44.538,19.025,44.496,19.399,44.496,19.399z"/>
	</g>
	<g>
		<path fill="#FFFFFF" stroke="#DB2525" stroke-width="1.0569" stroke-miterlimit="10" d="M15.028,35.085
			c2.392-0.642,4.849,0.768,5.489,3.158c0.641,2.394-0.781,4.846-3.173,5.486c-2.388,0.64-4.836-0.775-5.478-3.169
			C11.227,38.171,12.641,35.725,15.028,35.085z"/>
	</g>
	<g>
		<path fill="#FFFFFF" stroke="#DB2525" stroke-width="1.0569" stroke-miterlimit="10" d="M40.112,28.363
			c2.391-0.641,4.837,0.771,5.478,3.162c0.642,2.393-0.77,4.843-3.161,5.483c-2.391,0.641-4.842-0.774-5.483-3.167
			C36.305,31.451,37.722,29.004,40.112,28.363z"/>
	</g>
	<g>
		<path fill="#FFFFFF" d="M6.988,30.816c-0.29-1.082-2.164-0.127-2.558-1.596c-0.243-0.904,0.443-1.377,1.098-1.553
			c0.397-0.106,1.142-0.194,1.231,0.143c0.033,0.122,0.008,0.371-0.176,0.42c-0.165,0.045-0.386-0.145-0.906-0.006
			c-0.446,0.12-0.719,0.377-0.615,0.762c0.242,0.904,2.121-0.037,2.557,1.59c0.234,0.875-0.238,1.46-1.046,1.677
			c-0.795,0.213-1.463-0.054-1.545-0.36c-0.04-0.146,0.035-0.383,0.188-0.424c0.22-0.059,0.496,0.385,1.175,0.203
			C6.832,31.554,7.106,31.258,6.988,30.816z"/>
		<path fill="#FFFFFF" d="M10.31,28.99l-1.522,0.408l0.494,1.847c0.038,0.141-0.102,0.257-0.268,0.302
			c-0.158,0.042-0.343,0.013-0.381-0.128L7.548,27.37c-0.039-0.147,0.109-0.253,0.269-0.295c0.165-0.044,0.341-0.026,0.38,0.121
			l0.452,1.688l1.523-0.407L9.72,26.788c-0.04-0.147,0.109-0.252,0.268-0.295c0.165-0.044,0.341-0.026,0.381,0.121l1.085,4.049
			c0.037,0.141-0.103,0.257-0.268,0.302c-0.158,0.042-0.344,0.013-0.381-0.128L10.31,28.99z"/>
		<path fill="#FFFFFF" d="M11.299,26.365c-0.039-0.147,0.109-0.252,0.268-0.295c0.165-0.045,0.342-0.026,0.381,0.121l1.085,4.049
			c0.037,0.141-0.103,0.257-0.268,0.301c-0.159,0.043-0.344,0.014-0.381-0.127L11.299,26.365z"/>
		<path fill="#FFFFFF" d="M12.877,25.941c-0.029-0.109,0.042-0.233,0.195-0.274l1.192-0.32c0.753-0.202,1.437,0.002,1.7,0.987
			l0.014,0.049c0.262,0.979-0.244,1.514-1.015,1.72l-0.759,0.203l0.405,1.512c0.038,0.141-0.103,0.257-0.267,0.301
			c-0.159,0.043-0.344,0.013-0.382-0.128L12.877,25.941z M13.624,26.135l0.444,1.658l0.758-0.203
			c0.452-0.121,0.659-0.453,0.515-0.99l-0.02-0.074c-0.145-0.537-0.487-0.715-0.938-0.594L13.624,26.135z"/>
		<path fill="#FFFFFF" d="M16.334,25.016c-0.029-0.11,0.042-0.234,0.195-0.275l1.193-0.319c0.752-0.202,1.436,0.002,1.699,0.986
			l0.014,0.049c0.262,0.979-0.244,1.514-1.015,1.72l-0.759,0.203l0.405,1.512c0.038,0.141-0.102,0.257-0.267,0.301
			c-0.159,0.043-0.344,0.014-0.382-0.127L16.334,25.016z M17.081,25.208l0.444,1.658l0.758-0.203
			c0.453-0.121,0.659-0.452,0.516-0.99l-0.02-0.073c-0.145-0.538-0.487-0.715-0.939-0.594L17.081,25.208z"/>
		<path fill="#FFFFFF" d="M19.791,24.089c-0.039-0.147,0.109-0.252,0.269-0.295c0.165-0.044,0.341-0.026,0.38,0.121l1.085,4.049
			c0.038,0.141-0.102,0.257-0.267,0.301c-0.159,0.043-0.344,0.014-0.382-0.127L19.791,24.089z"/>
		<path fill="#FFFFFF" d="M24.559,27.125l-2.208-2.392l0.753,2.808c0.037,0.141-0.102,0.258-0.268,0.302
			c-0.158,0.042-0.344,0.013-0.381-0.128l-1.084-4.043c-0.041-0.152,0.103-0.256,0.268-0.3c0.232-0.062,0.365-0.006,0.587,0.235
			l2.067,2.286l-0.752-2.808c-0.039-0.147,0.109-0.252,0.269-0.295c0.165-0.044,0.341-0.026,0.38,0.121l1.085,4.048
			c0.038,0.141-0.102,0.258-0.267,0.302C24.849,27.304,24.687,27.262,24.559,27.125z"/>
		<path fill="#FFFFFF" d="M26.547,22.672c-0.459,0.123-0.655,0.444-0.511,0.982l0.477,1.78c0.145,0.539,0.475,0.718,0.934,0.595
			c0.452-0.121,0.661-0.445,0.517-0.983l-0.135-0.502l-0.617,0.165c-0.135,0.036-0.243-0.072-0.279-0.207
			c-0.033-0.122,0.005-0.276,0.14-0.312l1.052-0.282c0.135-0.036,0.242,0.047,0.273,0.163l0.215,0.802
			c0.266,0.99-0.24,1.525-1.012,1.732c-0.775,0.208-1.469-0.007-1.734-0.997l-0.477-1.78c-0.266-0.99,0.239-1.526,0.985-1.726
			c0.82-0.22,1.513,0.066,1.698,0.758c0.066,0.251-0.027,0.341-0.241,0.398c-0.171,0.046-0.333,0.03-0.381-0.127
			C27.318,22.787,27.078,22.53,26.547,22.672z"/>
	</g>
	<g>
		<path fill="#FFFFFF" d="M1.999,18.468c-0.081-0.301,0.189-0.541,0.511-0.627l3.884-1.041c0.311-0.083,0.531,0.204,0.612,0.504
			c0.092,0.345,0.018,0.688-0.272,0.766l-3.071,0.823l0.596,2.224l1.703-0.456c0.289-0.078,0.519,0.159,0.6,0.459
			c0.069,0.255,0.015,0.592-0.295,0.676l-1.703,0.456l0.817,3.049c0.081,0.301-0.244,0.554-0.601,0.65
			c-0.368,0.099-0.765,0.038-0.845-0.263L1.999,18.468z"/>
		<path fill="#FFFFFF" d="M7.646,16.942c-0.062-0.234,0.07-0.496,0.349-0.57l2.203-0.59c1.458-0.391,2.787-0.149,3.261,1.619
			c0.343,1.279-0.098,2.136-0.861,2.616l2.182,2.312c0.059,0.045,0.09,0.12,0.102,0.163c0.098,0.367-0.275,0.887-0.698,1
			c-0.2,0.054-0.423-0.02-0.594-0.212l-2.401-2.648l-0.936,0.25l0.778,2.904c0.081,0.301-0.234,0.552-0.6,0.65
			c-0.356,0.095-0.766,0.039-0.846-0.262L7.646,16.942z M9.312,17.379l0.635,2.368l1.224-0.328c0.723-0.193,1.112-0.618,0.876-1.497
			c-0.236-0.88-0.788-1.064-1.511-0.871L9.312,17.379z"/>
		<path fill="#FFFFFF" d="M16.25,17.904l1.69-0.453c0.289-0.078,0.531,0.155,0.612,0.456c0.068,0.256,0.004,0.596-0.308,0.679
			l-1.69,0.453l0.599,2.235l3.147-0.843c0.29-0.078,0.538,0.18,0.631,0.526c0.08,0.299,0.021,0.661-0.291,0.744l-3.96,1.061
			c-0.323,0.087-0.677,0.015-0.757-0.286l-1.935-7.221c-0.081-0.301,0.189-0.541,0.513-0.627l3.96-1.061
			c0.312-0.083,0.543,0.201,0.624,0.5c0.092,0.345,0.006,0.691-0.284,0.769l-3.147,0.843L16.25,17.904z"/>
		<path fill="#FFFFFF" d="M22.146,16.325l1.691-0.454c0.288-0.077,0.53,0.156,0.611,0.457c0.068,0.256,0.003,0.596-0.307,0.679
			L22.45,17.46l0.599,2.234l3.148-0.843c0.29-0.078,0.539,0.18,0.632,0.526c0.08,0.298,0.021,0.66-0.291,0.744l-3.961,1.061
			c-0.324,0.087-0.675,0.015-0.756-0.286l-1.935-7.22c-0.081-0.302,0.187-0.54,0.511-0.627l3.961-1.062
			c0.312-0.083,0.544,0.201,0.625,0.5c0.092,0.345,0.005,0.691-0.284,0.769L21.549,14.1L22.146,16.325z"/>
	</g>
</g>
</svg>
