<?xml version="1.0" encoding="utf-8"?>
<!-- Generator: Adobe Illustrator 16.0.4, SVG Export Plug-In . SVG Version: 6.00 Build 0)  -->
<!DOCTYPE svg PUBLIC "-//W3C//DTD SVG 1.1//EN" "http://www.w3.org/Graphics/SVG/1.1/DTD/svg11.dtd">
<svg version="1.1" id="Layer_1" xmlns="http://www.w3.org/2000/svg" xmlns:xlink="http://www.w3.org/1999/xlink" x="0px" y="0px"
	 width="64px" height="64px" viewBox="-7 -7 64 64" enable-background="new -7 -7 64 64" xml:space="preserve">
<g>
	<circle fill="none" stroke="#000000" stroke-width="2" stroke-miterlimit="10" cx="8.6" cy="47.8" r="6"/>
</g>
<g>
	<circle fill="none" stroke="#000000" stroke-width="2" stroke-miterlimit="10" cx="44.8" cy="47.8" r="6"/>
</g>
<path fill="none" stroke="#000000" stroke-width="2" stroke-miterlimit="10" d="M51,47.8h2.4c1.221,0,2.399-1.179,2.399-2.399
	c0,0,0-7.441,0-9.539s-1.696-4.474-1.696-4.474l-4.95-6.603C48.141,23.564,46.627,22.2,45,22.2h-7.6c-1.222,0-2.4,1.179-2.4,2.4
	v20.8c0,1.216,1.186,2.391,2.4,2.399H37.8 M55.8,36.6c0,0-12,0-13.2,0C41.4,36.6,40.2,35.4,40.2,34.2c0-0.692,0-2.986,0-4.8
	c0-1.329,1.2-2.4,2.399-2.4c1.2,0,8.215,0,8.215,0"/>
<path fill="none" stroke="#000000" stroke-width="2" stroke-miterlimit="10" d="M14.6,47.8h14.185c1.219,0,2.215-0.995,2.215-2.215
	V15.2c0-1.221-1.564-2.493-2.785-2.493H-3.584c-1.221,0-2.215,0.995-2.215,2.215V45.4c0,1.221,1.179,2.399,2.4,2.399h6"/>
</svg>
