<?xml version="1.0" encoding="utf-8"?>
<!-- Generator: Adobe Illustrator 16.0.4, SVG Export Plug-In . SVG Version: 6.00 Build 0)  -->
<!DOCTYPE svg PUBLIC "-//W3C//DTD SVG 1.1//EN" "http://www.w3.org/Graphics/SVG/1.1/DTD/svg11.dtd">
<svg version="1.1" id="Layer_1" xmlns="http://www.w3.org/2000/svg" xmlns:xlink="http://www.w3.org/1999/xlink" x="0px" y="0px"
	 width="64px" height="64px" viewBox="0 0 64 64" enable-background="new 0 0 64 64" xml:space="preserve">
<path fill="none" stroke="#000000" stroke-width="2" stroke-linecap="round" stroke-miterlimit="10" d="M61.416,36.368l-4.767,4.569
	l0.537,6.582c0.074,0.898-0.494,1.723-1.358,1.974l-6.347,1.829l-2.578,6.076c-0.352,0.83-1.242,1.305-2.118,1.115l-6.478-1.324
	L33.2,61.37c-0.348,0.284-0.773,0.428-1.199,0.428c-0.426,0-0.85-0.144-1.199-0.428l-5.107-4.181l-6.476,1.324
	c-0.878,0.19-1.767-0.285-2.121-1.115l-2.58-6.076l-6.345-1.829c-0.863-0.251-1.433-1.074-1.36-1.974l0.538-6.582l-4.767-4.569
	c-0.651-0.623-0.771-1.619-0.291-2.379l3.537-5.577l-2.1-6.262c-0.285-0.854,0.072-1.79,0.851-2.239l5.723-3.3l1.052-6.518
	c0.144-0.89,0.893-1.554,1.792-1.59l6.599-0.26l3.96-5.284c0.542-0.719,1.516-0.96,2.327-0.572l5.965,2.837l5.964-2.837
	c0.808-0.389,1.786-0.148,2.325,0.572l3.961,5.284l6.6,0.26c0.898,0.036,1.646,0.7,1.795,1.589l1.053,6.518l5.724,3.3
	c0.779,0.449,1.134,1.385,0.853,2.239l-2.1,6.263l3.535,5.576C62.187,34.749,62.067,35.745,61.416,36.368z"/>
<g>
	<path d="M20.392,28.967c-0.223-0.711-0.298-1.121-0.298-3.817c0-2.696,0.076-3.106,0.298-3.818
		c0.599-1.759,2.172-2.881,4.305-2.881c2.132,0,3.705,1.122,4.302,2.881c0.225,0.711,0.3,1.123,0.3,3.818
		c0,2.693-0.076,3.106-0.3,3.817c-0.599,1.759-2.17,2.881-4.302,2.881C22.563,31.849,20.991,30.726,20.392,28.967z M26.716,28.369
		c0.112-0.375,0.188-0.899,0.188-3.219c0-2.32-0.076-2.844-0.188-3.219c-0.298-0.86-1.047-1.31-2.02-1.31
		c-0.973,0-1.722,0.448-2.021,1.31c-0.112,0.374-0.188,0.899-0.188,3.219c0,2.32,0.077,2.844,0.188,3.219
		c0.298,0.86,1.047,1.31,2.021,1.31C25.668,29.679,26.417,29.23,26.716,28.369z M37.942,18.713c0.15-0.261,0.301-0.374,0.6-0.374
		h1.798c0.228,0,0.3,0.188,0.188,0.374L25.744,44.236c-0.149,0.262-0.299,0.373-0.562,0.373h-1.796
		c-0.225,0-0.337-0.186-0.225-0.373L37.942,18.713z M34.389,37.838c0-2.695,0.076-3.105,0.298-3.818
		c0.6-1.758,2.171-2.881,4.305-2.881c2.133,0,3.707,1.123,4.303,2.881c0.225,0.71,0.298,1.123,0.298,3.818
		c0,2.691-0.075,3.105-0.298,3.814c-0.598,1.761-2.17,2.885-4.303,2.885c-2.134,0-3.705-1.122-4.305-2.885
		C34.465,40.943,34.389,40.529,34.389,37.838z M38.993,42.365c0.972,0,1.722-0.447,2.02-1.311c0.112-0.373,0.187-0.898,0.187-3.218
		c0-2.32-0.075-2.845-0.187-3.218c-0.298-0.862-1.048-1.312-2.02-1.312c-0.975,0-1.725,0.449-2.021,1.312
		c-0.112,0.373-0.186,0.897-0.186,3.218c0,2.319,0.075,2.845,0.186,3.218C37.27,41.918,38.02,42.365,38.993,42.365z"/>
</g>
</svg>
