<?xml version="1.0" encoding="utf-8"?>
<!-- Generator: Adobe Illustrator 16.0.4, SVG Export Plug-In . SVG Version: 6.00 Build 0)  -->
<!DOCTYPE svg PUBLIC "-//W3C//DTD SVG 1.1//EN" "http://www.w3.org/Graphics/SVG/1.1/DTD/svg11.dtd">
<svg version="1.1" id="Layer_1" xmlns="http://www.w3.org/2000/svg" xmlns:xlink="http://www.w3.org/1999/xlink" x="0px" y="0px"
	 width="64px" height="64px" viewBox="0 0 64 64" enable-background="new 0 0 64 64" xml:space="preserve">
<g>
	<path fill-rule="evenodd" clip-rule="evenodd" fill="none" stroke="#000000" stroke-width="1.8899" stroke-miterlimit="10" d="
		M23.242,9.405c6.521,0,13.042,0,19.566,0c2.054,0,2.055,0.001,2.056,1.983c0,1.805-0.001,3.612,0,5.418
		c0,1.973,0.001,1.973,1.903,1.975c2.909,0.001,5.819-0.008,8.729,0.003c1.942,0.007,2.302,0.356,2.309,2.264
		c0.013,3.06,0.092,6.125-0.033,9.18c-0.062,1.513,0.457,1.991,1.863,1.767c0.293-0.047,0.601,0.01,0.902-0.006
		c0.714-0.041,0.964,0.311,0.963,0.997c-0.013,5.619-0.013,11.239-0.002,16.857c0.001,0.639-0.259,0.912-0.896,0.886
		c-0.602-0.024-1.207-0.045-1.806,0.007c-0.742,0.064-1.042-0.282-1.269-0.954c-1.393-4.14-4.736-6.548-9.054-6.577
		c-4.234-0.03-7.782,2.429-9.176,6.463c-0.283,0.816-0.651,1.084-1.488,1.076c-4.313-0.035-8.628-0.031-12.942-0.004
		c-0.82,0.006-1.193-0.221-1.464-1.081c-1.233-3.906-4.551-6.362-8.508-6.447c-4.159-0.088-7.831,2.311-9.335,6.082
		c-0.196,0.488-0.136,1.272-0.765,1.354c-0.983,0.128-1.998,0.047-2.997,0c-0.274-0.012-0.341-0.325-0.349-0.587
		c-0.011-0.3-0.016-0.601-0.016-0.902C1.433,36.464,1.452,23.771,1.405,11.078C1.4,9.775,1.718,9.359,3.073,9.373
		C9.795,9.442,16.519,9.405,23.242,9.405z M44.863,27.199c0,1.2,0.048,2.402-0.016,3.598c-0.049,0.918,0.283,1.226,1.199,1.205
		c2.247-0.049,4.498-0.06,6.746,0.003c1.089,0.031,1.37-0.421,1.348-1.424c-0.051-2.297-0.058-4.599,0.004-6.896
		c0.026-1.017-0.36-1.277-1.315-1.249c-2.099,0.06-4.205,0.118-6.295-0.016c-1.462-0.096-1.812,0.471-1.688,1.781
		C44.938,25.193,44.863,26.199,44.863,27.199z"/>
	<path fill-rule="evenodd" clip-rule="evenodd" fill="none" stroke="#000000" stroke-width="1.8899" stroke-miterlimit="10" d="
		M8.971,52.437c0.031-3.071,2.536-5.589,5.532-5.559c3.155,0.031,5.73,2.663,5.666,5.79c-0.063,3.054-2.712,5.607-5.758,5.551
		C11.287,58.159,8.939,55.664,8.971,52.437z"/>
	<path fill-rule="evenodd" clip-rule="evenodd" fill="none" stroke="#000000" stroke-width="1.8899" stroke-miterlimit="10" d="
		M53.957,52.582c0.004,3.204-2.399,5.67-5.523,5.668c-3.083-0.002-5.636-2.523-5.673-5.604c-0.039-3.128,2.411-5.577,5.598-5.594
		C51.626,47.036,53.953,49.334,53.957,52.582z"/>
</g>
</svg>
