<?xml version="1.0" encoding="utf-8"?>
<!-- Generator: Adobe Illustrator 16.0.4, SVG Export Plug-In . SVG Version: 6.00 Build 0)  -->
<!DOCTYPE svg PUBLIC "-//W3C//DTD SVG 1.1//EN" "http://www.w3.org/Graphics/SVG/1.1/DTD/svg11.dtd">
<svg version="1.1" id="Layer_1" xmlns="http://www.w3.org/2000/svg" xmlns:xlink="http://www.w3.org/1999/xlink" x="0px" y="0px"
	 width="64px" height="64px" viewBox="-7 -7 64 64" enable-background="new -7 -7 64 64" xml:space="preserve">
<polygon fill="none" stroke="#000000" stroke-width="2" stroke-linejoin="round" stroke-miterlimit="10" points="38.75,24 
	23.75,41.5 6.25,41.5 15,24 "/>
<path fill="none" stroke="#000000" stroke-width="2" stroke-linecap="round" stroke-linejoin="round" stroke-miterlimit="10" d="
	M30,15.25c1.25,1.25,1.27,1.25,7.5,1.25c0.029,0.433,1.45,11.131,6.25,25"/>
<line fill="none" stroke="#000000" stroke-width="2" stroke-linejoin="round" stroke-miterlimit="10" x1="12.091" y1="18.206" x2="23.75" y2="41.5"/>
<path d="M18.75,17.219c0,0.896-1.391,1.713-4.591,1.713c-3.317,0-6.659,3.36-6.659-0.649c0-1.159,0.261-1.783,1.683-1.783
	c0.562,0,8.053,0,8.053,0C18.139,16.5,18.75,16.526,18.75,17.219z"/>
<circle fill="none" stroke="#000000" stroke-width="2" stroke-linejoin="round" stroke-miterlimit="10" cx="6.25" cy="41.5" r="11.25"/>
<circle fill="none" stroke="#000000" stroke-width="2" stroke-linejoin="round" stroke-miterlimit="10" cx="43.75" cy="41.5" r="11.25"/>
</svg>
