<?xml version="1.0" encoding="utf-8"?>
<!-- Generator: Adobe Illustrator 16.0.4, SVG Export Plug-In . SVG Version: 6.00 Build 0)  -->
<!DOCTYPE svg PUBLIC "-//W3C//DTD SVG 1.1//EN" "http://www.w3.org/Graphics/SVG/1.1/DTD/svg11.dtd">
<svg version="1.1" xmlns="http://www.w3.org/2000/svg" xmlns:xlink="http://www.w3.org/1999/xlink" x="0px" y="0px" width="64px"
	 height="64px" viewBox="0 0 64 64" enable-background="new 0 0 64 64" xml:space="preserve">
<g id="fb-like">
</g>
<g id="twitter">
	<path d="M61.396,7.657c-2.469,1.462-5.203,2.524-8.111,3.099c-2.328-2.485-5.643-4.033-9.314-4.033
		c-7.053,0-12.766,5.718-12.766,12.763c0,1,0.113,1.975,0.33,2.907C20.927,21.862,11.521,16.779,5.226,9.057
		c-1.098,1.881-1.727,4.075-1.727,6.415c0,4.431,2.256,8.338,5.678,10.624c-2.094-0.07-4.061-0.646-5.781-1.603v0.159
		c0,6.185,4.4,11.341,10.236,12.519c-1.068,0.289-2.195,0.449-3.361,0.449c-0.826,0-1.623-0.084-2.406-0.232
		c1.627,5.07,6.34,8.762,11.924,8.867c-4.367,3.422-9.873,5.459-15.852,5.459c-1.031,0-2.047-0.059-3.047-0.172
		c5.65,3.617,12.357,5.734,19.566,5.734c23.479,0,36.316-19.453,36.316-36.321l-0.041-1.653c2.502-1.793,4.67-4.041,6.379-6.599
		c-2.291,1.014-4.746,1.703-7.328,2.011C58.417,13.135,60.437,10.631,61.396,7.657z"/>
</g>
</svg>
