<?xml version="1.0" encoding="utf-8"?>
<!-- Generator: Adobe Illustrator 16.0.4, SVG Export Plug-In . SVG Version: 6.00 Build 0)  -->
<!DOCTYPE svg PUBLIC "-//W3C//DTD SVG 1.1//EN" "http://www.w3.org/Graphics/SVG/1.1/DTD/svg11.dtd">
<svg version="1.1" id="Layer_1" xmlns="http://www.w3.org/2000/svg" xmlns:xlink="http://www.w3.org/1999/xlink" x="0px" y="0px"
	 width="50px" height="50px" viewBox="0 0 50 50" enable-background="new 0 0 50 50" xml:space="preserve">
<path fill="none" stroke="#000000" stroke-width="2" stroke-linecap="round" stroke-miterlimit="10" d="M30.934,32.527
	c-0.026-0.286-0.045-0.748-0.061-1.225c4.345-0.445,7.393-1.488,7.393-2.701c-0.012-0.002-0.011-0.051-0.011-0.07
	c-3.248-2.928,2.815-23.728-8.473-23.306c-0.709-0.6-1.95-1.133-3.729-1.133c-15.292,1.157-8.531,20.8-12.015,24.508
	c-0.002,0.002-0.005,0.002-0.007,0.002c0,0.002,0.001,0.004,0.001,0.006l-0.001,0.002c0,0,0.001,0,0.002,0
	c0.014,1.189,2.959,2.213,7.178,2.668c-0.012,0.291-0.037,0.65-0.092,1.25C19.367,37.238,7.546,35.916,7,45h38
	C44.455,35.916,32.686,37.238,30.934,32.527z"/>
</svg>
